<svg width="229" height="60" viewBox="0 0 229 60" fill="none" xmlns="http://www.w3.org/2000/svg">
<g filter="url(#filter0_d_2359_14073)">
<mask id="path-1-inside-1_2359_14073" fill="white">
<path fill-rule="evenodd" clip-rule="evenodd" d="M2.69139 57C2.30955 57 2 56.6905 2 56.3086C2 56.1883 2.0314 56.07 2.0911 55.9656L16.366 30.9846C17.0687 29.7548 17.0687 28.2452 16.366 27.0154L2.0911 2.03442C2.0314 1.92995 2 1.81171 2 1.69139C2 1.30955 2.30955 1 2.6914 1H208.679C210.114 1 211.44 1.76914 212.152 3.01544L225.866 27.0154C226.569 28.2452 226.569 29.7548 225.866 30.9846L212.152 54.9846C211.44 56.2309 210.114 57 208.679 57H2.69139Z"/>
</mask>
<path fill-rule="evenodd" clip-rule="evenodd" d="M2.69139 57C2.30955 57 2 56.6905 2 56.3086C2 56.1883 2.0314 56.07 2.0911 55.9656L16.366 30.9846C17.0687 29.7548 17.0687 28.2452 16.366 27.0154L2.0911 2.03442C2.0314 1.92995 2 1.81171 2 1.69139C2 1.30955 2.30955 1 2.6914 1H208.679C210.114 1 211.44 1.76914 212.152 3.01544L225.866 27.0154C226.569 28.2452 226.569 29.7548 225.866 30.9846L212.152 54.9846C211.44 56.2309 210.114 57 208.679 57H2.69139Z" fill="white"/>
<path d="M16.366 30.9846L15.4977 30.4884L16.366 30.9846ZM16.366 27.0154L15.4977 27.5116L16.366 27.0154ZM225.866 27.0154L226.734 26.5193V26.5193L225.866 27.0154ZM225.866 30.9846L226.734 31.4807V31.4807L225.866 30.9846ZM212.152 54.9846L213.02 55.4807L212.152 54.9846ZM212.152 3.01544L213.02 2.51931L212.152 3.01544ZM2.0911 55.9656L1.22285 55.4694L2.0911 55.9656ZM15.4977 30.4884L1.22285 55.4694L2.95934 56.4617L17.2342 31.4807L15.4977 30.4884ZM15.4977 27.5116C16.0248 28.4339 16.0248 29.5661 15.4977 30.4884L17.2342 31.4807C18.1126 29.9435 18.1126 28.0565 17.2342 26.5193L15.4977 27.5116ZM1.22285 2.53056L15.4977 27.5116L17.2342 26.5193L2.95934 1.53828L1.22285 2.53056ZM208.679 0H2.6914V2H208.679V0ZM211.283 3.51158L224.998 27.5116L226.734 26.5193L213.02 2.51931L211.283 3.51158ZM224.998 27.5116C225.525 28.4339 225.525 29.5661 224.998 30.4884L226.734 31.4807C227.613 29.9435 227.613 28.0565 226.734 26.5193L224.998 27.5116ZM224.998 30.4884L211.283 54.4884L213.02 55.4807L226.734 31.4807L224.998 30.4884ZM2.69139 58H208.679V56H2.69139V58ZM211.283 54.4884C210.749 55.4231 209.755 56 208.679 56V58C210.473 58 212.13 57.0386 213.02 55.4807L211.283 54.4884ZM2.95934 1.53828C2.98598 1.58491 3 1.63768 3 1.69139H1C1 1.98574 1.07682 2.27499 1.22285 2.53056L2.95934 1.53828ZM208.679 2C209.755 2 210.749 2.57686 211.283 3.51158L213.02 2.51931C212.13 0.96143 210.473 0 208.679 0V2ZM1 56.3086C1 57.2427 1.75726 58 2.69139 58V56C2.86183 56 3 56.1382 3 56.3086H1ZM3 1.69139C3 1.86184 2.86183 2 2.6914 2V0C1.75728 0 1 0.757251 1 1.69139H3ZM3 56.3086C3 56.3623 2.98598 56.4151 2.95934 56.4617L1.22285 55.4694C1.07682 55.725 1 56.0143 1 56.3086H3Z" fill="#BDBDBD" mask="url(#path-1-inside-1_2359_14073)"/>
</g>
<defs>
<filter id="filter0_d_2359_14073" x="0" y="0" width="228.393" height="60" filterUnits="userSpaceOnUse" color-interpolation-filters="sRGB">
<feFlood flood-opacity="0" result="BackgroundImageFix"/>
<feColorMatrix in="SourceAlpha" type="matrix" values="0 0 0 0 0 0 0 0 0 0 0 0 0 0 0 0 0 0 127 0" result="hardAlpha"/>
<feOffset dy="1"/>
<feGaussianBlur stdDeviation="1"/>
<feColorMatrix type="matrix" values="0 0 0 0 0.215686 0 0 0 0 0.254902 0 0 0 0 0.317647 0 0 0 0.08 0"/>
<feBlend mode="normal" in2="BackgroundImageFix" result="effect1_dropShadow_2359_14073"/>
<feBlend mode="normal" in="SourceGraphic" in2="effect1_dropShadow_2359_14073" result="shape"/>
</filter>
</defs>
</svg>
