<svg width="228" height="60" viewBox="0 0 228 60" fill="none" xmlns="http://www.w3.org/2000/svg">
<g filter="url(#filter0_d_2359_14065)">
<mask id="path-1-inside-1_2359_14065" fill="white">
<path fill-rule="evenodd" clip-rule="evenodd" d="M211.152 3.01544C210.44 1.76914 209.114 1 207.679 1H6.89275C3.82146 1 1.89599 4.31793 3.41978 6.98456L14.866 27.0154C15.5687 28.2452 15.5687 29.7548 14.866 30.9846L3.41978 51.0154C1.89599 53.6821 3.82145 57 6.89274 57H207.679C209.114 57 210.44 56.2309 211.152 54.9846L224.866 30.9846C225.569 29.7548 225.569 28.2452 224.866 27.0154L211.152 3.01544Z"/>
</mask>
<path fill-rule="evenodd" clip-rule="evenodd" d="M211.152 3.01544C210.44 1.76914 209.114 1 207.679 1H6.89275C3.82146 1 1.89599 4.31793 3.41978 6.98456L14.866 27.0154C15.5687 28.2452 15.5687 29.7548 14.866 30.9846L3.41978 51.0154C1.89599 53.6821 3.82145 57 6.89274 57H207.679C209.114 57 210.44 56.2309 211.152 54.9846L224.866 30.9846C225.569 29.7548 225.569 28.2452 224.866 27.0154L211.152 3.01544Z" fill="#F5FBFF"/>
<path d="M14.866 27.0154L13.1295 28.0077V28.0077L14.866 27.0154ZM14.866 30.9846L13.1295 29.9923V29.9923L14.866 30.9846ZM224.866 30.9846L226.602 31.9768L226.602 31.9768L224.866 30.9846ZM224.866 27.0154L226.602 26.0232L226.602 26.0232L224.866 27.0154ZM211.152 3.01544L212.888 2.02317L211.152 3.01544ZM211.152 54.9846L212.888 55.9768L211.152 54.9846ZM6.89275 3H207.679V-1H6.89275V3ZM16.6025 26.0232L5.15627 5.99228L1.68329 7.97683L13.1295 28.0077L16.6025 26.0232ZM16.6025 31.9768C17.6565 30.1322 17.6565 27.8678 16.6025 26.0232L13.1295 28.0077C13.4809 28.6226 13.4809 29.3774 13.1295 29.9923L16.6025 31.9768ZM5.15627 52.0077L16.6025 31.9768L13.1295 29.9923L1.68329 50.0232L5.15627 52.0077ZM207.679 55H6.89274V59H207.679V55ZM223.13 29.9923L209.415 53.9923L212.888 55.9768L226.602 31.9768L223.13 29.9923ZM223.13 28.0077C223.481 28.6226 223.481 29.3774 223.13 29.9923L226.602 31.9768C227.657 30.1322 227.657 27.8678 226.602 26.0232L223.13 28.0077ZM209.415 4.00772L223.13 28.0077L226.602 26.0232L212.888 2.02317L209.415 4.00772ZM1.68329 50.0232C-0.602383 54.0231 2.2858 59 6.89274 59V55C5.35711 55 4.39437 53.341 5.15627 52.0077L1.68329 50.0232ZM207.679 3C208.396 3 209.059 3.38457 209.415 4.00772L212.888 2.02317C211.82 0.153719 209.832 -1 207.679 -1V3ZM207.679 59C209.832 59 211.82 57.8463 212.888 55.9768L209.415 53.9923C209.059 54.6154 208.396 55 207.679 55V59ZM6.89275 -1C2.28582 -1 -0.602386 3.97689 1.68329 7.97683L5.15627 5.99228C4.39437 4.65896 5.35711 3 6.89275 3V-1Z" fill="#0A2472" mask="url(#path-1-inside-1_2359_14065)"/>
</g>
<defs>
<filter id="filter0_d_2359_14065" x="0.886841" y="0" width="226.506" height="60" filterUnits="userSpaceOnUse" color-interpolation-filters="sRGB">
<feFlood flood-opacity="0" result="BackgroundImageFix"/>
<feColorMatrix in="SourceAlpha" type="matrix" values="0 0 0 0 0 0 0 0 0 0 0 0 0 0 0 0 0 0 127 0" result="hardAlpha"/>
<feOffset dy="1"/>
<feGaussianBlur stdDeviation="1"/>
<feColorMatrix type="matrix" values="0 0 0 0 0.215686 0 0 0 0 0.254902 0 0 0 0 0.317647 0 0 0 0.08 0"/>
<feBlend mode="normal" in2="BackgroundImageFix" result="effect1_dropShadow_2359_14065"/>
<feBlend mode="normal" in="SourceGraphic" in2="effect1_dropShadow_2359_14065" result="shape"/>
</filter>
</defs>
</svg>
