<svg width="32" height="32" viewBox="0 0 32 32" fill="none" xmlns="http://www.w3.org/2000/svg">
<path d="M18.6663 9.33334H21.333C22.0403 9.33334 22.7185 9.61429 23.2186 10.1144C23.7187 10.6145 23.9997 11.2928 23.9997 12V20C23.9997 20.7073 23.7187 21.3855 23.2186 21.8856C22.7185 22.3857 22.0403 22.6667 21.333 22.6667H17.333" stroke="#121212" stroke-width="2" stroke-linecap="round" stroke-linejoin="round"/>
<path d="M9.33366 9.33334H5.33366C4.62641 9.33334 3.94814 9.61429 3.44804 10.1144C2.94794 10.6145 2.66699 11.2928 2.66699 12V20C2.66699 20.7073 2.94794 21.3855 3.44804 21.8856C3.94814 22.3857 4.62641 22.6667 5.33366 22.6667H8.00033" stroke="#121212" stroke-width="2" stroke-linecap="round" stroke-linejoin="round"/>
<path d="M14.667 9.33334L10.667 16H16.0003L12.0003 22.6667" stroke="#121212" stroke-width="2" stroke-linecap="round" stroke-linejoin="round"/>
<path d="M29.333 14.6667V17.3333" stroke="#121212" stroke-width="2" stroke-linecap="round" stroke-linejoin="round"/>
</svg>
