<svg width="33" height="32" viewBox="0 0 33 32" fill="none" xmlns="http://www.w3.org/2000/svg">
<g clip-path="url(#clip0_3353_2029)">
<path fill-rule="evenodd" clip-rule="evenodd" d="M23.72 19.1761C23.3227 18.9774 21.3747 18.0201 21.012 17.8867C20.6493 17.7547 20.3853 17.6894 20.12 18.0867C19.856 18.4814 19.0973 19.3747 18.8667 19.6387C18.6347 19.9041 18.404 19.9361 18.008 19.7387C17.612 19.5387 16.3347 19.1214 14.8213 17.7721C13.644 16.7214 12.848 15.4241 12.6173 15.0267C12.3867 14.6307 12.592 14.4161 12.7907 14.2187C12.9693 14.0414 13.1867 13.7561 13.3853 13.5254C13.584 13.2934 13.6493 13.1281 13.7813 12.8627C13.9147 12.5987 13.848 12.3681 13.748 12.1694C13.6493 11.9707 12.8573 10.0201 12.5267 9.22672C12.2053 8.45472 11.8787 8.56005 11.636 8.54672C11.404 8.53605 11.14 8.53339 10.876 8.53339C10.612 8.53339 10.1827 8.63205 9.82 9.02939C9.456 9.42539 8.43333 10.3841 8.43333 12.3347C8.43333 14.2841 9.852 16.1681 10.0507 16.4334C10.2493 16.6974 12.844 20.7001 16.8187 22.4161C17.7653 22.8241 18.5027 23.0681 19.0773 23.2494C20.0267 23.5521 20.8907 23.5094 21.5733 23.4067C22.3333 23.2934 23.9173 22.4481 24.248 21.5227C24.5773 20.5974 24.5773 19.8041 24.4787 19.6387C24.38 19.4734 24.116 19.3747 23.7187 19.1761H23.72ZM16.4907 29.0467H16.4853C14.1246 29.0472 11.8072 28.4125 9.776 27.2094L9.296 26.9241L4.30667 28.2334L5.63867 23.3694L5.32533 22.8707C4.00552 20.7699 3.30706 18.3384 3.31067 15.8574C3.31333 8.59072 9.22533 2.67872 16.496 2.67872C20.016 2.67872 23.3253 4.05205 25.8133 6.54272C27.0405 7.76483 28.0132 9.21814 28.675 10.8186C29.3369 12.419 29.6749 14.1348 29.6693 15.8667C29.6667 23.1334 23.7547 29.0467 16.4907 29.0467ZM27.7067 4.65072C26.2376 3.17195 24.4896 1.99944 22.5641 1.20112C20.6386 0.402806 18.5738 -0.005435 16.4893 5.46367e-05C7.75067 5.46367e-05 0.636 7.11339 0.633333 15.8561C0.629284 18.6384 1.35917 21.3726 2.74933 23.7827L0.5 32.0001L8.90533 29.7947C11.2305 31.0616 13.8361 31.7253 16.484 31.7254H16.4907C25.2293 31.7254 32.344 24.6121 32.3467 15.8681C32.3531 13.7844 31.9463 11.7202 31.1499 9.79477C30.3535 7.86934 29.1831 6.12095 27.7067 4.65072Z" fill="#121212"/>
</g>
<defs>
<clipPath id="clip0_3353_2029">
<rect width="32" height="32" fill="white" transform="translate(0.5)"/>
</clipPath>
</defs>
</svg>
