<svg width="33" height="32" viewBox="0 0 33 32" fill="none" xmlns="http://www.w3.org/2000/svg">
<path d="M26.5 2H30.5V6H26.5V2ZM26.5 8H30.5V12H26.5V8ZM20.5 2H24.5V6H20.5V2ZM20.5 8H24.5V12H20.5V8ZM25.5 30H25.33C5.68004 28.87 2.89004 12.29 2.50004 7.23C2.43908 6.43675 2.69572 5.65177 3.2135 5.04772C3.73128 4.44368 4.46779 4.07004 5.26104 4.009C5.34037 4.003 5.42004 4 5.50004 4H10.77C11.1706 3.99961 11.562 4.11951 11.8937 4.34416C12.2253 4.56881 12.4818 4.88787 12.63 5.26L14.15 9C14.2964 9.36355 14.3327 9.76208 14.2545 10.1461C14.1763 10.5301 13.9869 10.8827 13.71 11.16L11.58 13.31C11.9114 15.2013 12.8164 16.945 14.1724 18.3045C15.5283 19.664 17.2696 20.5737 19.16 20.91L21.33 18.76C21.6115 18.4862 21.9674 18.3012 22.3533 18.2283C22.7392 18.1554 23.138 18.1977 23.5 18.35L27.27 19.86C27.6366 20.0129 27.9493 20.2714 28.1683 20.6027C28.3874 20.9339 28.5028 21.3229 28.5 21.72V27C28.5 27.7956 28.184 28.5587 27.6214 29.1213C27.0587 29.6839 26.2957 30 25.5 30ZM5.50004 6C5.36871 5.99961 5.2386 6.02508 5.11712 6.07497C4.99565 6.12486 4.88519 6.19819 4.79205 6.29077C4.69891 6.38335 4.62492 6.49337 4.5743 6.61454C4.52368 6.73572 4.49743 6.86568 4.49704 6.997C4.49704 7.025 4.49704 7.052 4.50004 7.08C4.96004 13 7.91004 27 25.44 28C25.7047 28.0159 25.9648 27.926 26.1632 27.7501C26.3616 27.5742 26.4821 27.3267 26.498 27.062L26.5 27V21.72L22.73 20.21L19.86 23.06L19.38 23C10.68 21.91 9.50004 13.21 9.50004 13.12L9.44003 12.64L12.28 9.77L10.78 6H5.50004Z" fill="#121212"/>
</svg>
