<svg width="32" height="32" viewBox="0 0 32 32" fill="none" xmlns="http://www.w3.org/2000/svg">
<path d="M28.444 5.3335H3.55512C3.08363 5.3335 2.63144 5.5208 2.29804 5.8542C1.96464 6.18759 1.77734 6.63978 1.77734 7.11127V24.8891C1.77734 25.3605 1.96464 25.8127 2.29804 26.1461C2.63144 26.4795 3.08363 26.6668 3.55512 26.6668H28.444C28.9155 26.6668 29.3677 26.4795 29.7011 26.1461C30.0345 25.8127 30.2218 25.3605 30.2218 24.8891V7.11127C30.2218 6.63978 30.0345 6.18759 29.7011 5.8542C29.3677 5.5208 28.9155 5.3335 28.444 5.3335ZM27.0751 24.8891H5.03068L11.2529 18.4535L9.9729 17.2179L3.55512 23.8579V8.46239L14.604 19.4579C14.9371 19.7891 15.3877 19.9749 15.8573 19.9749C16.327 19.9749 16.7776 19.7891 17.1107 19.4579L28.444 8.18683V23.7424L21.9018 17.2002L20.6485 18.4535L27.0751 24.8891ZM4.71957 7.11127H27.004L15.8573 18.1957L4.71957 7.11127Z" fill="#121212"/>
</svg>
