<svg width="80" height="80" viewBox="0 0 80 80" fill="none" xmlns="http://www.w3.org/2000/svg">
<circle cx="40" cy="40" r="38" fill="white" stroke="#4F4F4F" stroke-width="4"/>
<path d="M42.35 40L49.5167 32.85C49.8305 32.5362 50.0068 32.1105 50.0068 31.6667C50.0068 31.2228 49.8305 30.7972 49.5167 30.4833C49.2028 30.1695 48.7772 29.9932 48.3334 29.9932C47.8895 29.9932 47.4639 30.1695 47.15 30.4833L40 37.65L32.85 30.4833C32.5362 30.1695 32.1105 29.9932 31.6667 29.9932C31.2229 29.9932 30.7972 30.1695 30.4834 30.4833C30.1695 30.7972 29.9932 31.2228 29.9932 31.6667C29.9932 32.1105 30.1695 32.5362 30.4834 32.85L37.65 40L30.4834 47.15C30.3271 47.305 30.2031 47.4893 30.1185 47.6924C30.0339 47.8955 29.9904 48.1133 29.9904 48.3333C29.9904 48.5534 30.0339 48.7712 30.1185 48.9743C30.2031 49.1774 30.3271 49.3617 30.4834 49.5167C30.6383 49.6729 30.8226 49.7969 31.0257 49.8815C31.2288 49.9661 31.4467 50.0097 31.6667 50.0097C31.8867 50.0097 32.1045 49.9661 32.3076 49.8815C32.5107 49.7969 32.6951 49.6729 32.85 49.5167L40 42.35L47.15 49.5167C47.305 49.6729 47.4893 49.7969 47.6924 49.8815C47.8955 49.9661 48.1133 50.0097 48.3334 50.0097C48.5534 50.0097 48.7712 49.9661 48.9743 49.8815C49.1774 49.7969 49.3617 49.6729 49.5167 49.5167C49.6729 49.3617 49.7969 49.1774 49.8815 48.9743C49.9661 48.7712 50.0097 48.5534 50.0097 48.3333C50.0097 48.1133 49.9661 47.8955 49.8815 47.6924C49.7969 47.4893 49.6729 47.305 49.5167 47.15L42.35 40Z" fill="#121212"/>
</svg>
