<svg width="50" height="50" viewBox="0 0 50 50" fill="none" xmlns="http://www.w3.org/2000/svg">
<path d="M25 42.1875C21.3265 42.1875 17.9203 40.3594 15.8843 37.2984C15.7578 37.1062 15.639 36.9156 15.5265 36.7172C15.0953 35.9703 15.3531 35.014 16.1 34.5844C16.8484 34.1515 17.8046 34.4109 18.2328 35.1578C18.3156 35.2984 18.4 35.4375 18.489 35.5734C19.9421 37.7562 22.3765 39.0625 25 39.0625C27.7781 39.0625 30.3718 37.5656 31.7687 35.1547C32.2 34.4062 33.1593 34.15 33.9031 34.5859C34.6515 35.0172 34.9062 35.975 34.4718 36.7203C32.5203 40.0922 28.8906 42.1875 25 42.1875Z" fill="#F5FBFF"/>
<path d="M25 48.4375C19.5437 48.4375 14.5312 45.9312 11.2484 41.5656C10.7312 40.8766 10.8703 39.8969 11.5594 39.3781C12.2484 38.8625 13.2266 39 13.7469 39.6891C16.4344 43.2625 20.5359 45.3125 25 45.3125C29.4641 45.3125 33.5641 43.2609 36.25 39.6859C36.7688 38.9969 37.75 38.8578 38.4375 39.375C39.1266 39.8938 39.2656 40.8734 38.7484 41.5625C35.4672 45.9313 30.4563 48.4375 25 48.4375ZM38.2812 31.25H11.7188C6.11875 31.25 1.5625 26.9094 1.5625 21.5719C1.5625 16.3641 5.89844 12.1047 11.3125 11.9016C12.7703 5.92031 18.4203 1.5625 25 1.5625C31.5797 1.5625 37.2297 5.92031 38.6875 11.9C44.1016 12.1047 48.4375 16.3641 48.4375 21.5719C48.4375 26.9094 43.8813 31.25 38.2812 31.25ZM11.7188 15.0172C7.84219 15.0172 4.6875 17.9578 4.6875 21.5703C4.6875 25.1828 7.84219 28.125 11.7188 28.125H38.2812C42.1578 28.125 45.3125 25.1844 45.3125 21.5719C45.3125 17.9594 42.1578 15.0188 38.2812 15.0188H36.0234L35.8438 13.6609C35.1656 8.54531 30.5031 4.6875 25 4.6875C19.4969 4.6875 14.8344 8.54531 14.1578 13.6594L13.9766 15.0172H11.7188Z" fill="#F5FBFF"/>
</svg>
