<svg width="80" height="80" viewBox="0 0 80 80" fill="none" xmlns="http://www.w3.org/2000/svg">
<circle cx="40" cy="40" r="38" fill="white" stroke="#F59331" stroke-width="4"/>
<path d="M35.8095 25.7304L37.3367 29.1268C37.7354 30.0137 37.8464 31.0031 37.6542 31.9562C37.462 32.9094 36.9762 33.7785 36.265 34.4415L33.7355 36.8C33.6615 36.8689 33.6147 36.962 33.6034 37.0625C33.5289 37.7346 33.9843 39.0434 35.0341 40.8635C35.7977 42.1858 36.4902 43.1154 37.0777 43.6352C37.4874 43.9992 37.7126 44.0771 37.8091 44.05L41.2123 43.0087C42.1419 42.724 43.1373 42.7375 44.0589 43.0472C44.9804 43.357 45.7819 43.9474 46.3509 44.7357L48.5181 47.7427C49.1777 48.6571 49.483 49.7798 49.3774 50.9023C49.2719 52.0248 48.7626 53.0709 47.9441 53.8464L46.444 55.2686C45.6479 56.0226 44.67 56.5575 43.6057 56.8213C42.5414 57.085 41.4269 57.0687 40.3708 56.7738C35.7079 55.4718 31.5276 51.537 27.7824 45.0506C24.0322 38.5558 22.7166 32.9617 23.9289 28.2667C24.2018 27.2108 24.7421 26.2429 25.4977 25.4564C26.2533 24.67 27.1988 24.0914 28.243 23.7765L30.2188 23.1822C31.3012 22.8559 32.4654 22.9344 33.4941 23.4033C34.5229 23.8722 35.3458 24.6993 35.8095 25.7304V25.7304ZM30.952 25.6119L28.9761 26.2096C28.3498 26.3983 27.7826 26.7451 27.3292 27.2166C26.8757 27.6881 26.5514 28.2684 26.3873 28.9016C25.3681 32.85 26.5346 37.8091 29.9818 43.7808C33.4239 49.7439 37.1302 53.2318 41.0548 54.3289C41.6883 54.5053 42.3566 54.5148 42.9948 54.3564C43.633 54.1979 44.2193 53.877 44.6967 53.4248L46.1985 52.0026C46.5707 51.65 46.8023 51.1744 46.8502 50.664C46.8982 50.1537 46.7593 49.6432 46.4593 49.2275L44.2921 46.2222C44.0335 45.8637 43.6691 45.5951 43.25 45.4542C42.8309 45.3133 42.3783 45.3071 41.9556 45.4366L38.5439 46.4813C36.563 47.0705 34.7649 45.4773 32.8347 42.1334C31.5344 39.8815 30.9283 38.1376 31.079 36.7814C31.1585 36.0771 31.4853 35.4269 32.0034 34.9427L34.5329 32.5842C34.8563 32.2828 35.0773 31.8877 35.1647 31.4544C35.2522 31.0211 35.2018 30.5713 35.0205 30.1681L33.4933 26.7717C33.2826 26.3034 32.9087 25.9277 32.4415 25.7146C31.9742 25.5015 31.4454 25.4656 30.9537 25.6136L30.952 25.6119ZM48.7162 23.0756L48.8889 23.0637C49.196 23.0638 49.4927 23.1752 49.724 23.3772C49.9553 23.5792 50.1055 23.8583 50.1469 24.1626L50.1587 24.3336V29.843L55.6648 29.8447C55.9716 29.8447 56.2681 29.9558 56.4994 30.1575C56.7306 30.3592 56.881 30.6378 56.9228 30.9418L56.9346 31.1145C56.9346 31.4214 56.8235 31.7179 56.6218 31.9491C56.4201 32.1804 56.1415 32.3308 55.8375 32.3725L55.6648 32.3844H50.1587V37.8836C50.1591 38.1908 50.0482 38.4877 49.8465 38.7193C49.6447 38.9509 49.3659 39.1015 49.0616 39.1433L48.8889 39.1535C48.582 39.1535 48.2856 39.0423 48.0543 38.8406C47.823 38.6389 47.6726 38.3603 47.6309 38.0563L47.6191 37.8836V32.3827L42.113 32.3844C41.8062 32.3844 41.5097 32.2732 41.2784 32.0715C41.0472 31.8698 40.8968 31.5912 40.855 31.2872L40.8432 31.1145C40.8433 30.8074 40.9546 30.5107 41.1567 30.2794C41.3587 30.0481 41.6377 29.8979 41.942 29.8565L42.113 29.8447H47.6191V24.3319C47.6191 24.025 47.7302 23.7285 47.9319 23.4973C48.1336 23.266 48.4122 23.1156 48.7162 23.0739L48.8889 23.062L48.7162 23.0739V23.0756Z" fill="#075DED"/>
</svg>
