<svg width="37" height="41" viewBox="0 0 37 41" fill="none" xmlns="http://www.w3.org/2000/svg">
<path d="M24.5619 0.575234C21.3121 -0.47561 13.6667 -0.1898 11.7559 2.29502C6.78629 2.39111 0.956761 6.88276 0.191727 12.8084C-0.564684 18.6724 1.12061 21.3962 1.72056 25.8066C2.40059 30.8033 5.20941 32.4011 7.45524 33.0701C10.6866 37.3388 14.1213 37.1564 19.888 37.1564C31.1491 37.1564 36.513 29.6219 36.9873 16.8233C37.2731 9.08177 32.7322 3.21897 24.5619 0.575234Z" fill="#0B0200"/>
<path d="M31.0025 17.369C29.9135 15.8598 28.5177 14.6452 25.46 14.2152C26.6069 14.7412 27.7058 16.5571 27.8487 17.5599C27.9916 18.564 28.1358 19.3758 27.2278 18.3718C23.5912 14.352 19.6305 15.935 15.7043 13.4785C12.962 11.7637 12.128 9.86523 12.128 9.86523C12.128 9.86523 11.7929 12.3981 7.63632 14.9778C6.43148 15.7256 4.99381 17.3911 4.19551 19.8513C3.62266 21.6192 3.80006 23.196 3.80006 25.8915C3.80006 33.7575 10.2825 40.3705 18.279 40.3705C26.2756 40.3705 32.758 33.6996 32.758 25.8915C32.758 21.0007 32.2455 19.09 31.0025 17.369Z" fill="#7C533E"/>
<path d="M18.2655 36.2017C15.3741 36.2017 13.8613 34.7726 13.6987 34.6088C13.217 34.1271 13.217 33.3485 13.6987 32.8668C14.1754 32.3901 14.9466 32.3864 15.4283 32.8545C15.4911 32.9124 16.4213 33.7378 18.2655 33.7378C20.1368 33.7378 21.0657 32.8878 21.1051 32.8521C21.5954 32.3925 22.3703 32.4061 22.8397 32.8878C23.3066 33.3719 23.3078 34.1333 22.8323 34.6088C22.6696 34.7726 21.1568 36.2017 18.2655 36.2017ZM19.4974 30.042H17.0335C16.3535 30.042 15.8016 29.4913 15.8016 28.8101C15.8016 28.1288 16.3535 27.5781 17.0335 27.5781H19.4974C20.1787 27.5781 20.7293 28.1288 20.7293 28.8101C20.7293 29.4913 20.1787 30.042 19.4974 30.042Z" fill="#3D2E24"/>
<path d="M12.1058 25.1143C11.4257 25.1143 10.8738 24.5636 10.8738 23.8823V21.4185C10.8738 20.7384 11.4257 20.1865 12.1058 20.1865C12.7858 20.1865 13.3377 20.7384 13.3377 21.4185V23.8823C13.3377 24.5636 12.7858 25.1143 12.1058 25.1143ZM24.4252 25.1143C23.7439 25.1143 23.1932 24.5636 23.1932 23.8823V21.4185C23.1932 20.7384 23.7439 20.1865 24.4252 20.1865C25.1064 20.1865 25.6571 20.7384 25.6571 21.4185V23.8823C25.6571 24.5636 25.1064 25.1143 24.4252 25.1143Z" fill="black"/>
</svg>
