<svg width="40" height="44" viewBox="0 0 40 44" fill="none" xmlns="http://www.w3.org/2000/svg">
<path d="M26.7491 1.60404C23.2869 0.48452 15.1418 0.789007 13.1062 3.43621C7.81183 3.53858 1.60133 8.32376 0.786302 14.6366C-0.0195396 20.8839 1.77589 23.7857 2.41505 28.4842C3.13952 33.8075 6.1319 35.5098 8.52449 36.2224C11.967 40.7701 15.6261 40.5758 21.7697 40.5758C33.7668 40.5758 39.4812 32.5489 39.9864 18.9139C40.2909 10.6665 35.4533 4.42055 26.7491 1.60404Z" fill="#FFE51E"/>
<path d="M33.6106 19.4953C32.4504 17.8876 30.9634 16.5935 27.7059 16.1355C28.9278 16.6959 30.0985 18.6304 30.2507 19.6988C30.403 20.7684 30.5565 21.6333 29.5893 20.5637C25.7149 16.2812 21.4954 17.9676 17.3126 15.3506C14.3911 13.5237 13.5026 11.5012 13.5026 11.5012C13.5026 11.5012 13.1456 14.1996 8.71742 16.9479C7.43385 17.7445 5.90223 19.519 5.05176 22.1399C4.44148 24.0233 4.63047 25.7032 4.63047 28.5748C4.63047 36.9548 11.5366 44 20.0556 44C28.5747 44 35.4808 36.8931 35.4808 28.5748C35.4808 23.3644 34.9349 21.3288 33.6106 19.4953Z" fill="#F3D2A2"/>
<path d="M20.0412 39.559C16.9609 39.559 15.3492 38.0365 15.176 37.862C14.6628 37.3488 14.6628 36.5193 15.176 36.0062C15.6839 35.4982 16.5055 35.4943 17.0186 35.993C17.0856 36.0547 18.0765 36.9341 20.0412 36.9341C22.0348 36.9341 23.0244 36.0285 23.0664 35.9904C23.5887 35.5009 24.4143 35.5153 24.9143 36.0285C25.4117 36.5443 25.413 37.3554 24.9064 37.862C24.7332 38.0365 23.1215 39.559 20.0412 39.559ZM21.3536 32.9967H18.7287C18.0043 32.9967 17.4163 32.4101 17.4163 31.6843C17.4163 30.9585 18.0043 30.3718 18.7287 30.3718H21.3536C22.0794 30.3718 22.6661 30.9585 22.6661 31.6843C22.6661 32.4101 22.0794 32.9967 21.3536 32.9967Z" fill="#C1694F"/>
<path d="M13.479 27.7469C12.7545 27.7469 12.1665 27.1602 12.1665 26.4344V23.8095C12.1665 23.085 12.7545 22.4971 13.479 22.4971C14.2034 22.4971 14.7914 23.085 14.7914 23.8095V26.4344C14.7914 27.1602 14.2034 27.7469 13.479 27.7469ZM26.6034 27.7469C25.8776 27.7469 25.291 27.1602 25.291 26.4344V23.8095C25.291 23.085 25.8776 22.4971 26.6034 22.4971C27.3292 22.4971 27.9159 23.085 27.9159 23.8095V26.4344C27.9159 27.1602 27.3292 27.7469 26.6034 27.7469Z" fill="#662113"/>
</svg>
