<svg width="80" height="80" viewBox="0 0 80 80" fill="none" xmlns="http://www.w3.org/2000/svg">
<rect width="80" height="80" rx="40" fill="#F4F5F7"/>
<path d="M52.6953 12.8203H28.3047C26.4925 12.8203 25.0234 14.2894 25.0234 16.1016V63.8984C25.0234 65.7106 26.4925 67.1797 28.3047 67.1797H52.6953C54.5075 67.1797 55.9766 65.7106 55.9766 63.8984V16.1016C55.9766 14.2894 54.5075 12.8203 52.6953 12.8203Z" fill="#52BBE9"/>
<path d="M52.6953 68H28.3047C27.2173 67.9988 26.1747 67.5663 25.4058 66.7973C24.6369 66.0284 24.2043 64.9859 24.2031 63.8984V16.1016C24.2043 15.0141 24.6369 13.9716 25.4058 13.2027C26.1747 12.4337 27.2173 12.0012 28.3047 12H52.6953C53.7827 12.0012 54.8253 12.4337 55.5942 13.2027C56.3631 13.9716 56.7957 15.0141 56.7969 16.1016V63.8984C56.7957 64.9859 56.3631 66.0284 55.5942 66.7973C54.8253 67.5663 53.7827 67.9988 52.6953 68ZM28.3047 13.6406C27.6522 13.6414 27.0267 13.9009 26.5654 14.3622C26.104 14.8236 25.8445 15.4491 25.8438 16.1016V63.8984C25.8445 64.5509 26.104 65.1764 26.5654 65.6378C27.0267 66.0991 27.6522 66.3586 28.3047 66.3594H52.6953C53.3478 66.3586 53.9733 66.0991 54.4346 65.6378C54.896 65.1764 55.1555 64.5509 55.1562 63.8984V16.1016C55.1555 15.4491 54.896 14.8236 54.4346 14.3622C53.9733 13.9009 53.3478 13.6414 52.6953 13.6406H28.3047Z" fill="#57565C"/>
<path d="M46.8984 64.7188H33.9922C33.7746 64.7188 33.566 64.6323 33.4121 64.4785C33.2583 64.3246 33.1719 64.116 33.1719 63.8984C33.1719 63.6809 33.2583 63.4722 33.4121 63.3184C33.566 63.1645 33.7746 63.0781 33.9922 63.0781H46.8984C47.116 63.0781 47.3246 63.1645 47.4785 63.3184C47.6323 63.4722 47.7188 63.6809 47.7188 63.8984C47.7188 64.116 47.6323 64.3246 47.4785 64.4785C47.3246 64.6323 47.116 64.7188 46.8984 64.7188Z" fill="white"/>
<path d="M44.736 16.1016H36.264C35.9593 16.1016 35.6606 16.0167 35.4014 15.8565C35.1423 15.6964 34.9328 15.4672 34.7965 15.1946L33.6094 12.8203H47.3906L46.2035 15.1946C46.0672 15.4672 45.8577 15.6964 45.5986 15.8565C45.3394 16.0167 45.0407 16.1016 44.736 16.1016Z" fill="#57565C"/>
<path d="M38.0938 52.5266H30.9844C30.5615 52.5266 30.2188 52.8694 30.2188 53.2922V55.0422C30.2188 55.4651 30.5615 55.8079 30.9844 55.8079H38.0938C38.5166 55.8079 38.8594 55.4651 38.8594 55.0422V53.2922C38.8594 52.8694 38.5166 52.5266 38.0938 52.5266Z" fill="#E4222E"/>
<path d="M38.0938 52.5266H34.8125C35.0156 52.5266 35.2103 52.6073 35.3539 52.7509C35.4975 52.8944 35.5781 53.0892 35.5781 53.2922V55.0422C35.5781 55.2453 35.4975 55.44 35.3539 55.5836C35.2103 55.7272 35.0156 55.8079 34.8125 55.8079H38.0938C38.2968 55.8079 38.4915 55.7272 38.6351 55.5836C38.7787 55.44 38.8594 55.2453 38.8594 55.0422V53.2922C38.8594 53.0892 38.7787 52.8944 38.6351 52.7509C38.4915 52.6073 38.2968 52.5266 38.0938 52.5266Z" fill="#C0232C"/>
<path d="M50.0156 52.5266H42.9062C42.4834 52.5266 42.1406 52.8694 42.1406 53.2922V55.0422C42.1406 55.4651 42.4834 55.8079 42.9062 55.8079H50.0156C50.4385 55.8079 50.7812 55.4651 50.7812 55.0422V53.2922C50.7812 52.8694 50.4385 52.5266 50.0156 52.5266Z" fill="#24B378"/>
<path d="M50.0156 52.5266H46.7344C46.9374 52.5266 47.1322 52.6073 47.2758 52.7509C47.4193 52.8944 47.5 53.0892 47.5 53.2922V55.0422C47.5 55.2453 47.4193 55.44 47.2758 55.5836C47.1322 55.7272 46.9374 55.8079 46.7344 55.8079H50.0156C50.2187 55.8079 50.4134 55.7272 50.557 55.5836C50.7006 55.44 50.7812 55.2453 50.7812 55.0422V53.2922C50.7812 53.0892 50.7006 52.8944 50.557 52.7509C50.4134 52.6073 50.2187 52.5266 50.0156 52.5266Z" fill="#19AC66"/>
<path d="M49.4141 21.4944H31.5859C30.6798 21.4944 29.9453 22.2289 29.9453 23.135V26.4163C29.9453 27.3224 30.6798 28.0569 31.5859 28.0569H49.4141C50.3202 28.0569 51.0547 27.3224 51.0547 26.4163V23.135C51.0547 22.2289 50.3202 21.4944 49.4141 21.4944Z" fill="#FED947"/>
<path d="M49.4141 21.4944H44.4922C44.9273 21.4944 45.3446 21.6673 45.6523 21.975C45.96 22.2827 46.1328 22.6999 46.1328 23.1351V26.4163C46.1328 26.6318 46.0904 26.8451 46.0079 27.0442C45.9255 27.2432 45.8046 27.4241 45.6523 27.5764C45.4999 27.7288 45.3191 27.8496 45.12 27.9321C44.921 28.0145 44.7076 28.0569 44.4922 28.0569H49.4141C49.6295 28.0569 49.8429 28.0145 50.0419 27.9321C50.241 27.8496 50.4218 27.7288 50.5742 27.5764C50.7265 27.4241 50.8474 27.2432 50.9298 27.0442C51.0123 26.8451 51.0547 26.6318 51.0547 26.4163V23.1351C51.0547 22.6999 50.8818 22.2827 50.5742 21.975C50.2665 21.6673 49.8492 21.4944 49.4141 21.4944Z" fill="#FED030"/>
<path d="M51.0547 33.7992H33.2266C33.009 33.7992 32.8004 33.7128 32.6465 33.5589C32.4927 33.4051 32.4062 33.1964 32.4062 32.9789C32.4062 32.7613 32.4927 32.5527 32.6465 32.3988C32.8004 32.245 33.009 32.1586 33.2266 32.1586H51.0547C51.2722 32.1586 51.4809 32.245 51.6347 32.3988C51.7886 32.5527 51.875 32.7613 51.875 32.9789C51.875 33.1964 51.7886 33.4051 51.6347 33.5589C51.4809 33.7128 51.2722 33.7992 51.0547 33.7992Z" fill="white"/>
<path d="M29.9453 33.7991C30.3984 33.7991 30.7656 33.4318 30.7656 32.9788C30.7656 32.5257 30.3984 32.1584 29.9453 32.1584C29.4923 32.1584 29.125 32.5257 29.125 32.9788C29.125 33.4318 29.4923 33.7991 29.9453 33.7991Z" fill="#FED947"/>
<path d="M51.0547 40.3617H33.2266C33.009 40.3617 32.8004 40.2753 32.6465 40.1214C32.4927 39.9676 32.4062 39.7589 32.4062 39.5414C32.4062 39.3238 32.4927 39.1152 32.6465 38.9613C32.8004 38.8075 33.009 38.7211 33.2266 38.7211H51.0547C51.2722 38.7211 51.4809 38.8075 51.6347 38.9613C51.7886 39.1152 51.875 39.3238 51.875 39.5414C51.875 39.7589 51.7886 39.9676 51.6347 40.1214C51.4809 40.2753 51.2722 40.3617 51.0547 40.3617Z" fill="white"/>
<path d="M29.9453 40.3616C30.3984 40.3616 30.7656 39.9943 30.7656 39.5413C30.7656 39.0882 30.3984 38.7209 29.9453 38.7209C29.4923 38.7209 29.125 39.0882 29.125 39.5413C29.125 39.9943 29.4923 40.3616 29.9453 40.3616Z" fill="#FED947"/>
<path d="M51.0547 46.9242H33.2266C33.009 46.9242 32.8004 46.8378 32.6465 46.6839C32.4927 46.5301 32.4062 46.3214 32.4062 46.1039C32.4062 45.8863 32.4927 45.6777 32.6465 45.5238C32.8004 45.37 33.009 45.2836 33.2266 45.2836H51.0547C51.2722 45.2836 51.4809 45.37 51.6347 45.5238C51.7886 45.6777 51.875 45.8863 51.875 46.1039C51.875 46.3214 51.7886 46.5301 51.6347 46.6839C51.4809 46.8378 51.2722 46.9242 51.0547 46.9242Z" fill="white"/>
<path d="M29.9453 46.9241C30.3984 46.9241 30.7656 46.5568 30.7656 46.1038C30.7656 45.6507 30.3984 45.2834 29.9453 45.2834C29.4923 45.2834 29.125 45.6507 29.125 46.1038C29.125 46.5568 29.4923 46.9241 29.9453 46.9241Z" fill="#FED947"/>
<path d="M66.75 25.125V32.125C66.75 33.5174 66.1969 34.8527 65.2123 35.8373C64.2277 36.8219 62.8924 37.375 61.5 37.375H51V36.0625C51 35.4823 50.7695 34.9259 50.3593 34.5157C49.9491 34.1055 49.3927 33.875 48.8125 33.875C48.2323 33.875 47.6759 34.1055 47.2657 34.5157C46.8555 34.9259 46.625 35.4823 46.625 36.0625V37.375H19.5C18.1076 37.375 16.7723 36.8219 15.7877 35.8373C14.8031 34.8527 14.25 33.5174 14.25 32.125V25.125C14.25 23.7326 14.8031 22.3973 15.7877 21.4127C16.7723 20.4281 18.1076 19.875 19.5 19.875H61.5C62.8924 19.875 64.2277 20.4281 65.2123 21.4127C66.1969 22.3973 66.75 23.7326 66.75 25.125Z" fill="#D9E2FF"/>
<path d="M40.5 25.3L41.6463 27.3912L44 27.8375L42.3638 29.5787L42.6613 31.95L40.5 30.935L38.3388 31.95L38.6363 29.5787L37 27.8375L39.3538 27.3912L40.5 25.3Z" fill="#EDBF4F"/>
<path d="M30.875 25.3L32.0212 27.3912L34.375 27.8375L32.7387 29.5787L33.0362 31.95L30.875 30.935L28.7138 31.95L29.0113 29.5787L27.375 27.8375L29.7288 27.3912L30.875 25.3Z" fill="#EDBF4F"/>
<path d="M21.25 25.3L22.3963 27.3912L24.75 27.8375L23.1137 29.5787L23.4113 31.95L21.25 30.935L19.0888 31.95L19.3862 29.5787L17.75 27.8375L20.1037 27.3912L21.25 25.3Z" fill="#EDBF4F"/>
<path d="M50.125 25.3L51.2713 27.3912L53.625 27.8375L51.9888 29.5787L52.2863 31.95L50.125 30.935L47.9637 31.95L48.2612 29.5787L46.625 27.8375L48.9787 27.3912L50.125 25.3Z" fill="#EDBF4F"/>
<path d="M59.75 25.3L60.8963 27.3912L63.25 27.8375L61.6138 29.5787L61.9113 31.95L59.75 30.935L57.5887 31.95L57.8862 29.5787L56.25 27.8375L58.6037 27.3912L59.75 25.3Z" fill="#EDBF4F"/>
<path d="M64.125 45.6875V49.625C64.125 52.4098 63.0188 55.0805 61.0496 57.0496C59.0805 59.0188 56.4098 60.125 53.625 60.125H52.75C49.9652 60.125 47.2945 59.0188 45.3254 57.0496C43.3562 55.0805 42.25 52.4098 42.25 49.625V47C42.25 45.8397 42.7109 44.7269 43.5314 43.9064C44.3519 43.0859 45.4647 42.625 46.625 42.625V36.0625C46.625 35.4823 46.8555 34.9259 47.2657 34.5157C47.6759 34.1055 48.2323 33.875 48.8125 33.875C49.3927 33.875 49.9491 34.1055 50.3593 34.5157C50.7695 34.9259 51 35.4823 51 36.0625V43.9375C51 43.3573 51.2305 42.8009 51.6407 42.3907C52.0509 41.9805 52.6073 41.75 53.1875 41.75C53.7677 41.75 54.3241 41.9805 54.7343 42.3907C55.1445 42.8009 55.375 43.3573 55.375 43.9375V44.8125C55.375 44.2323 55.6055 43.6759 56.0157 43.2657C56.4259 42.8555 56.9823 42.625 57.5625 42.625C58.1427 42.625 58.6991 42.8555 59.1093 43.2657C59.5195 43.6759 59.75 44.2323 59.75 44.8125V45.6875C59.75 45.1073 59.9805 44.5509 60.3907 44.1407C60.8009 43.7305 61.3573 43.5 61.9375 43.5C62.5177 43.5 63.0741 43.7305 63.4843 44.1407C63.8945 44.5509 64.125 45.1073 64.125 45.6875Z" fill="#6773BA"/>
<path d="M42.6613 32.825C42.5345 32.8257 42.4091 32.7988 42.2938 32.7463L40.5438 31.8713L38.75 32.7463C38.6094 32.8102 38.4544 32.8358 38.3007 32.8204C38.1471 32.8051 38.0002 32.7493 37.875 32.6588C37.7496 32.5665 37.651 32.4425 37.5894 32.2995C37.5279 32.1564 37.5057 31.9995 37.525 31.845L37.77 29.8763L36.4138 28.4413C36.3351 28.3574 36.2737 28.2588 36.233 28.1512C36.1924 28.0436 36.1734 27.929 36.177 27.814C36.1807 27.6991 36.207 27.586 36.2543 27.4811C36.3017 27.3763 36.3693 27.2819 36.4532 27.2031C36.537 27.1244 36.6356 27.063 36.7432 27.0224C36.8508 26.9818 36.9654 26.9628 37.0804 26.9664C37.1953 26.9701 37.3085 26.9963 37.4133 27.0437C37.5181 27.0911 37.6126 27.1586 37.6913 27.2425L39.3275 28.9925C39.4168 29.0859 39.4843 29.1979 39.5251 29.3204C39.5659 29.443 39.5792 29.573 39.5638 29.7013L39.4588 30.4888L40.1763 30.1475C40.2938 30.0915 40.4224 30.0625 40.5525 30.0625C40.6827 30.0625 40.8113 30.0915 40.9288 30.1475L41.6463 30.4888L41.5413 29.7013C41.5259 29.573 41.5391 29.443 41.58 29.3204C41.6208 29.1979 41.6883 29.0859 41.7775 28.9925L42.32 28.4063L41.5413 28.2663C41.4138 28.2413 41.2935 28.1884 41.1891 28.1112C41.0847 28.034 40.9987 27.9345 40.9375 27.82L40.5 27.12L40.115 27.8113C39.999 28.0143 39.8071 28.163 39.5814 28.2245C39.3558 28.286 39.115 28.2554 38.9119 28.1394C38.7089 28.0234 38.5602 27.8314 38.4987 27.6058C38.4371 27.3802 38.4677 27.1393 38.5838 26.9363L39.73 24.845C39.805 24.7061 39.9162 24.5901 40.0517 24.5092C40.1873 24.4283 40.3422 24.3856 40.5 24.3856C40.6579 24.3856 40.8128 24.4283 40.9483 24.5092C41.0839 24.5901 41.1951 24.7061 41.27 24.845L42.215 26.595L44.1663 26.9625C44.3206 26.9918 44.4643 27.062 44.5821 27.1659C44.6999 27.2698 44.7876 27.4035 44.8359 27.553C44.8842 27.7025 44.8915 27.8622 44.8568 28.0154C44.8221 28.1686 44.7468 28.3097 44.6388 28.4238L43.2825 29.8588L43.5275 31.8275C43.5425 31.9509 43.5309 32.0761 43.4937 32.1947C43.4564 32.3133 43.3943 32.4226 43.3116 32.5153C43.2288 32.608 43.1272 32.682 43.0135 32.7324C42.8999 32.7828 42.7768 32.8084 42.6525 32.8075L42.6613 32.825ZM33.0363 32.825C32.9095 32.8257 32.7841 32.7988 32.6688 32.7463L30.875 31.8713L29.0813 32.7463C28.9407 32.8102 28.7857 32.8358 28.632 32.8204C28.4783 32.8051 28.3314 32.7493 28.2063 32.6588C28.0808 32.5665 27.9822 32.4425 27.9207 32.2995C27.8592 32.1564 27.8369 31.9995 27.8563 31.845L28.1013 29.8763L26.745 28.4413C26.637 28.3272 26.5617 28.1861 26.5271 28.0329C26.4924 27.8797 26.4996 27.72 26.5479 27.5705C26.5962 27.421 26.6839 27.2873 26.8017 27.1834C26.9196 27.0795 27.0632 27.0093 27.2175 26.98L29.125 26.6125L30.07 24.8625C30.145 24.7236 30.2562 24.6076 30.3917 24.5267C30.5273 24.4458 30.6822 24.4031 30.84 24.4031C30.9979 24.4031 31.1528 24.4458 31.2883 24.5267C31.4239 24.6076 31.5351 24.7236 31.61 24.8625L32.555 26.6125L34.5063 26.98C34.6606 27.0093 34.8043 27.0795 34.9221 27.1834C35.0399 27.2873 35.1276 27.421 35.1759 27.5705C35.2242 27.72 35.2314 27.8797 35.1968 28.0329C35.1621 28.1861 35.0868 28.3272 34.9788 28.4413L33.6225 29.8763L33.8675 31.845C33.8825 31.9684 33.8709 32.0936 33.8337 32.2122C33.7964 32.3308 33.7343 32.4401 33.6516 32.5328C33.5688 32.6255 33.4672 32.6995 33.3535 32.7499C33.2399 32.8003 33.1168 32.8259 32.9925 32.825H33.0363ZM30.875 30.06C31.0045 30.06 31.1327 30.0868 31.2513 30.1388L31.9688 30.48L31.8638 29.6925C31.8484 29.5643 31.8616 29.4342 31.9025 29.3117C31.9433 29.1891 32.0108 29.0771 32.1 28.9838L32.6425 28.3975L31.8638 28.2575C31.7363 28.2326 31.616 28.1796 31.5116 28.1024C31.4072 28.0253 31.3212 27.9258 31.26 27.8113L30.875 27.12L30.49 27.8113C30.4288 27.9258 30.3429 28.0253 30.2385 28.1024C30.134 28.1796 30.0137 28.2326 29.8863 28.2575L29.1075 28.3975L29.65 28.9838C29.7393 29.0771 29.8068 29.1891 29.8476 29.3117C29.8884 29.4342 29.9017 29.5643 29.8863 29.6925L29.7813 30.48L30.4988 30.1388C30.6174 30.0868 30.7455 30.06 30.875 30.06ZM23.4113 32.825C23.2845 32.8257 23.1591 32.7988 23.0438 32.7463L21.25 31.8713L19.5 32.7463C19.3594 32.8102 19.2044 32.8358 19.0507 32.8204C18.8971 32.8051 18.7502 32.7493 18.625 32.6588C18.4996 32.5665 18.401 32.4425 18.3394 32.2995C18.2779 32.1564 18.2557 31.9995 18.275 31.845L18.52 29.8763L17.1113 28.4413C17.0033 28.3272 16.928 28.1861 16.8933 28.0329C16.8586 27.8797 16.8658 27.72 16.9141 27.5705C16.9625 27.421 17.0502 27.2873 17.168 27.1834C17.2858 27.0795 17.4294 27.0093 17.5838 26.98L19.5 26.6125L20.445 24.8625C20.52 24.7236 20.6312 24.6076 20.7667 24.5267C20.9023 24.4458 21.0572 24.4031 21.215 24.4031C21.3729 24.4031 21.5278 24.4458 21.6633 24.5267C21.7989 24.6076 21.9101 24.7236 21.985 24.8625L22.93 26.6125L24.8813 26.98C25.0356 27.0093 25.1793 27.0795 25.2971 27.1834C25.4149 27.2873 25.5026 27.421 25.5509 27.5705C25.5993 27.72 25.6065 27.8797 25.5718 28.0329C25.5371 28.1861 25.4618 28.3272 25.3538 28.4413L23.9975 29.8763L24.2425 31.845C24.2575 31.9684 24.2459 32.0936 24.2087 32.2122C24.1714 32.3308 24.1093 32.4401 24.0266 32.5328C23.9438 32.6255 23.8422 32.6995 23.7285 32.7499C23.6149 32.8003 23.4918 32.8259 23.3675 32.825H23.4113ZM21.25 30.06C21.3795 30.06 21.5077 30.0868 21.6263 30.1388L22.3438 30.48L22.2388 29.6925C22.2234 29.5643 22.2366 29.4342 22.2775 29.3117C22.3183 29.1891 22.3858 29.0771 22.475 28.9838L23.0175 28.3975L22.2388 28.2575C22.1113 28.2326 21.991 28.1796 21.8866 28.1024C21.7822 28.0253 21.6962 27.9258 21.635 27.8113L21.25 27.12L20.865 27.8113C20.8038 27.9258 20.7179 28.0253 20.6135 28.1024C20.509 28.1796 20.3887 28.2326 20.2613 28.2575L19.5 28.3975L20.0425 28.9838C20.1318 29.0771 20.1993 29.1891 20.2401 29.3117C20.2809 29.4342 20.2942 29.5643 20.2788 29.6925L20.1738 30.48L20.8913 30.1388C21.0045 30.0891 21.1264 30.0623 21.25 30.06ZM52.2863 32.825C52.1595 32.8257 52.0341 32.7988 51.9188 32.7463L50.1688 31.8713L48.4188 32.7463C48.2782 32.8102 48.1232 32.8358 47.9695 32.8204C47.8158 32.8051 47.6689 32.7493 47.5438 32.6588C47.4183 32.5665 47.3197 32.4425 47.2582 32.2995C47.1967 32.1564 47.1744 31.9995 47.1938 31.845L47.4388 29.8763L46.0825 28.4413C45.9745 28.3272 45.8992 28.1861 45.8646 28.0329C45.8299 27.8797 45.8371 27.72 45.8854 27.5705C45.9337 27.421 46.0214 27.2873 46.1392 27.1834C46.2571 27.0795 46.4007 27.0093 46.555 26.98L48.375 26.6125L49.32 24.8625C49.395 24.7236 49.5062 24.6076 49.6417 24.5267C49.7773 24.4458 49.9322 24.4031 50.09 24.4031C50.2479 24.4031 50.4028 24.4458 50.5383 24.5267C50.6739 24.6076 50.7851 24.7236 50.86 24.8625L51.805 26.6125L53.7563 26.98C53.9106 27.0093 54.0543 27.0795 54.1721 27.1834C54.2899 27.2873 54.3776 27.421 54.4259 27.5705C54.4743 27.72 54.4814 27.8797 54.4468 28.0329C54.4121 28.1861 54.3368 28.3272 54.2288 28.4413L52.8725 29.8763L53.1175 31.845C53.1325 31.9684 53.1209 32.0936 53.0837 32.2122C53.0464 32.3308 52.9843 32.4401 52.9016 32.5328C52.8188 32.6255 52.7172 32.6995 52.6035 32.7499C52.4899 32.8003 52.3668 32.8259 52.2425 32.825H52.2863ZM50.125 30.06C50.2545 30.06 50.3827 30.0868 50.5013 30.1388L51.2188 30.48L51.1138 29.6925C51.0984 29.5643 51.1116 29.4342 51.1525 29.3117C51.1933 29.1891 51.2608 29.0771 51.35 28.9838L51.8925 28.3975L51.1138 28.2575C50.9863 28.2326 50.866 28.1796 50.7616 28.1024C50.6572 28.0253 50.5712 27.9258 50.51 27.8113L50.125 27.12L49.74 27.8113C49.6788 27.9258 49.5929 28.0253 49.4884 28.1024C49.384 28.1796 49.2637 28.2326 49.1363 28.2575L48.3575 28.3975L48.9 28.9838C48.9893 29.0771 49.0568 29.1891 49.0976 29.3117C49.1385 29.4342 49.1517 29.5643 49.1363 29.6925L49.0313 30.48L49.7488 30.1388C49.8674 30.0868 49.9955 30.06 50.125 30.06ZM61.9113 32.825C61.7845 32.8257 61.6591 32.7988 61.5438 32.7463L59.7938 31.8713L58.0438 32.7463C57.9032 32.8102 57.7482 32.8358 57.5945 32.8204C57.4408 32.8051 57.2939 32.7493 57.1688 32.6588C57.0433 32.5665 56.9447 32.4425 56.8832 32.2995C56.8217 32.1564 56.7994 31.9995 56.8188 31.845L57.0638 29.8763L55.7075 28.4413C55.5995 28.3272 55.5242 28.1861 55.4896 28.0329C55.4549 27.8797 55.4621 27.72 55.5104 27.5705C55.5587 27.421 55.6464 27.2873 55.7642 27.1834C55.8821 27.0795 56.0257 27.0093 56.18 26.98L58 26.6125L58.945 24.8625C59.02 24.7236 59.1312 24.6076 59.2667 24.5267C59.4023 24.4458 59.5572 24.4031 59.715 24.4031C59.8729 24.4031 60.0278 24.4458 60.1633 24.5267C60.2989 24.6076 60.4101 24.7236 60.485 24.8625L61.43 26.6125L63.3813 26.98C63.6133 27.0241 63.8184 27.1586 63.9513 27.3539C64.0842 27.5491 64.1341 27.7892 64.09 28.0213C64.0459 28.2533 63.9115 28.4584 63.7162 28.5913C63.5209 28.7242 63.2808 28.7741 63.0488 28.73L60.7038 28.2925C60.5763 28.2676 60.456 28.2146 60.3516 28.1374C60.2472 28.0603 60.1613 27.9608 60.1 27.8463L59.75 27.12L59.365 27.8113C59.3038 27.9258 59.2179 28.0253 59.1134 28.1024C59.009 28.1796 58.8887 28.2326 58.7613 28.2575L57.9825 28.3975L58.525 28.9838C58.6143 29.0771 58.6818 29.1891 58.7226 29.3117C58.7635 29.4342 58.7767 29.5643 58.7613 29.6925L58.6563 30.48L59.3738 30.1388C59.4913 30.0828 59.6199 30.0537 59.75 30.0537C59.8802 30.0537 60.0088 30.0828 60.1263 30.1388L60.8438 30.48L60.7388 29.6925C60.7244 29.5776 60.7328 29.461 60.7635 29.3493C60.7942 29.2377 60.8466 29.1332 60.9177 29.0418C60.9888 28.9504 61.0772 28.8738 61.1779 28.8166C61.2785 28.7594 61.3895 28.7225 61.5044 28.7081C61.6193 28.6938 61.7359 28.7022 61.8476 28.7329C61.9592 28.7636 62.0638 28.816 62.1552 28.8871C62.2466 28.9582 62.3231 29.0466 62.3803 29.1472C62.4376 29.2479 62.4744 29.3589 62.4888 29.4738L62.7863 31.845C62.8012 31.9684 62.7897 32.0936 62.7524 32.2122C62.7152 32.3308 62.6531 32.4401 62.5703 32.5328C62.4875 32.6255 62.3859 32.6995 62.2723 32.7499C62.1586 32.8003 62.0356 32.8259 61.9113 32.825ZM30.875 38.25H30C29.768 38.25 29.5454 38.1578 29.3813 37.9937C29.2172 37.8296 29.125 37.6071 29.125 37.375C29.125 37.143 29.2172 36.9204 29.3813 36.7563C29.5454 36.5922 29.768 36.5 30 36.5H30.875C31.1071 36.5 31.3297 36.5922 31.4938 36.7563C31.6578 36.9204 31.75 37.143 31.75 37.375C31.75 37.6071 31.6578 37.8296 31.4938 37.9937C31.3297 38.1578 31.1071 38.25 30.875 38.25Z" fill="#383E6D"/>
<path d="M61.5 38.25H51C50.7679 38.25 50.5454 38.1578 50.3813 37.9937C50.2172 37.8296 50.125 37.6071 50.125 37.375V36.0625C50.125 35.7144 49.9867 35.3806 49.7406 35.1344C49.4944 34.8883 49.1606 34.75 48.8125 34.75C48.4644 34.75 48.1306 34.8883 47.8844 35.1344C47.6383 35.3806 47.5 35.7144 47.5 36.0625V37.375C47.5 37.6071 47.4078 37.8296 47.2437 37.9937C47.0796 38.1578 46.8571 38.25 46.625 38.25H34.375C34.1429 38.25 33.9204 38.1578 33.7563 37.9937C33.5922 37.8296 33.5 37.6071 33.5 37.375C33.5 37.1429 33.5922 36.9204 33.7563 36.7563C33.9204 36.5922 34.1429 36.5 34.375 36.5H45.75V36.0625C45.75 35.2503 46.0727 34.4713 46.647 33.897C47.2213 33.3227 48.0003 33 48.8125 33C49.6247 33 50.4037 33.3227 50.978 33.897C51.5523 34.4713 51.875 35.2503 51.875 36.0625V36.5H61.5C62.6603 36.5 63.7731 36.0391 64.5936 35.2186C65.4141 34.3981 65.875 33.2853 65.875 32.125V25.125C65.875 23.9647 65.4141 22.8519 64.5936 22.0314C63.7731 21.2109 62.6603 20.75 61.5 20.75H19.5C18.3397 20.75 17.2269 21.2109 16.4064 22.0314C15.5859 22.8519 15.125 23.9647 15.125 25.125V32.125C15.125 33.2853 15.5859 34.3981 16.4064 35.2186C17.2269 36.0391 18.3397 36.5 19.5 36.5H26.5C26.7321 36.5 26.9546 36.5922 27.1187 36.7563C27.2828 36.9204 27.375 37.1429 27.375 37.375C27.375 37.6071 27.2828 37.8296 27.1187 37.9937C26.9546 38.1578 26.7321 38.25 26.5 38.25H19.5C17.8755 38.25 16.3176 37.6047 15.169 36.456C14.0203 35.3074 13.375 33.7495 13.375 32.125V25.125C13.375 23.5005 14.0203 21.9426 15.169 20.794C16.3176 19.6453 17.8755 19 19.5 19H61.5C63.1245 19 64.6824 19.6453 65.831 20.794C66.9797 21.9426 67.625 23.5005 67.625 25.125V32.125C67.625 33.7495 66.9797 35.3074 65.831 36.456C64.6824 37.6047 63.1245 38.25 61.5 38.25Z" fill="#383E6D"/>
<path d="M53.625 61H52.75C49.7332 61 46.8399 59.8016 44.7067 57.6683C42.5734 55.5351 41.375 52.6418 41.375 49.625V47C41.3742 45.7587 41.8132 44.5573 42.6141 43.609C43.4151 42.6607 44.5261 42.0269 45.75 41.82V36.0625C45.75 35.2503 46.0727 34.4713 46.647 33.897C47.2213 33.3227 48.0003 33 48.8125 33C49.6247 33 50.4037 33.3227 50.978 33.897C51.5523 34.4713 51.875 35.2503 51.875 36.0625V41.1725C52.2844 40.9755 52.7332 40.8738 53.1875 40.875C53.7121 40.8707 54.2289 41.0012 54.6886 41.254C55.1482 41.5068 55.5352 41.8734 55.8125 42.3188C56.3227 41.9522 56.9343 41.7534 57.5625 41.75C58.0871 41.7457 58.6039 41.8762 59.0636 42.129C59.5232 42.3818 59.9102 42.7484 60.1875 43.1938C60.6977 42.8272 61.3093 42.6284 61.9375 42.625C62.7497 42.625 63.5287 42.9477 64.103 43.522C64.6773 44.0963 65 44.8753 65 45.6875V49.625C65.0045 51.0479 64.7372 52.4586 64.2125 53.7812C64.1255 53.9971 63.9563 54.1695 63.7421 54.2606C63.528 54.3516 63.2864 54.3539 63.0706 54.2669C62.8548 54.1799 62.6824 54.0107 62.5913 53.7965C62.5003 53.5824 62.498 53.3408 62.585 53.125C63.0243 52.0104 63.2499 50.8231 63.25 49.625V45.6875C63.25 45.3394 63.1117 45.0056 62.8656 44.7594C62.6194 44.5133 62.2856 44.375 61.9375 44.375C61.5894 44.375 61.2556 44.5133 61.0094 44.7594C60.7633 45.0056 60.625 45.3394 60.625 45.6875C60.625 45.9196 60.5328 46.1421 60.3687 46.3062C60.2046 46.4703 59.9821 46.5625 59.75 46.5625C59.5179 46.5625 59.2954 46.4703 59.1313 46.3062C58.9672 46.1421 58.875 45.9196 58.875 45.6875V44.8125C58.875 44.4644 58.7367 44.1306 58.4906 43.8844C58.2444 43.6383 57.9106 43.5 57.5625 43.5C57.2144 43.5 56.8806 43.6383 56.6344 43.8844C56.3883 44.1306 56.25 44.4644 56.25 44.8125C56.25 45.0446 56.1578 45.2671 55.9937 45.4312C55.8296 45.5953 55.6071 45.6875 55.375 45.6875C55.1429 45.6875 54.9204 45.5953 54.7563 45.4312C54.5922 45.2671 54.5 45.0446 54.5 44.8125V43.9375C54.5 43.5894 54.3617 43.2556 54.1156 43.0094C53.8694 42.7633 53.5356 42.625 53.1875 42.625C52.8394 42.625 52.5056 42.7633 52.2594 43.0094C52.0133 43.2556 51.875 43.5894 51.875 43.9375C51.875 44.1696 51.7828 44.3921 51.6187 44.5562C51.4546 44.7203 51.2321 44.8125 51 44.8125C50.7679 44.8125 50.5454 44.7203 50.3813 44.5562C50.2172 44.3921 50.125 44.1696 50.125 43.9375V36.0625C50.125 35.7144 49.9867 35.3806 49.7406 35.1344C49.4944 34.8883 49.1606 34.75 48.8125 34.75C48.4644 34.75 48.1306 34.8883 47.8844 35.1344C47.6383 35.3806 47.5 35.7144 47.5 36.0625V42.625C47.5 42.8571 47.4078 43.0796 47.2437 43.2437C47.0796 43.4078 46.8571 43.5 46.625 43.5C45.6967 43.5 44.8065 43.8687 44.1501 44.5251C43.4938 45.1815 43.125 46.0717 43.125 47V49.625C43.125 52.1777 44.1391 54.6259 45.9441 56.4309C47.7491 58.2359 50.1973 59.25 52.75 59.25H53.625C55.0167 59.2514 56.3922 58.9509 57.6566 58.3693C58.9209 57.7877 60.0441 56.9389 60.9488 55.8813C61.0234 55.7939 61.1146 55.7222 61.217 55.6701C61.3195 55.618 61.4311 55.5865 61.5457 55.5776C61.6603 55.5687 61.7755 55.5824 61.8847 55.618C61.994 55.6536 62.0952 55.7103 62.1825 55.785C62.2698 55.8597 62.3416 55.9508 62.3937 56.0533C62.4458 56.1557 62.4772 56.2674 62.4861 56.3819C62.4951 56.4965 62.4814 56.6117 62.4458 56.721C62.4102 56.8302 62.3534 56.9314 62.2788 57.0188C61.2098 58.2685 59.8827 59.2715 58.3887 59.9588C56.8947 60.6462 55.2695 61.0014 53.625 61Z" fill="#383E6D"/>
<path d="M46.625 49.625C46.3929 49.625 46.1704 49.5328 46.0063 49.3687C45.8422 49.2046 45.75 48.9821 45.75 48.75V42.625C45.75 42.3929 45.8422 42.1704 46.0063 42.0063C46.1704 41.8422 46.3929 41.75 46.625 41.75C46.8571 41.75 47.0796 41.8422 47.2437 42.0063C47.4078 42.1704 47.5 42.3929 47.5 42.625V48.75C47.5 48.9821 47.4078 49.2046 47.2437 49.3687C47.0796 49.5328 46.8571 49.625 46.625 49.625Z" fill="#383E6D"/>
</svg>
