<svg width="80" height="80" viewBox="0 0 80 80" fill="none" xmlns="http://www.w3.org/2000/svg">
<rect width="80" height="80" rx="40" fill="#F4F5F7"/>
<path d="M47.5 26.0175L44.875 27.75L47.1413 29.325L47.5 29.57V33H53.625V48.47L48.5237 43.5262C47.9225 42.9492 47.1215 42.627 46.2881 42.627C45.4548 42.627 44.6537 42.9492 44.0525 43.5262C43.76 43.806 43.5272 44.1422 43.3682 44.5144C43.2092 44.8866 43.1272 45.2871 43.1272 45.6919C43.1272 46.0966 43.2092 46.4972 43.3682 46.8694C43.5272 47.2416 43.76 47.5777 44.0525 47.8575L51.6475 55.225C50.4686 55.9187 49.6128 57.0514 49.2675 58.375C49.1149 58.9159 49.0383 59.4755 49.04 60.0375C49.04 62.9863 51.0875 65.375 53.625 65.375H27.375C26.4467 65.375 25.5565 65.0062 24.9001 64.3499C24.2437 63.6935 23.875 62.8033 23.875 61.875V45.25H30V41.82L32.625 40L30 38.2675V34.75H23.875V18.125C23.875 17.1967 24.2437 16.3065 24.9001 15.6501C25.5565 14.9937 26.4467 14.625 27.375 14.625H50.125C51.0533 14.625 51.9435 14.9937 52.5999 15.6501C53.2563 16.3065 53.625 17.1967 53.625 18.125V22.5H47.5V26.0175Z" fill="#0C84C1"/>
<path d="M44.0525 43.5263C43.76 43.806 43.5272 44.1422 43.3682 44.5144C43.2092 44.8866 43.1272 45.2871 43.1272 45.6919C43.1272 46.0966 43.2092 46.4972 43.3682 46.8694C43.5272 47.2416 43.76 47.5777 44.0525 47.8575L51.6475 55.225C50.4686 55.9187 49.6128 57.0515 49.2675 58.375C49.1149 58.9159 49.0383 59.4755 49.04 60.0375C49.04 62.9863 51.0875 65.375 53.625 65.375H27.375C26.4467 65.375 25.5565 65.0063 24.9001 64.3499C24.2437 63.6935 23.875 62.8033 23.875 61.875V52.5913L47.1413 29.325L47.5 29.57V33H53.625V48.47L48.5237 43.5263C47.9225 42.9493 47.1215 42.6271 46.2881 42.6271C45.4548 42.6271 44.6537 42.9493 44.0525 43.5263Z" fill="#0071BC"/>
<path d="M53.625 65.375C51.0875 65.375 49.04 62.9863 49.04 60.0375C49.012 59.0767 49.2384 58.1256 49.6963 57.2805C50.1542 56.4353 50.8274 55.7262 51.6475 55.225L44.0525 47.8575C43.76 47.5777 43.5273 47.2416 43.3682 46.8694C43.2092 46.4972 43.1272 46.0966 43.1272 45.6919C43.1272 45.2871 43.2092 44.8866 43.3682 44.5144C43.5273 44.1422 43.76 43.806 44.0525 43.5262C44.6538 42.9492 45.4548 42.627 46.2881 42.627C47.1215 42.627 47.9225 42.9492 48.5238 43.5262L53.625 48.47V35.625L62.7994 47.35C63.6587 48.4621 64.1249 49.8278 64.125 51.2333V65.375" fill="#F2A95A"/>
<path d="M53.625 65.375H27.375C26.4467 65.375 25.5565 65.0063 24.9001 64.3499C24.2437 63.6935 23.875 62.8033 23.875 61.875V58.375H49.2675C49.1149 58.9159 49.0383 59.4755 49.04 60.0375C49.04 62.9863 51.0875 65.375 53.625 65.375Z" fill="#E6E6E6"/>
<path d="M53.625 65.375H30C29.0717 65.375 28.1815 65.0063 27.5251 64.3499C26.8687 63.6935 26.5 62.8033 26.5 61.875V58.375H49.2675C49.1149 58.9159 49.0383 59.4755 49.04 60.0375C49.04 62.9863 51.0875 65.375 53.625 65.375Z" fill="#EFEFEF"/>
<path d="M37.875 61.875H39.625" stroke="#BCBCBC" stroke-width="2" stroke-linejoin="round"/>
<path d="M53.625 18.125V19.875H23.875V18.125C23.875 17.1967 24.2437 16.3065 24.9001 15.6501C25.5565 14.9937 26.4467 14.625 27.375 14.625H50.125C51.0533 14.625 51.9435 14.9937 52.5999 15.6501C53.2563 16.3065 53.625 17.1967 53.625 18.125Z" fill="#E6E6E6"/>
<path d="M53.625 18.125V19.875H26.5V18.125C26.5 17.1967 26.8687 16.3065 27.5251 15.6501C28.1815 14.9937 29.0717 14.625 30 14.625H50.125C51.0533 14.625 51.9435 14.9937 52.5999 15.6501C53.2563 16.3065 53.625 17.1967 53.625 18.125Z" fill="#EFEFEF"/>
<path d="M30 30.375C31.4497 30.375 32.625 29.1997 32.625 27.75C32.625 26.3003 31.4497 25.125 30 25.125C28.5503 25.125 27.375 26.3003 27.375 27.75C27.375 29.1997 28.5503 30.375 30 30.375Z" fill="#035B87"/>
<path d="M30 54.875C31.4497 54.875 32.625 53.6997 32.625 52.25C32.625 50.8003 31.4497 49.625 30 49.625C28.5503 49.625 27.375 50.8003 27.375 52.25C27.375 53.6997 28.5503 54.875 30 54.875Z" fill="#035B87"/>
<path d="M38.75 30.375C40.1997 30.375 41.375 29.1997 41.375 27.75C41.375 26.3003 40.1997 25.125 38.75 25.125C37.3003 25.125 36.125 26.3003 36.125 27.75C36.125 29.1997 37.3003 30.375 38.75 30.375Z" fill="#035B87"/>
<path d="M38.75 54.875C40.1997 54.875 41.375 53.6997 41.375 52.25C41.375 50.8003 40.1997 49.625 38.75 49.625C37.3003 49.625 36.125 50.8003 36.125 52.25C36.125 53.6997 37.3003 54.875 38.75 54.875Z" fill="#035B87"/>
<path d="M38.75 42.625C40.1997 42.625 41.375 41.4497 41.375 40C41.375 38.5503 40.1997 37.375 38.75 37.375C37.3003 37.375 36.125 38.5503 36.125 40C36.125 41.4497 37.3003 42.625 38.75 42.625Z" fill="#035B87"/>
<path d="M65.875 22.5V33H47.5V29.57L44.875 27.75L47.5 26.0175V22.5H65.875Z" fill="#009245"/>
<path d="M50.125 26H53.625" stroke="#024F25" stroke-width="2" stroke-linejoin="round"/>
<path d="M55.375 26H63.25" stroke="#024F25" stroke-width="2" stroke-linejoin="round"/>
<path d="M50.125 29.5H59.75" stroke="#024F25" stroke-width="2" stroke-linejoin="round"/>
<path d="M61.5 29.5H63.25" stroke="#024F25" stroke-width="2" stroke-linejoin="round"/>
<path d="M34.403 64.5H32.667V66.25H34.403V64.5Z" fill="black"/>
<path d="M39.625 61H37.875V62.75H39.625V61Z" fill="black"/>
<path d="M30 24.25C29.3078 24.25 28.6311 24.4553 28.0555 24.8399C27.4799 25.2244 27.0313 25.7711 26.7664 26.4106C26.5015 27.0501 26.4322 27.7539 26.5673 28.4328C26.7023 29.1117 27.0356 29.7354 27.5251 30.2249C28.0146 30.7144 28.6383 31.0477 29.3172 31.1827C29.9961 31.3178 30.6999 31.2485 31.3394 30.9836C31.9789 30.7187 32.5256 30.2701 32.9101 29.6945C33.2947 29.1189 33.5 28.4422 33.5 27.75C33.5 26.8217 33.1313 25.9315 32.4749 25.2751C31.8185 24.6187 30.9283 24.25 30 24.25ZM30 29.5C29.6539 29.5 29.3155 29.3974 29.0278 29.2051C28.74 29.0128 28.5157 28.7395 28.3832 28.4197C28.2508 28.0999 28.2161 27.7481 28.2836 27.4086C28.3512 27.0691 28.5178 26.7573 28.7626 26.5126C29.0073 26.2678 29.3191 26.1011 29.6586 26.0336C29.9981 25.9661 30.3499 26.0008 30.6697 26.1332C30.9895 26.2657 31.2628 26.49 31.4551 26.7778C31.6474 27.0655 31.75 27.4039 31.75 27.75C31.75 28.2141 31.5656 28.6592 31.2374 28.9874C30.9092 29.3156 30.4641 29.5 30 29.5ZM30 48.75C29.3078 48.75 28.6311 48.9553 28.0555 49.3399C27.4799 49.7244 27.0313 50.2711 26.7664 50.9106C26.5015 51.5501 26.4322 52.2539 26.5673 52.9328C26.7023 53.6117 27.0356 54.2354 27.5251 54.7249C28.0146 55.2144 28.6383 55.5477 29.3172 55.6827C29.9961 55.8178 30.6999 55.7485 31.3394 55.4836C31.9789 55.2187 32.5256 54.7701 32.9101 54.1945C33.2947 53.6189 33.5 52.9422 33.5 52.25C33.5 51.3217 33.1313 50.4315 32.4749 49.7751C31.8185 49.1187 30.9283 48.75 30 48.75ZM30 54C29.6539 54 29.3155 53.8974 29.0278 53.7051C28.74 53.5128 28.5157 53.2395 28.3832 52.9197C28.2508 52.5999 28.2161 52.2481 28.2836 51.9086C28.3512 51.5691 28.5178 51.2573 28.7626 51.0126C29.0073 50.7678 29.3191 50.6012 29.6586 50.5336C29.9981 50.4661 30.3499 50.5008 30.6697 50.6332C30.9895 50.7657 31.2628 50.99 31.4551 51.2778C31.6474 51.5655 31.75 51.9039 31.75 52.25C31.75 52.7141 31.5656 53.1593 31.2374 53.4874C30.9092 53.8156 30.4641 54 30 54ZM38.75 24.25C38.0578 24.25 37.3811 24.4553 36.8055 24.8399C36.2299 25.2244 35.7813 25.7711 35.5164 26.4106C35.2515 27.0501 35.1822 27.7539 35.3173 28.4328C35.4523 29.1117 35.7856 29.7354 36.2751 30.2249C36.7646 30.7144 37.3883 31.0477 38.0672 31.1827C38.7461 31.3178 39.4499 31.2485 40.0894 30.9836C40.7289 30.7187 41.2756 30.2701 41.6601 29.6945C42.0447 29.1189 42.25 28.4422 42.25 27.75C42.25 26.8217 41.8813 25.9315 41.2249 25.2751C40.5685 24.6187 39.6783 24.25 38.75 24.25ZM38.75 29.5C38.4039 29.5 38.0655 29.3974 37.7778 29.2051C37.49 29.0128 37.2657 28.7395 37.1332 28.4197C37.0008 28.0999 36.9661 27.7481 37.0336 27.4086C37.1012 27.0691 37.2678 26.7573 37.5126 26.5126C37.7573 26.2678 38.0691 26.1011 38.4086 26.0336C38.7481 25.9661 39.0999 26.0008 39.4197 26.1332C39.7395 26.2657 40.0128 26.49 40.2051 26.7778C40.3974 27.0655 40.5 27.4039 40.5 27.75C40.5 28.2141 40.3156 28.6592 39.9874 28.9874C39.6592 29.3156 39.2141 29.5 38.75 29.5ZM38.75 48.75C38.0578 48.75 37.3811 48.9553 36.8055 49.3399C36.2299 49.7244 35.7813 50.2711 35.5164 50.9106C35.2515 51.5501 35.1822 52.2539 35.3173 52.9328C35.4523 53.6117 35.7856 54.2354 36.2751 54.7249C36.7646 55.2144 37.3883 55.5477 38.0672 55.6827C38.7461 55.8178 39.4499 55.7485 40.0894 55.4836C40.7289 55.2187 41.2756 54.7701 41.6601 54.1945C42.0447 53.6189 42.25 52.9422 42.25 52.25C42.25 51.3217 41.8813 50.4315 41.2249 49.7751C40.5685 49.1187 39.6783 48.75 38.75 48.75ZM38.75 54C38.4039 54 38.0655 53.8974 37.7778 53.7051C37.49 53.5128 37.2657 53.2395 37.1332 52.9197C37.0008 52.5999 36.9661 52.2481 37.0336 51.9086C37.1012 51.5691 37.2678 51.2573 37.5126 51.0126C37.7573 50.7678 38.0691 50.6012 38.4086 50.5336C38.7481 50.4661 39.0999 50.5008 39.4197 50.6332C39.7395 50.7657 40.0128 50.99 40.2051 51.2778C40.3974 51.5655 40.5 51.9039 40.5 52.25C40.5 52.7141 40.3156 53.1593 39.9874 53.4874C39.6592 53.8156 39.2141 54 38.75 54ZM38.75 36.5C38.0578 36.5 37.3811 36.7053 36.8055 37.0899C36.2299 37.4744 35.7813 38.0211 35.5164 38.6606C35.2515 39.3001 35.1822 40.0039 35.3173 40.6828C35.4523 41.3617 35.7856 41.9854 36.2751 42.4749C36.7646 42.9644 37.3883 43.2977 38.0672 43.4327C38.7461 43.5678 39.4499 43.4985 40.0894 43.2336C40.7289 42.9687 41.2756 42.5201 41.6601 41.9445C42.0447 41.3689 42.25 40.6922 42.25 40C42.25 39.0717 41.8813 38.1815 41.2249 37.5251C40.5685 36.8687 39.6783 36.5 38.75 36.5ZM38.75 41.75C38.4039 41.75 38.0655 41.6474 37.7778 41.4551C37.49 41.2628 37.2657 40.9895 37.1332 40.6697C37.0008 40.3499 36.9661 39.9981 37.0336 39.6586C37.1012 39.3191 37.2678 39.0073 37.5126 38.7626C37.7573 38.5178 38.0691 38.3511 38.4086 38.2836C38.7481 38.2161 39.0999 38.2508 39.4197 38.3832C39.7395 38.5157 40.0128 38.74 40.2051 39.0278C40.3974 39.3155 40.5 39.6539 40.5 40C40.5 40.4641 40.3156 40.9093 39.9874 41.2374C39.6592 41.5656 39.2141 41.75 38.75 41.75Z" fill="black"/>
<path d="M65.875 21.625H54.5V18.125C54.4986 16.9651 54.0372 15.8531 53.2171 15.0329C52.3969 14.2128 51.2849 13.7514 50.125 13.75H27.375C26.2151 13.7514 25.1031 14.2128 24.2829 15.0329C23.4628 15.8531 23.0014 16.9651 23 18.125V33.875H15.125C14.8929 33.875 14.6704 33.9672 14.5063 34.1313C14.3422 34.2954 14.25 34.5179 14.25 34.75V45.25C14.25 45.4821 14.3422 45.7046 14.5063 45.8687C14.6704 46.0328 14.8929 46.125 15.125 46.125H23V61.875C23.0014 63.0349 23.4628 64.1469 24.2829 64.9671C25.1031 65.7872 26.2151 66.2486 27.375 66.25H30.875V64.5H27.375C26.6788 64.5 26.0111 64.2234 25.5188 63.7312C25.0266 63.2389 24.75 62.5712 24.75 61.875V59.25H48.2088V59.2719C48.181 59.5261 48.167 59.7817 48.1668 60.0375C48.1668 60.2536 48.1764 60.468 48.1956 60.6789C48.2017 60.7471 48.2149 60.8136 48.2228 60.8819C48.2402 61.0228 48.256 61.1636 48.2805 61.301C48.2954 61.3806 48.3164 61.4559 48.3339 61.5338C48.3601 61.6571 48.3855 61.7822 48.4214 61.9021C48.4441 61.9826 48.4721 62.0596 48.4975 62.1384C48.5334 62.2521 48.5675 62.3676 48.6095 62.4779C48.6393 62.5584 48.676 62.6345 48.7093 62.7132C48.753 62.8174 48.7967 62.9241 48.8449 63.0256C48.8825 63.1044 48.9262 63.1787 48.9674 63.2557C49.019 63.3511 49.068 63.4474 49.124 63.5401C49.1695 63.6162 49.2211 63.6889 49.2701 63.7633C49.3191 63.8376 49.383 63.9383 49.4451 64.0205C49.5072 64.1027 49.5563 64.1605 49.6123 64.2296C49.6683 64.2988 49.7374 64.388 49.8039 64.4624C49.8153 64.4746 49.824 64.4878 49.8354 64.5H36.153V66.25H53.625C53.8571 66.25 54.0796 66.1578 54.2437 65.9937C54.4078 65.8296 54.5 65.6071 54.5 65.375C54.5 65.1429 54.4078 64.9204 54.2437 64.7563C54.0796 64.5922 53.8571 64.5 53.625 64.5C51.5793 64.5 49.915 62.498 49.915 60.0375C49.9155 59.8131 49.9305 59.5889 49.9596 59.3664C49.9728 59.2658 49.9955 59.1686 50.0139 59.0697C50.0366 58.9481 50.0585 58.8265 50.09 58.7057C50.111 58.627 50.1381 58.5509 50.1626 58.4739C50.2219 58.2858 50.2923 58.1014 50.3735 57.9217C50.4033 57.8552 50.4312 57.7879 50.461 57.724C50.5713 57.5045 50.6995 57.2943 50.8442 57.0957C50.8749 57.0529 50.9108 57.0161 50.9431 56.975C51.0654 56.82 51.1984 56.6738 51.3412 56.5375C51.3911 56.4911 51.4401 56.4439 51.4926 56.4001C51.6708 56.2441 51.8639 56.106 52.0693 55.988C52.1182 55.9516 52.1634 55.9102 52.204 55.8646C52.2645 55.8223 52.3192 55.7723 52.3667 55.7159C52.4073 55.6418 52.4368 55.5622 52.4543 55.4796C52.4768 55.4346 52.4947 55.3874 52.5076 55.3387C52.5257 55.2034 52.5118 55.0658 52.4671 54.9368C52.4225 54.8078 52.3482 54.6911 52.2504 54.5959L44.6554 47.2293C44.4466 47.0311 44.2804 46.7925 44.1668 46.5281C44.0532 46.2636 43.9947 45.9788 43.9947 45.691C43.9947 45.4032 44.0532 45.1184 44.1668 44.8539C44.2804 44.5895 44.4466 44.3509 44.6554 44.1527C45.0929 43.7334 45.6755 43.4993 46.2816 43.4993C46.8876 43.4993 47.4702 43.7334 47.9077 44.1527L53.0125 49.1C53.1359 49.2209 53.2923 49.3026 53.462 49.3348C53.6317 49.367 53.8072 49.3482 53.9663 49.2809C54.1253 49.2135 54.2609 49.1005 54.3559 48.9562C54.4509 48.8119 54.501 48.6427 54.5 48.47V38.1625L62.1073 47.8829C62.8461 48.8437 63.2478 50.0212 63.25 51.2332V65.375C63.25 65.6071 63.3422 65.8296 63.5063 65.9937C63.6704 66.1578 63.8929 66.25 64.125 66.25C64.3571 66.25 64.5796 66.1578 64.7437 65.9937C64.9078 65.8296 65 65.6071 65 65.375V51.2332C64.9966 49.6325 64.4655 48.0776 63.4889 46.8092L54.5 35.3231V33.875H65.875C66.1071 33.875 66.3296 33.7828 66.4937 33.6187C66.6578 33.4546 66.75 33.2321 66.75 33V22.5C66.75 22.2679 66.6578 22.0454 66.4937 21.8813C66.3296 21.7172 66.1071 21.625 65.875 21.625ZM24.75 18.125C24.75 17.4288 25.0266 16.7611 25.5188 16.2688C26.0111 15.7766 26.6788 15.5 27.375 15.5H50.125C50.8212 15.5 51.4889 15.7766 51.9812 16.2688C52.4734 16.7611 52.75 17.4288 52.75 18.125V19H24.75V18.125ZM16 35.625H29.125V38.2675C29.1251 38.4121 29.161 38.5545 29.2296 38.6818C29.2981 38.8092 29.3972 38.9176 29.5179 38.9972L31.0631 40.0184L29.5013 41.1007C29.3851 41.1813 29.2902 41.2888 29.2247 41.4141C29.1592 41.5394 29.1249 41.6786 29.125 41.82V44.375H16V35.625ZM52.75 35.625V46.4033L49.1336 42.9033C48.3682 42.1705 47.3495 41.7616 46.2899 41.7616C45.2303 41.7616 44.2116 42.1705 43.4461 42.9033C43.0691 43.2646 42.7691 43.6984 42.5642 44.1787C42.3592 44.659 42.2536 45.1758 42.2536 45.698C42.2536 46.2202 42.3592 46.737 42.5642 47.2173C42.7691 47.6976 43.0691 48.1314 43.4461 48.4928L50.2869 55.1279C50.0738 55.3169 49.8752 55.5217 49.6927 55.7404L49.6656 55.7736C49.483 55.9915 49.3163 56.2222 49.1669 56.464L49.159 56.4762C48.9568 56.8013 48.7843 57.144 48.6436 57.5H24.75V46.125H30C30.2321 46.125 30.4546 46.0328 30.6187 45.8687C30.7828 45.7046 30.875 45.4821 30.875 45.25V42.275L33.1237 40.7158C33.2412 40.6342 33.3369 40.5252 33.4025 40.3981C33.4681 40.271 33.5015 40.1298 33.4998 39.9868C33.4982 39.8439 33.4615 39.7035 33.3931 39.5779C33.3246 39.4524 33.2264 39.3456 33.1071 39.2668L30.875 37.7968V34.75C30.875 34.5179 30.7828 34.2954 30.6187 34.1313C30.4546 33.9672 30.2321 33.875 30 33.875H24.75V20.75H52.75V21.625H47.5C47.2679 21.625 47.0454 21.7172 46.8813 21.8813C46.7172 22.0454 46.625 22.2679 46.625 22.5V25.5468L44.3929 27.0203C44.2736 27.0991 44.1754 27.2059 44.1069 27.3314C44.0385 27.457 44.0018 27.5974 44.0002 27.7403C43.9985 27.8833 44.0319 28.0245 44.0975 28.1516C44.1631 28.2787 44.2588 28.3877 44.3763 28.4693L46.625 30.025V33C46.625 33.2321 46.7172 33.4546 46.8813 33.6187C47.0454 33.7828 47.2679 33.875 47.5 33.875H52.75V35.625ZM65 32.125H48.375V29.57C48.375 29.4286 48.3409 29.2894 48.2753 29.1641C48.2098 29.0388 48.1149 28.9313 47.9987 28.8507L46.4369 27.7684L47.9821 26.7472C48.1028 26.6676 48.2019 26.5592 48.2704 26.4318C48.339 26.3045 48.3749 26.1621 48.375 26.0175V23.375H65V32.125Z" fill="black"/>
<path d="M53.625 25.125H50.125V26.875H53.625V25.125Z" fill="black"/>
<path d="M63.25 25.125H55.375V26.875H63.25V25.125Z" fill="black"/>
<path d="M59.75 28.625H50.125V30.375H59.75V28.625Z" fill="black"/>
<path d="M63.25 28.625H61.5V30.375H63.25V28.625Z" fill="black"/>
</svg>
