<svg width="24" height="24" viewBox="0 0 24 24" fill="none" xmlns="http://www.w3.org/2000/svg">
<path opacity="0.1" fill-rule="evenodd" clip-rule="evenodd" d="M0 12C0 5.37258 5.37258 0 12 0C18.6274 0 24 5.37258 24 12C24 18.6274 18.6274 24 12 24C5.37258 24 0 18.6274 0 12Z" fill="white"/>
<path d="M13.5601 8.66002H14.5001V7.07001C14.0449 7.02269 13.5876 6.99932 13.1301 7.00001C11.7701 7.00001 10.8401 7.83002 10.8401 9.35002V10.66H9.30505V12.44H10.8401V17H12.6801V12.44H14.2101L14.4401 10.66H12.6801V9.52502C12.6801 9.00002 12.8201 8.66002 13.5601 8.66002Z" fill="white"/>
</svg>
