<svg width="159" height="44" viewBox="0 0 159 44" fill="none" xmlns="http://www.w3.org/2000/svg">
<g clip-path="url(#clip0_2745_3034)">
<path d="M14 35C14 36.1 14.9 37 16 37C17.1 37 18 36.1 18 35H14Z" fill="white"/>
<mask id="path-2-inside-1_2745_3034" fill="white">
<path d="M12.45 30H19.5C19.9 27.85 21.25 25.75 22.65 23.55C24.3 21 26 18.35 26 15.8C26 10.95 21.5 7 16 7C10.5 7 6 10.95 6 15.8C6 18.35 7.7 21 9.3 23.55C10.7 25.75 12.05 27.85 12.45 30Z"/>
</mask>
<path d="M19.5 30V30.7857H20.153L20.2725 30.1437L19.5 30ZM22.65 23.55L21.9903 23.1231L21.9871 23.1282L22.65 23.55ZM9.3 23.55L8.63444 23.9676L8.63712 23.9718L9.3 23.55ZM12.45 30.7857H19.5V29.2143H12.45V30.7857ZM20.2725 30.1437C20.6388 28.1746 21.8869 26.2127 23.3129 23.9718L21.9871 23.1282C20.6131 25.2873 19.1612 27.5254 18.7275 29.8563L20.2725 30.1437ZM23.3097 23.9768C24.1299 22.7091 24.9947 21.3689 25.6505 20.0182C26.3061 18.6681 26.7857 17.2441 26.7857 15.8H25.2143C25.2143 16.9059 24.8439 18.0819 24.237 19.3318C23.6303 20.5811 22.8201 21.8409 21.9903 23.1232L23.3097 23.9768ZM26.7857 15.8C26.7857 10.4242 21.8359 6.21429 16 6.21429V7.78571C21.1641 7.78571 25.2143 11.4758 25.2143 15.8H26.7857ZM16 6.21429C10.1641 6.21429 5.21429 10.4242 5.21429 15.8H6.78571C6.78571 11.4758 10.8359 7.78571 16 7.78571V6.21429ZM5.21429 15.8C5.21429 17.2436 5.69367 18.6672 6.34187 20.0154C6.98999 21.3635 7.84166 22.7041 8.63445 23.9676L9.96555 23.1324C9.15834 21.8459 8.36001 20.5865 7.75813 19.3346C7.15633 18.0828 6.78571 16.9064 6.78571 15.8H5.21429ZM8.63712 23.9718C10.0631 26.2127 11.3112 28.1746 11.6775 30.1437L13.2225 29.8563C12.7888 27.5254 11.3369 25.2873 9.96288 23.1282L8.63712 23.9718Z" fill="white" mask="url(#path-2-inside-1_2745_3034)"/>
<path d="M13.1999 22.8C13.2499 23.1 13.3499 23.4 13.3999 23.7C13.5499 24.25 13.6499 24.75 13.7999 25.3C14.2499 27.2 14.6499 28.8 14.9999 30.05H15.2999C15.0499 28.8 14.6999 27.15 14.2499 25.25C14.1499 24.75 13.9999 24.2 13.8999 23.65C13.8499 23.4 13.7999 23.1 13.6999 22.85C14.0999 22.75 15.0499 22.45 15.9999 21.4C16.9499 22.45 17.8999 22.75 18.2999 22.85C18.2499 23.15 18.1999 23.4 18.0999 23.65C17.9999 24.2 17.8499 24.75 17.7499 25.25C17.2999 27.15 16.9499 28.8 16.6999 30.05H16.9999C17.2999 28.8 17.7499 27.2 18.1999 25.3C18.2999 24.8 18.4499 24.25 18.5999 23.7C18.6499 23.4 18.7499 23.1 18.7999 22.8C19.1999 22.75 19.5499 22.65 19.7999 22.4C20.0999 22.1 20.2499 21.75 20.1499 21.35C20.0999 21.15 19.9999 20.9 19.6999 20.85C19.5499 20.8 19.4499 20.8 19.2999 20.85C19.1499 20.9 19.0499 21 18.9999 21.05C18.7499 21.35 18.6499 21.65 18.5499 21.95L18.3999 22.4C18.3999 22.4 17.9999 22.45 17.0499 21.8C16.5499 21.45 16.3999 21.2 16.2499 21.05C16.3999 20.85 16.5499 20.7 16.6999 20.45C16.7499 20.3 16.7999 20.2 16.8499 20C16.8499 19.85 16.8499 19.65 16.7499 19.5C16.6499 19.35 16.5499 19.2 16.2999 19.1C16.1999 19.05 16.0999 19.05 15.9999 19.05C15.8999 19.05 15.7999 19.05 15.6999 19.1C15.4999 19.2 15.3499 19.35 15.2499 19.5C15.1499 19.65 15.1499 19.85 15.1499 20C15.1499 20.15 15.1999 20.3 15.2999 20.45C15.3999 20.7 15.5499 20.9 15.7499 21.05C15.5999 21.2 15.4499 21.45 14.9499 21.8C14.0499 22.4 13.5999 22.4 13.5999 22.4L13.4499 21.95C13.3499 21.65 13.2499 21.35 12.9999 21.05C12.9499 21 12.8499 20.9 12.6999 20.85C12.5499 20.8 12.3999 20.8 12.2999 20.85C11.9999 20.95 11.8999 21.2 11.8499 21.35C11.7999 21.75 11.9499 22.1 12.1999 22.4C12.4999 22.65 12.8499 22.75 13.1999 22.8ZM18.9999 22.05C19.0999 21.8 19.1999 21.5 19.3999 21.35C19.4499 21.3 19.4999 21.3 19.4999 21.3H19.5999C19.6499 21.3 19.6999 21.35 19.7499 21.5C19.7999 21.7 19.6999 22 19.4999 22.15C19.3499 22.25 19.1499 22.35 18.9499 22.4C18.9499 22.25 18.9499 22.15 18.9999 22.05ZM15.6999 19.65C15.7999 19.55 15.8999 19.45 15.9999 19.45C16.0999 19.45 16.1999 19.5 16.2999 19.65C16.3999 19.8 16.3499 20 16.2499 20.2C16.1999 20.35 16.0999 20.5 15.9999 20.6C15.8999 20.45 15.7999 20.35 15.7499 20.2C15.6499 20.05 15.5999 19.85 15.6999 19.65ZM12.2999 21.4C12.2999 21.3 12.3499 21.25 12.4499 21.2H12.5499C12.5499 21.2 12.5999 21.25 12.6499 21.25C12.7999 21.4 12.9499 21.7 13.0499 21.95C13.0999 22.05 13.0999 22.15 13.1499 22.25C12.9499 22.2 12.7499 22.15 12.5999 22C12.3999 21.9 12.2999 21.65 12.2999 21.4Z" fill="white"/>
<path d="M12.4501 31H19.6001V31.9H12.4501V31Z" fill="white"/>
<path d="M12.95 32.8H19.1V33.7001H12.95V32.8Z" fill="white"/>
<path d="M12.9501 31.9001H19.1001V32.8001H12.9501V31.9001Z" fill="white"/>
<path d="M13.3429 33.2329V33.1007L19.2072 31.5133V31.6015L13.3429 33.2329Z" stroke="white" stroke-width="0.785714"/>
<path d="M13.8431 35.043H18.2073V35.1573H13.8431V35.043Z" stroke="white" stroke-width="0.785714"/>
<path d="M13.4501 33.75H18.6001V34.65H13.4501V33.75Z" fill="white"/>
<path d="M19.1001 32.8L13.4501 34.65V35.6L19.1001 33.75V32.8Z" fill="white"/>
<path d="M24.3478 5.30425L9.2636 11.1782L13.4892 13.1219L4.14215 22.3123L20.0449 14.659L16.2124 12.8961L24.3478 5.30425Z" fill="white"/>
</g>
<path d="M48.8064 14.5937L52.25 24.317L55.6752 14.5937H59.303V28H56.5315V24.3354L56.8078 18.0098L53.1892 28H51.2924L47.683 18.019L47.9593 24.3354V28H45.197V14.5937H48.8064ZM65.4175 24.2341L67.259 18.0374H70.1133L66.108 29.5469L65.8871 30.0717C65.2916 31.373 64.3095 32.0237 62.9406 32.0237C62.5539 32.0237 62.161 31.9654 61.7621 31.8488V29.8323L62.1672 29.8415C62.6705 29.8415 63.045 29.7648 63.2905 29.6113C63.5422 29.4579 63.7386 29.2031 63.8798 28.8471L64.1929 28.0276L60.7032 18.0374H63.5667L65.4175 24.2341Z" fill="white"/>
<path d="M76.458 23.0924H74.2574V28H71.4951V14.5937H76.4764C78.0601 14.5937 79.2816 14.9467 80.141 15.6526C81.0004 16.3585 81.4301 17.356 81.4301 18.6451C81.4301 19.5597 81.2306 20.3239 80.8316 20.9378C80.4387 21.5455 79.8402 22.0304 79.0361 22.3926L81.9365 27.8711V28H78.9717L76.458 23.0924ZM74.2574 20.8549H76.4856C77.1792 20.8549 77.7164 20.68 78.0969 20.3301C78.4775 19.9741 78.6678 19.486 78.6678 18.8661C78.6678 18.2338 78.4867 17.7366 78.1246 17.3744C77.7685 17.0123 77.2191 16.8312 76.4764 16.8312H74.2574V20.8549ZM88.1062 28.1842C86.6453 28.1842 85.4544 27.736 84.5336 26.8398C83.619 25.9436 83.1617 24.7497 83.1617 23.2581V23.0003C83.1617 21.9997 83.3551 21.1066 83.7418 20.3209C84.1285 19.529 84.6748 18.9213 85.3807 18.4978C86.0928 18.0681 86.9031 17.8532 87.8116 17.8532C89.1743 17.8532 90.2454 18.2829 91.025 19.1423C91.8107 20.0017 92.2036 21.2201 92.2036 22.7977V23.8842H85.8595C85.9455 24.5349 86.2033 25.0566 86.633 25.4495C87.0688 25.8424 87.6182 26.0388 88.2811 26.0388C89.3062 26.0388 90.1073 25.6674 90.6843 24.9247L91.9918 26.3887C91.5928 26.9534 91.0526 27.3954 90.3713 27.7146C89.6899 28.0276 88.9349 28.1842 88.1062 28.1842ZM87.8023 20.0078C87.2744 20.0078 86.8448 20.1858 86.5133 20.5419C86.1879 20.8979 85.9792 21.4074 85.8872 22.0703H89.5886V21.8585C89.5763 21.2693 89.4167 20.815 89.1098 20.4958C88.8029 20.1705 88.3671 20.0078 87.8023 20.0078ZM98.0234 26.0388C98.5145 26.0388 98.9135 25.9037 99.2204 25.6336C99.5273 25.3636 99.6869 25.0045 99.6992 24.5564H102.194C102.188 25.2316 102.004 25.8516 101.642 26.4163C101.28 26.9749 100.783 27.4107 100.15 27.7238C99.5242 28.0307 98.8306 28.1842 98.0694 28.1842C96.6453 28.1842 95.522 27.733 94.6994 26.8306C93.8769 25.9222 93.4656 24.6699 93.4656 23.0739V22.899C93.4656 21.3644 93.8738 20.1398 94.6902 19.2252C95.5066 18.3105 96.6269 17.8532 98.051 17.8532C99.2971 17.8532 100.295 18.2093 101.043 18.9213C101.798 19.6272 102.182 20.5695 102.194 21.748H99.6992C99.6869 21.2324 99.5273 20.815 99.2204 20.4958C98.9135 20.1705 98.5083 20.0078 98.005 20.0078C97.385 20.0078 96.9154 20.2349 96.5962 20.6892C96.2831 21.1373 96.1266 21.8677 96.1266 22.8806V23.1568C96.1266 24.1819 96.2831 24.9185 96.5962 25.3666C96.9093 25.8147 97.385 26.0388 98.0234 26.0388ZM106.467 19.1239C107.173 18.2768 108.06 17.8532 109.128 17.8532C111.289 17.8532 112.385 19.1085 112.415 21.6191V28H109.754V21.6928C109.754 21.1219 109.632 20.7015 109.386 20.4314C109.141 20.1551 108.732 20.017 108.162 20.017C107.382 20.017 106.817 20.3178 106.467 20.9194V28H103.806V13.8571H106.467V19.1239ZM120.353 28C120.23 27.7606 120.141 27.4629 120.086 27.1069C119.441 27.8251 118.604 28.1842 117.572 28.1842C116.596 28.1842 115.786 27.9018 115.142 27.3371C114.503 26.7723 114.184 26.0603 114.184 25.2009C114.184 24.1451 114.574 23.3348 115.353 22.7701C116.139 22.2054 117.272 21.9199 118.751 21.9138H119.976V21.3429C119.976 20.8825 119.856 20.5142 119.616 20.238C119.383 19.9618 119.012 19.8237 118.502 19.8237C118.054 19.8237 117.701 19.9311 117.443 20.1459C117.192 20.3608 117.066 20.6554 117.066 21.0299H114.405C114.405 20.4528 114.583 19.9188 114.939 19.4277C115.295 18.9367 115.798 18.553 116.449 18.2768C117.1 17.9944 117.83 17.8532 118.64 17.8532C119.868 17.8532 120.841 18.1632 121.559 18.7832C122.284 19.397 122.646 20.2626 122.646 21.3797V25.6981C122.652 26.6434 122.784 27.3585 123.042 27.8435V28H120.353ZM118.152 26.1493C118.545 26.1493 118.907 26.0633 119.239 25.8915C119.57 25.7134 119.816 25.4771 119.976 25.1825V23.4699H118.981C117.649 23.4699 116.94 23.9302 116.854 24.851L116.845 25.0075C116.845 25.339 116.962 25.6122 117.195 25.827C117.428 26.0419 117.747 26.1493 118.152 26.1493ZM130.445 20.5326C130.083 20.4835 129.764 20.459 129.488 20.459C128.481 20.459 127.821 20.7997 127.508 21.481V28H124.847V18.0374H127.361L127.434 19.2252C127.968 18.3105 128.708 17.8532 129.653 17.8532C129.948 17.8532 130.224 17.8931 130.482 17.9729L130.445 20.5326ZM131.32 22.945C131.32 21.4166 131.683 20.1858 132.407 19.2528C133.137 18.3198 134.12 17.8532 135.353 17.8532C136.446 17.8532 137.296 18.2277 137.904 18.9766L138.014 18.0374H140.427V27.6685C140.427 28.5402 140.227 29.2983 139.828 29.9428C139.435 30.5873 138.88 31.0784 138.162 31.416C137.444 31.7536 136.603 31.9224 135.639 31.9224C134.908 31.9224 134.196 31.7751 133.503 31.4805C132.809 31.192 132.284 30.8175 131.928 30.3571L133.107 28.7366C133.77 29.4794 134.574 29.8507 135.519 29.8507C136.225 29.8507 136.774 29.6604 137.167 29.2799C137.56 28.9054 137.757 28.3714 137.757 27.6777V27.1437C137.143 27.8373 136.336 28.1842 135.335 28.1842C134.138 28.1842 133.168 27.7176 132.425 26.7846C131.689 25.8454 131.32 24.6024 131.32 23.0555V22.945ZM133.981 23.1384C133.981 24.0407 134.163 24.7497 134.525 25.2653C134.887 25.7748 135.384 26.0296 136.016 26.0296C136.827 26.0296 137.407 25.7257 137.757 25.118V20.9286C137.401 20.3209 136.827 20.017 136.035 20.017C135.396 20.017 134.893 20.2779 134.525 20.7997C134.163 21.3214 133.981 22.101 133.981 23.1384ZM147.223 28.1842C145.762 28.1842 144.571 27.736 143.65 26.8398C142.735 25.9436 142.278 24.7497 142.278 23.2581V23.0003C142.278 21.9997 142.471 21.1066 142.858 20.3209C143.245 19.529 143.791 18.9213 144.497 18.4978C145.209 18.0681 146.019 17.8532 146.928 17.8532C148.291 17.8532 149.362 18.2829 150.141 19.1423C150.927 20.0017 151.32 21.2201 151.32 22.7977V23.8842H144.976C145.062 24.5349 145.32 25.0566 145.749 25.4495C146.185 25.8424 146.735 26.0388 147.398 26.0388C148.423 26.0388 149.224 25.6674 149.801 24.9247L151.108 26.3887C150.709 26.9534 150.169 27.3954 149.488 27.7146C148.806 28.0276 148.051 28.1842 147.223 28.1842ZM146.919 20.0078C146.391 20.0078 145.961 20.1858 145.63 20.5419C145.304 20.8979 145.096 21.4074 145.004 22.0703H148.705V21.8585C148.693 21.2693 148.533 20.815 148.226 20.4958C147.919 20.1705 147.483 20.0078 146.919 20.0078Z" fill="#00B6F0"/>
<defs>
<clipPath id="clip0_2745_3034">
<rect width="32" height="32" fill="white" transform="translate(0 6)"/>
</clipPath>
</defs>
</svg>
