<svg width="50" height="50" viewBox="0 0 50 50" fill="none" xmlns="http://www.w3.org/2000/svg">
<path d="M11.9126 10.2678C11.9126 9.71557 11.4653 9.26782 10.9126 9.26782H9.58205C13.7153 5.22973 19.1568 3.00024 24.9448 3.00024C30.8208 3.00024 36.3452 5.28833 40.5005 9.4436C40.8911 9.83421 41.5239 9.83424 41.9146 9.4436C42.3052 9.05297 42.3052 8.42016 41.9146 8.02954C37.3823 3.49634 31.355 1.00024 24.9448 1.00024C18.6218 1.00024 12.6741 3.4331 8.1626 7.85009V6.51782C8.1626 5.96557 7.71533 5.51782 7.1626 5.51782C6.60987 5.51782 6.1626 5.96557 6.1626 6.51782V10.2678C6.1626 10.8201 6.60987 11.2678 7.1626 11.2678H10.9126C11.4653 11.2678 11.9126 10.8201 11.9126 10.2678ZM42.8374 38.7053H39.0874C38.5347 38.7053 38.0874 39.1531 38.0874 39.7053C38.0874 40.2576 38.5347 40.7053 39.0874 40.7053H40.3364C36.1997 44.7612 30.7463 46.9998 24.9448 46.9998C19.0689 46.9998 13.5435 44.7117 9.3882 40.5564C8.99757 40.1658 8.36476 40.1658 7.97414 40.5564C7.58352 40.947 7.58351 41.5798 7.97414 41.9705C12.5073 46.5037 18.5347 48.9998 24.9448 48.9998C31.3193 48.9998 37.314 46.5293 41.8374 42.0439V43.4553C41.8374 44.0076 42.2847 44.4553 42.8374 44.4553C43.3901 44.4553 43.8374 44.0076 43.8374 43.4553V39.7053C43.8374 39.1531 43.3901 38.7053 42.8374 38.7053Z" fill="#F5FBFF"/>
<path d="M24.9966 9.00024C16.1768 9.00024 9.00659 16.1803 9.00659 25.0002C9.00659 33.8203 16.1768 41.0002 24.9966 41.0002C33.8167 41.0002 40.9966 33.8203 40.9966 25.0002C40.9966 16.1803 33.8166 9.00024 24.9966 9.00024ZM24.9966 38.0002C17.8367 38.0002 12.0066 32.1703 12.0066 25.0002C12.0066 17.8303 17.8367 12.0002 24.9966 12.0002C32.1668 12.0002 37.9966 17.8303 37.9966 25.0002C37.9966 32.1703 32.1667 38.0002 24.9966 38.0002Z" fill="#F5FBFF"/>
<path d="M31.6468 19.7703L27.9669 23.4503C28.6268 24.7202 28.4366 26.3103 27.3768 27.3704C26.7366 28.0103 25.8968 28.3604 24.9966 28.3604C24.4468 28.3604 23.9268 28.2102 23.4566 27.9602L21.8968 29.5203C21.4737 29.9222 20.8583 29.8914 20.4866 29.5203C20.0967 29.1304 20.0967 28.5002 20.4866 28.1104L22.0367 26.5503C21.7867 26.0803 21.6368 25.5503 21.6368 25.0002C21.6368 24.1003 21.9866 23.2603 22.6268 22.6204C23.6468 21.6003 25.2767 21.4203 26.5467 22.0503L30.2366 18.3503C30.6268 17.9602 31.2567 17.9602 31.6468 18.3503C32.0367 18.7503 32.0367 19.3804 31.6468 19.7703Z" fill="#F5FBFF"/>
</svg>
