<svg width="24" height="25" viewBox="0 0 24 25" fill="none" xmlns="http://www.w3.org/2000/svg">
<g clip-path="url(#clip0_3353_2009)">
<path d="M11 24.09V20.49C5.99 20.23 2 16.07 2 11C2 5.76 6.26 1.5 11.5 1.5C16.74 1.5 21 5.76 21 11C21 15.95 17.56 20.93 12.43 23.4L11 24.09ZM11.5 3.5C7.36 3.5 4 6.86 4 11C4 15.14 7.36 18.5 11.5 18.5H13V20.8C16.64 18.5 19 14.72 19 11C19 6.86 15.64 3.5 11.5 3.5ZM10.5 15H12.5V17H10.5V15ZM12.5 13.5H10.5C10.5 10.25 13.5 10.5 13.5 8.5C13.5 7.4 12.6 6.5 11.5 6.5C10.4 6.5 9.5 7.4 9.5 8.5H7.5C7.5 6.29 9.29 4.5 11.5 4.5C13.71 4.5 15.5 6.29 15.5 8.5C15.5 11 12.5 11.25 12.5 13.5Z" fill="white"/>
</g>
<defs>
<clipPath id="clip0_3353_2009">
<rect width="24" height="24" fill="white" transform="translate(0 0.5)"/>
</clipPath>
</defs>
</svg>
