<svg width="362" height="90" viewBox="0 0 362 90" fill="none" xmlns="http://www.w3.org/2000/svg">
<path d="M27.7463 89.8367C24.7759 89.8367 22.3406 87.5009 22.2517 84.6199H33.241C33.152 87.5009 30.7167 89.8367 27.7463 89.8367Z" fill="white" stroke="#00B6F0" stroke-width="0.32645"/>
<mask id="path-2-inside-1_2875_111" fill="white">
<path d="M19.0152 71.2463H36.3175C37.2992 66.0789 40.6124 61.0317 44.0483 55.7441C48.0978 49.6153 52.27 43.2462 52.27 37.1174C52.27 25.4608 41.226 15.9672 27.7277 15.9672C14.2294 15.9672 3.18542 25.4608 3.18542 37.1174C3.18542 43.2462 7.35761 49.6153 11.2844 55.7441C14.7203 61.0317 18.0335 66.0789 19.0152 71.2463Z"/>
</mask>
<path d="M36.3175 71.2463V72.3786H37.255L37.4299 71.4576L36.3175 71.2463ZM44.0483 55.7441L43.1035 55.1199L43.0988 55.1271L44.0483 55.7441ZM11.2844 55.7441L10.3309 56.355L10.3349 56.3611L11.2844 55.7441ZM19.0152 72.3786H36.3175V70.114H19.0152V72.3786ZM37.4299 71.4576C38.3613 66.555 41.5227 61.7089 44.9978 56.3611L43.0988 55.1271C39.7021 60.3545 36.2371 65.6028 35.2051 71.035L37.4299 71.4576ZM44.9931 56.3683C47.0107 53.3146 49.1065 50.1318 50.6922 46.9338C52.2773 43.7369 53.4023 40.4306 53.4023 37.1174H51.1376C51.1376 39.933 50.1766 42.8757 48.6632 45.9278C47.1504 48.9787 45.1354 52.0448 43.1036 55.1199L44.9931 56.3683ZM53.4023 37.1174C53.4023 24.6824 41.6865 14.8348 27.7277 14.8348V17.0995C40.7654 17.0995 51.1376 26.2391 51.1376 37.1174H53.4023ZM27.7277 14.8348C13.7689 14.8348 2.05309 24.6824 2.05309 37.1174H4.31776C4.31776 26.2391 14.69 17.0995 27.7277 17.0995V14.8348ZM2.05309 37.1174C2.05309 40.43 3.17781 43.7356 4.74591 46.9298C6.31408 50.1241 8.37828 53.3073 10.331 56.355L12.2378 55.1332C10.2637 52.0521 8.27844 48.9864 6.77881 45.9318C5.27913 42.877 4.31776 39.9337 4.31776 37.1174H2.05309ZM10.3349 56.3611C13.81 61.7089 16.9714 66.555 17.9028 71.4576L20.1276 71.035C19.0956 65.6028 15.6306 60.3545 12.2339 55.1271L10.3349 56.3611Z" fill="#00B6F0" mask="url(#path-2-inside-1_2875_111)"/>
<mask id="path-4-inside-2_2875_111" fill="white">
<path d="M20.8537 53.94C20.9764 54.6611 21.2218 55.3821 21.3445 56.1031C21.7127 57.425 21.9581 58.6267 22.3262 59.9486C23.4306 64.5152 24.4123 68.3607 25.2713 71.365H26.0076C25.394 68.3607 24.535 64.395 23.4306 59.8285C23.1852 58.6267 22.8171 57.3049 22.5716 55.983C22.4489 55.3821 22.3262 54.6611 22.0808 54.0602C23.0625 53.8199 25.394 53.0988 27.7255 50.5752C30.057 53.0988 32.3886 53.8199 33.3703 54.0602C33.2475 54.7812 33.1248 55.3821 32.8794 55.983C32.634 57.3049 32.2659 58.6267 32.0204 59.8285C30.916 64.395 30.057 68.3607 29.4435 71.365H30.1798C30.916 68.3607 32.0204 64.5152 33.1248 59.9486C33.3703 58.7469 33.7384 57.425 34.1065 56.1031C34.2292 55.3821 34.4747 54.6611 34.5974 53.94C35.5791 53.8199 36.438 53.5795 37.0516 52.9787C37.7879 52.2576 38.156 51.4164 37.9106 50.455C37.7879 49.9744 37.5424 49.3735 36.8062 49.2533C36.438 49.1331 36.1926 49.1331 35.8245 49.2533C35.4563 49.3735 35.2109 49.6138 35.0882 49.734C34.4747 50.455 34.2292 51.1761 33.9838 51.8971L33.6157 52.9787C33.6157 52.9787 32.634 53.0988 30.3025 51.5366C29.0754 50.6954 28.7072 50.0945 28.3391 49.734C28.7072 49.2533 29.0754 48.8928 29.4435 48.2919C29.5662 47.9314 29.6889 47.6911 29.8116 47.2104C29.8116 46.8499 29.8116 46.3692 29.5662 46.0087C29.3208 45.6482 29.0754 45.2876 28.4618 45.0473C28.2164 44.9271 27.971 44.9271 27.7255 44.9271C27.4801 44.9271 27.2347 44.9271 26.9893 45.0473C26.4984 45.2876 26.1303 45.6482 25.8849 46.0087C25.6394 46.3692 25.6394 46.8499 25.6394 47.2104C25.6394 47.5709 25.7621 47.9314 26.0076 48.2919C26.253 48.8928 26.6211 49.3735 27.112 49.734C26.7438 50.0945 26.3757 50.6954 25.1486 51.5366C22.9398 52.9787 21.8354 52.9787 21.8354 52.9787L21.4672 51.8971C21.2218 51.1761 20.9764 50.455 20.3628 49.734C20.2401 49.6138 19.9947 49.3735 19.6266 49.2533C19.2584 49.1331 18.8903 49.1331 18.6449 49.2533C17.9086 49.4937 17.6632 50.0945 17.5405 50.455C17.4178 51.4164 17.7859 52.2576 18.3995 52.9787C19.1357 53.5795 19.9947 53.8199 20.8537 53.94ZM35.0882 52.1374C35.3336 51.5366 35.5791 50.8156 36.0699 50.455C36.1926 50.3349 36.3153 50.3349 36.3153 50.3349H36.5608C36.6835 50.3349 36.8062 50.455 36.9289 50.8156C37.0516 51.2962 36.8062 52.0173 36.3153 52.3778C35.9472 52.6181 35.4564 52.8585 34.9655 52.9787C34.9655 52.6181 34.9655 52.3778 35.0882 52.1374ZM26.9893 46.3692C27.2347 46.1288 27.4801 45.8885 27.7255 45.8885C27.971 45.8885 28.2164 46.0087 28.4618 46.3692C28.7072 46.7297 28.5845 47.2104 28.3391 47.6911C28.2164 48.0516 27.971 48.4121 27.7255 48.6525C27.4801 48.2919 27.2347 48.0516 27.112 47.6911C26.8665 47.3306 26.7438 46.8499 26.9893 46.3692ZM18.6449 50.5752C18.6449 50.3349 18.7676 50.2147 19.013 50.0945H19.2584C19.2584 50.0945 19.3811 50.2147 19.5039 50.2147C19.872 50.5752 20.2401 51.2962 20.4856 51.8971C20.6083 52.1375 20.6083 52.3778 20.731 52.6181C20.2401 52.498 19.7493 52.3778 19.3812 52.0173C18.8903 51.7769 18.6449 51.1761 18.6449 50.5752Z"/>
</mask>
<path d="M20.8537 53.94C20.9764 54.6611 21.2218 55.3821 21.3445 56.1031C21.7127 57.425 21.9581 58.6267 22.3262 59.9486C23.4306 64.5152 24.4123 68.3607 25.2713 71.365H26.0076C25.394 68.3607 24.535 64.395 23.4306 59.8285C23.1852 58.6267 22.8171 57.3049 22.5716 55.983C22.4489 55.3821 22.3262 54.6611 22.0808 54.0602C23.0625 53.8199 25.394 53.0988 27.7255 50.5752C30.057 53.0988 32.3886 53.8199 33.3703 54.0602C33.2475 54.7812 33.1248 55.3821 32.8794 55.983C32.634 57.3049 32.2659 58.6267 32.0204 59.8285C30.916 64.395 30.057 68.3607 29.4435 71.365H30.1798C30.916 68.3607 32.0204 64.5152 33.1248 59.9486C33.3703 58.7469 33.7384 57.425 34.1065 56.1031C34.2292 55.3821 34.4747 54.6611 34.5974 53.94C35.5791 53.8199 36.438 53.5795 37.0516 52.9787C37.7879 52.2576 38.156 51.4164 37.9106 50.455C37.7879 49.9744 37.5424 49.3735 36.8062 49.2533C36.438 49.1331 36.1926 49.1331 35.8245 49.2533C35.4563 49.3735 35.2109 49.6138 35.0882 49.734C34.4747 50.455 34.2292 51.1761 33.9838 51.8971L33.6157 52.9787C33.6157 52.9787 32.634 53.0988 30.3025 51.5366C29.0754 50.6954 28.7072 50.0945 28.3391 49.734C28.7072 49.2533 29.0754 48.8928 29.4435 48.2919C29.5662 47.9314 29.6889 47.6911 29.8116 47.2104C29.8116 46.8499 29.8116 46.3692 29.5662 46.0087C29.3208 45.6482 29.0754 45.2876 28.4618 45.0473C28.2164 44.9271 27.971 44.9271 27.7255 44.9271C27.4801 44.9271 27.2347 44.9271 26.9893 45.0473C26.4984 45.2876 26.1303 45.6482 25.8849 46.0087C25.6394 46.3692 25.6394 46.8499 25.6394 47.2104C25.6394 47.5709 25.7621 47.9314 26.0076 48.2919C26.253 48.8928 26.6211 49.3735 27.112 49.734C26.7438 50.0945 26.3757 50.6954 25.1486 51.5366C22.9398 52.9787 21.8354 52.9787 21.8354 52.9787L21.4672 51.8971C21.2218 51.1761 20.9764 50.455 20.3628 49.734C20.2401 49.6138 19.9947 49.3735 19.6266 49.2533C19.2584 49.1331 18.8903 49.1331 18.6449 49.2533C17.9086 49.4937 17.6632 50.0945 17.5405 50.455C17.4178 51.4164 17.7859 52.2576 18.3995 52.9787C19.1357 53.5795 19.9947 53.8199 20.8537 53.94ZM35.0882 52.1374C35.3336 51.5366 35.5791 50.8156 36.0699 50.455C36.1926 50.3349 36.3153 50.3349 36.3153 50.3349H36.5608C36.6835 50.3349 36.8062 50.455 36.9289 50.8156C37.0516 51.2962 36.8062 52.0173 36.3153 52.3778C35.9472 52.6181 35.4564 52.8585 34.9655 52.9787C34.9655 52.6181 34.9655 52.3778 35.0882 52.1374ZM26.9893 46.3692C27.2347 46.1288 27.4801 45.8885 27.7255 45.8885C27.971 45.8885 28.2164 46.0087 28.4618 46.3692C28.7072 46.7297 28.5845 47.2104 28.3391 47.6911C28.2164 48.0516 27.971 48.4121 27.7255 48.6525C27.4801 48.2919 27.2347 48.0516 27.112 47.6911C26.8665 47.3306 26.7438 46.8499 26.9893 46.3692ZM18.6449 50.5752C18.6449 50.3349 18.7676 50.2147 19.013 50.0945H19.2584C19.2584 50.0945 19.3811 50.2147 19.5039 50.2147C19.872 50.5752 20.2401 51.2962 20.4856 51.8971C20.6083 52.1375 20.6083 52.3778 20.731 52.6181C20.2401 52.498 19.7493 52.3778 19.3812 52.0173C18.8903 51.7769 18.6449 51.1761 18.6449 50.5752Z" fill="white"/>
<path d="M21.3445 56.1031L21.0655 56.1506L21.0679 56.165L21.0718 56.1791L21.3445 56.1031ZM22.3262 59.9486L22.6015 59.8821L22.5989 59.8727L22.3262 59.9486ZM25.2713 71.365L24.9991 71.4428L25.0578 71.6481H25.2713V71.365ZM26.0076 71.365V71.6481H26.3543L26.2849 71.3083L26.0076 71.365ZM23.4306 59.8285L23.1531 59.8851L23.1555 59.895L23.4306 59.8285ZM22.5716 55.983L22.85 55.9313L22.849 55.9263L22.5716 55.983ZM22.0808 54.0602L22.0135 53.7852L21.6946 53.8633L21.8187 54.1672L22.0808 54.0602ZM27.7255 50.5752L27.9335 50.3831L27.7255 50.1581L27.5176 50.3831L27.7255 50.5752ZM33.3703 54.0602L33.6493 54.1077L33.6935 53.8479L33.4376 53.7852L33.3703 54.0602ZM32.8794 55.983L32.6173 55.8759L32.6064 55.9028L32.6011 55.9313L32.8794 55.983ZM32.0204 59.8285L32.2958 59.8951L32.2978 59.8851L32.0204 59.8285ZM29.4435 71.365L29.1661 71.3083L29.0968 71.6481H29.4435V71.365ZM30.1798 71.365V71.6481H30.4018L30.4547 71.4324L30.1798 71.365ZM33.1248 59.9486L33.4002 60.0152L33.4022 60.0053L33.1248 59.9486ZM34.1065 56.1031L34.3792 56.1791L34.3831 56.165L34.3856 56.1506L34.1065 56.1031ZM34.5974 53.94L34.563 53.659L34.3537 53.6847L34.3183 53.8925L34.5974 53.94ZM36.8062 49.2533L36.7183 49.5224L36.7391 49.5292L36.7606 49.5327L36.8062 49.2533ZM35.0882 49.734L34.8901 49.5318L34.881 49.5408L34.8726 49.5506L35.0882 49.734ZM33.9838 51.8971L33.7158 51.8059V51.8059L33.9838 51.8971ZM33.6157 52.9787L33.6501 53.2596L33.8264 53.2381L33.8837 53.0699L33.6157 52.9787ZM30.3025 51.5366L30.1424 51.7701L30.1449 51.7718L30.3025 51.5366ZM28.3391 49.734L28.1143 49.5619L27.9619 49.7609L28.141 49.9363L28.3391 49.734ZM29.4435 48.2919L29.6849 48.4398L29.7013 48.413L29.7115 48.3832L29.4435 48.2919ZM29.8116 47.2104L30.0859 47.2804L30.0947 47.246V47.2104H29.8116ZM28.4618 45.0473L28.3373 45.3015L28.3477 45.3066L28.3585 45.3109L28.4618 45.0473ZM26.0076 48.2919L26.2696 48.1849L26.2584 48.1573L26.2416 48.1326L26.0076 48.2919ZM27.112 49.734L27.31 49.9363L27.5481 49.7031L27.2795 49.5059L27.112 49.734ZM25.1486 51.5366L25.3034 51.7737L25.3086 51.7701L25.1486 51.5366ZM21.8354 52.9787L21.5674 53.0699L21.6327 53.2617H21.8354V52.9787ZM21.4672 51.8971L21.1993 51.9883V51.9883L21.4672 51.8971ZM20.3628 49.734L20.5784 49.5506L20.5701 49.5408L20.5609 49.5318L20.3628 49.734ZM18.6449 49.2533L18.7327 49.5224L18.7516 49.5163L18.7694 49.5076L18.6449 49.2533ZM17.5405 50.455L17.2725 50.3638L17.2633 50.3909L17.2597 50.4192L17.5405 50.455ZM18.3995 52.9787L18.1839 53.1621L18.2005 53.1817L18.2205 53.198L18.3995 52.9787ZM36.0699 50.455L36.2375 50.6832L36.2536 50.6713L36.268 50.6573L36.0699 50.455ZM36.3153 50.3349V50.0518H36.3153L36.3153 50.3349ZM36.9289 50.8156L37.2032 50.7455L37.2004 50.7348L37.1969 50.7243L36.9289 50.8156ZM36.3153 52.3778L36.4701 52.6148L36.4766 52.6106L36.4829 52.6059L36.3153 52.3778ZM34.9655 52.9787H34.6824V53.3394L35.0328 53.2536L34.9655 52.9787ZM26.9893 46.3692L26.7912 46.1669L26.7582 46.1993L26.7371 46.2405L26.9893 46.3692ZM28.3391 47.6911L28.087 47.5624L28.0777 47.5805L28.0711 47.5999L28.3391 47.6911ZM27.7255 48.6525L27.4915 48.8118L27.6819 49.0914L27.9236 48.8547L27.7255 48.6525ZM27.112 47.6911L27.38 47.5999L27.3676 47.5635L27.346 47.5318L27.112 47.6911ZM19.013 50.0945V49.8114H18.9474L18.8885 49.8403L19.013 50.0945ZM19.2584 50.0945L19.4565 49.8923L19.374 49.8114H19.2584V50.0945ZM19.5039 50.2147L19.7019 50.0124L19.6194 49.9316H19.5039V50.2147ZM20.4856 51.8971L20.2235 52.0041L20.228 52.0152L20.2334 52.0258L20.4856 51.8971ZM20.731 52.6181L20.6637 52.8931L21.2643 53.0402L20.9831 52.4894L20.731 52.6181ZM19.3812 52.0173L19.5792 51.815L19.5466 51.7831L19.5056 51.763L19.3812 52.0173ZM20.5746 53.9875C20.6382 54.3613 20.7333 54.7331 20.8248 55.0916C20.9174 55.4541 21.0064 55.8034 21.0655 56.1506L21.6236 56.0556C21.56 55.6818 21.4649 55.3101 21.3734 54.9516C21.2808 54.589 21.1918 54.2397 21.1328 53.8925L20.5746 53.9875ZM21.0718 56.1791C21.2544 56.8348 21.4068 57.4613 21.5603 58.0928C21.7136 58.7231 21.868 59.3584 22.0535 60.0246L22.5989 59.8727C22.4163 59.2169 22.264 58.5905 22.1104 57.959C21.9572 57.3287 21.8028 56.6933 21.6172 56.0272L21.0718 56.1791ZM22.0511 60.0152C23.1558 64.583 24.1385 68.4329 24.9991 71.4428L25.5435 71.2872C24.6861 68.2885 23.7055 64.4474 22.6014 59.8821L22.0511 60.0152ZM25.2713 71.6481H26.0076V71.0819H25.2713V71.6481ZM26.2849 71.3083C25.6708 68.3012 24.8111 64.3322 23.7058 59.7619L23.1555 59.895C24.259 64.4578 25.1172 68.4202 25.7302 71.4216L26.2849 71.3083ZM23.708 59.7718C23.5841 59.1654 23.4293 58.5288 23.2766 57.8854C23.1232 57.2397 22.9713 56.5847 22.85 55.9313L22.2933 56.0346C22.4174 56.7031 22.5723 57.37 22.7257 58.0162C22.8797 58.6646 23.0317 59.2898 23.1533 59.8851L23.708 59.7718ZM22.849 55.9263C22.7296 55.3417 22.6011 54.5853 22.3429 53.9532L21.8187 54.1672C22.0514 54.7368 22.1683 55.4225 22.2943 56.0396L22.849 55.9263ZM22.1481 54.3352C23.1643 54.0864 25.5526 53.3444 27.9335 50.7673L27.5176 50.3831C25.2354 52.8533 22.9607 53.5533 22.0135 53.7852L22.1481 54.3352ZM27.5176 50.7673C29.8985 53.3444 32.2868 54.0864 33.3029 54.3352L33.4376 53.7852C32.4904 53.5533 30.2156 52.8533 27.9335 50.3831L27.5176 50.7673ZM33.0912 54.0127C32.969 54.7309 32.8503 55.3057 32.6173 55.8759L33.1415 56.09C33.3994 55.4585 33.5261 54.8316 33.6493 54.1077L33.0912 54.0127ZM32.6011 55.9313C32.4798 56.5847 32.3278 57.2397 32.1745 57.8854C32.0217 58.5288 31.8669 59.1654 31.7431 59.7718L32.2978 59.8851C32.4194 59.2898 32.5714 58.6646 32.7253 58.0162C32.8788 57.37 33.0336 56.7031 33.1577 56.0346L32.6011 55.9313ZM31.7453 59.7619C30.64 64.3322 29.7803 68.3012 29.1661 71.3083L29.7208 71.4216C30.3338 68.4202 31.1921 64.4578 32.2956 59.895L31.7453 59.7619ZM29.4435 71.6481H30.1798V71.0819H29.4435V71.6481ZM30.4547 71.4324C30.822 69.9336 31.2812 68.2247 31.7879 66.3153C32.2942 64.4071 32.847 62.3016 33.4 60.0152L32.8497 59.8821C32.2982 62.1622 31.7467 64.2627 31.2406 66.1701C30.7349 68.0761 30.2738 69.7921 29.9048 71.2976L30.4547 71.4324ZM33.4022 60.0053C33.6452 58.8152 34.0104 57.5034 34.3792 56.1791L33.8338 56.0272C33.4663 57.3467 33.0953 58.6787 32.8475 59.892L33.4022 60.0053ZM34.3856 56.1506C34.4447 55.8034 34.5337 55.4541 34.6262 55.0916C34.7178 54.7331 34.8128 54.3613 34.8764 53.9875L34.3183 53.8925C34.2592 54.2397 34.1702 54.589 34.0777 54.9516C33.9861 55.3101 33.8911 55.6818 33.8275 56.0556L34.3856 56.1506ZM34.6318 54.221C35.6296 54.0989 36.5674 53.8491 37.2497 53.1809L36.8535 52.7764C36.3087 53.3099 35.5285 53.5409 34.563 53.659L34.6318 54.221ZM37.2497 53.1809C38.0326 52.4141 38.463 51.4745 38.1849 50.385L37.6363 50.5251C37.849 51.3584 37.5431 52.1011 36.8535 52.7764L37.2497 53.1809ZM38.1849 50.385C38.058 49.888 37.7699 49.1238 36.8518 48.9739L36.7606 49.5327C37.3149 49.6232 37.5177 50.0607 37.6363 50.5251L38.1849 50.385ZM36.894 48.9842C36.6921 48.9183 36.5079 48.8801 36.3153 48.8801C36.1228 48.8801 35.9386 48.9183 35.7366 48.9842L35.9123 49.5224C36.0785 49.4682 36.2011 49.4463 36.3153 49.4463C36.4296 49.4463 36.5521 49.4682 36.7183 49.5224L36.894 48.9842ZM35.7366 48.9842C35.3008 49.1265 35.0149 49.4095 34.8901 49.5318L35.2863 49.9363C35.4069 49.8181 35.6119 49.6205 35.9123 49.5224L35.7366 48.9842ZM34.8726 49.5506C34.2204 50.317 33.961 51.0856 33.7158 51.8059L34.2518 51.9883C34.4975 51.2665 34.7289 50.593 35.3038 49.9175L34.8726 49.5506ZM33.7158 51.8059L33.3477 52.8874L33.8837 53.0699L34.2518 51.9883L33.7158 51.8059ZM33.6157 52.9787C33.5813 52.6977 33.5815 52.6976 33.5818 52.6976C33.5819 52.6976 33.5821 52.6976 33.5823 52.6976C33.5826 52.6975 33.5829 52.6975 33.5831 52.6974C33.5837 52.6974 33.5842 52.6973 33.5846 52.6973C33.5855 52.6972 33.5861 52.6971 33.5865 52.6971C33.5873 52.697 33.5871 52.697 33.5859 52.6971C33.5836 52.6973 33.5772 52.6976 33.5668 52.6977C33.546 52.6978 33.5089 52.697 33.4547 52.6914C33.3462 52.6803 33.1689 52.6505 32.9167 52.5729C32.4118 52.4175 31.6083 52.0708 30.46 51.3014L30.1449 51.7718C31.3281 52.5646 32.1813 52.9389 32.7501 53.114C33.0348 53.2016 33.2486 53.2394 33.397 53.2546C33.4713 53.2622 33.529 53.2642 33.5711 53.2638C33.5921 53.2637 33.6091 53.263 33.6222 53.2621C33.6288 53.2617 33.6344 53.2612 33.6391 53.2608C33.6414 53.2606 33.6434 53.2604 33.6453 53.2602C33.6462 53.2601 33.6471 53.26 33.6479 53.2599C33.6483 53.2599 33.6486 53.2598 33.649 53.2598C33.6492 53.2597 33.6495 53.2597 33.6496 53.2597C33.6498 53.2597 33.6501 53.2596 33.6157 52.9787ZM30.4625 51.3031C29.2614 50.4797 28.9436 49.9298 28.5372 49.5318L28.141 49.9363C28.4708 50.2592 28.8893 50.9111 30.1424 51.7701L30.4625 51.3031ZM28.5638 49.9061C28.9035 49.4627 29.3084 49.0544 29.6849 48.4398L29.2021 48.1441C28.8424 48.7312 28.511 49.044 28.1143 49.5619L28.5638 49.9061ZM29.7115 48.3832C29.8216 48.0597 29.9605 47.7719 30.0859 47.2804L29.5373 47.1404C29.4174 47.6103 29.3108 47.8032 29.1755 48.2007L29.7115 48.3832ZM30.0947 47.2104C30.0947 46.8688 30.1032 46.2944 29.8002 45.8494L29.3322 46.168C29.5201 46.444 29.5285 46.831 29.5285 47.2104H30.0947ZM29.8002 45.8494C29.549 45.4803 29.2629 45.0571 28.565 44.7837L28.3585 45.3109C28.8878 45.5182 29.0926 45.816 29.3322 46.168L29.8002 45.8494ZM28.5863 44.7931C28.2737 44.64 27.9638 44.644 27.7255 44.644V45.2102C27.9781 45.2102 28.159 45.2142 28.3373 45.3015L28.5863 44.7931ZM27.7255 44.644C27.4873 44.644 27.1773 44.64 26.8648 44.7931L27.1137 45.3015C27.2921 45.2142 27.473 45.2102 27.7255 45.2102V44.644ZM26.8648 44.7931C26.3239 45.0579 25.92 45.454 25.6508 45.8494L26.1189 46.168C26.3406 45.8423 26.6729 45.5174 27.1137 45.3015L26.8648 44.7931ZM25.6508 45.8494C25.3479 46.2944 25.3563 46.8688 25.3563 47.2104H25.9225C25.9225 46.831 25.931 46.444 26.1189 46.168L25.6508 45.8494ZM25.3563 47.2104C25.3563 47.6387 25.503 48.0538 25.7736 48.4512L26.2416 48.1326C26.0213 47.8091 25.9225 47.5031 25.9225 47.2104H25.3563ZM25.7455 48.399C26.0093 49.0448 26.4087 49.5687 26.9444 49.9622L27.2795 49.5059C26.8335 49.1783 26.4967 48.7408 26.2696 48.1849L25.7455 48.399ZM26.9139 49.5318C26.5074 49.9298 26.1897 50.4797 24.9885 51.3031L25.3086 51.7701C26.5617 50.9111 26.9803 50.2592 27.31 49.9363L26.9139 49.5318ZM24.9938 51.2996C23.9075 52.0088 23.1015 52.3577 22.5758 52.5293C22.313 52.6151 22.12 52.6566 21.9969 52.6767C21.9352 52.6868 21.891 52.6915 21.8641 52.6937C21.8507 52.6948 21.8416 52.6953 21.8368 52.6955C21.8344 52.6956 21.8331 52.6956 21.8328 52.6956C21.8327 52.6956 21.8329 52.6956 21.8333 52.6956C21.8335 52.6956 21.8338 52.6956 21.8341 52.6956C21.8343 52.6956 21.8345 52.6956 21.8347 52.6956C21.8348 52.6956 21.835 52.6956 21.835 52.6956C21.8352 52.6956 21.8354 52.6956 21.8354 52.9787C21.8354 53.2617 21.8356 53.2617 21.8358 53.2617C21.8358 53.2617 21.836 53.2617 21.8362 53.2617C21.8364 53.2617 21.8367 53.2617 21.837 53.2617C21.8376 53.2617 21.8383 53.2617 21.8391 53.2617C21.8406 53.2617 21.8423 53.2617 21.8444 53.2616C21.8485 53.2616 21.8536 53.2614 21.8599 53.2612C21.8723 53.2606 21.8891 53.2597 21.9102 53.258C21.9523 53.2545 22.0116 53.248 22.0881 53.2355C22.241 53.2106 22.4622 53.162 22.7515 53.0675C23.3303 52.8786 24.1809 52.5064 25.3033 51.7736L24.9938 51.2996ZM22.1034 52.8874L21.7352 51.8059L21.1993 51.9883L21.5674 53.0699L22.1034 52.8874ZM21.7352 51.8059C21.4901 51.0856 21.2307 50.317 20.5784 49.5506L20.1472 49.9175C20.7221 50.593 20.9536 51.2665 21.1993 51.9883L21.7352 51.8059ZM20.5609 49.5318C20.4361 49.4095 20.1503 49.1265 19.7144 48.9842L19.5387 49.5224C19.8391 49.6205 20.0442 49.8181 20.1648 49.9363L20.5609 49.5318ZM19.7144 48.9842C19.3056 48.8508 18.8553 48.8351 18.5204 48.9991L18.7694 49.5076C18.9253 49.4312 19.2112 49.4155 19.5387 49.5224L19.7144 48.9842ZM18.557 48.9842C17.6854 49.2687 17.4007 49.9871 17.2725 50.3638L17.8085 50.5463C17.9257 50.202 18.1318 49.7186 18.7327 49.5224L18.557 48.9842ZM17.2597 50.4192C17.1239 51.4827 17.536 52.4008 18.1839 53.1621L18.6151 52.7952C18.0358 52.1145 17.7116 51.3501 17.8213 50.4909L17.2597 50.4192ZM18.2205 53.198C19.014 53.8456 19.9318 54.0969 20.8145 54.2204L20.8929 53.6597C20.0577 53.5428 19.2574 53.3135 18.5784 52.7593L18.2205 53.198ZM35.3503 52.2445C35.4778 51.9322 35.593 51.6212 35.7391 51.3348C35.8845 51.0501 36.0441 50.8252 36.2375 50.6832L35.9023 50.2269C35.6048 50.4454 35.3963 50.7613 35.2349 51.0774C35.0743 51.3919 34.944 51.7419 34.8261 52.0304L35.3503 52.2445ZM36.268 50.6573C36.2945 50.6314 36.3165 50.6222 36.3265 50.619C36.3319 50.6172 36.3346 50.6169 36.3335 50.6171C36.3329 50.6172 36.3312 50.6174 36.3283 50.6176C36.3268 50.6177 36.325 50.6178 36.3229 50.6178C36.3218 50.6179 36.3206 50.6179 36.3194 50.6179C36.3187 50.6179 36.3181 50.6179 36.3174 50.6179C36.3171 50.6179 36.3167 50.6179 36.3164 50.618C36.3162 50.618 36.316 50.618 36.3159 50.618C36.3158 50.618 36.3156 50.618 36.3156 50.618C36.3155 50.618 36.3153 50.618 36.3153 50.3349C36.3153 50.0518 36.3152 50.0518 36.3151 50.0518C36.315 50.0518 36.3149 50.0518 36.3148 50.0518C36.3146 50.0518 36.3144 50.0518 36.3142 50.0518C36.3138 50.0518 36.3135 50.0518 36.3131 50.0518C36.3123 50.0518 36.3114 50.0518 36.3106 50.0518C36.3088 50.0519 36.307 50.0519 36.305 50.052C36.301 50.0521 36.2964 50.0523 36.2914 50.0526C36.2813 50.0533 36.269 50.0544 36.255 50.0564C36.227 50.0603 36.1914 50.0675 36.1508 50.0808C36.0687 50.1076 35.9681 50.1586 35.8718 50.2528L36.268 50.6573ZM36.3153 50.618H36.5608V50.0518H36.3153V50.618ZM36.5608 50.618C36.5134 50.618 36.501 50.589 36.5256 50.6191C36.5557 50.656 36.6039 50.7393 36.6609 50.9068L37.1969 50.7243C37.1312 50.5313 37.0566 50.3743 36.9641 50.2609C36.866 50.1408 36.7308 50.0518 36.5608 50.0518V50.618ZM36.6546 50.8856C36.6979 51.0554 36.6801 51.2951 36.5872 51.5421C36.4953 51.7865 36.3408 52.0079 36.1478 52.1496L36.4829 52.6059C36.7807 52.3872 36.9944 52.0678 37.1171 51.7414C37.239 51.4175 37.2825 51.0565 37.2032 50.7455L36.6546 50.8856ZM36.1606 52.1408C35.8127 52.3679 35.3511 52.5928 34.8982 52.7037L35.0328 53.2536C35.5616 53.1242 36.0817 52.8684 36.4701 52.6148L36.1606 52.1408ZM35.2486 52.9787C35.2486 52.603 35.2541 52.4351 35.3403 52.2662L34.8361 52.0087C34.6769 52.3205 34.6824 52.6332 34.6824 52.9787H35.2486ZM27.1873 46.5714C27.3137 46.4476 27.4216 46.3428 27.525 46.2669C27.631 46.189 27.6933 46.1716 27.7255 46.1716V45.6054C27.5123 45.6054 27.3292 45.7082 27.1898 45.8106C27.0478 45.9149 26.9102 46.0504 26.7912 46.1669L27.1873 46.5714ZM27.7255 46.1716C27.8521 46.1716 28.0191 46.222 28.2278 46.5285L28.6958 46.2099C28.4136 45.7954 28.0898 45.6054 27.7255 45.6054V46.1716ZM28.2278 46.5285C28.3746 46.7441 28.3312 47.084 28.087 47.5624L28.5912 47.8198C28.8378 47.3368 29.0399 46.7153 28.6958 46.2099L28.2278 46.5285ZM28.0711 47.5999C27.9644 47.9133 27.7453 48.2369 27.5275 48.4502L27.9236 48.8547C28.1966 48.5873 28.4683 48.1899 28.6071 47.7823L28.0711 47.5999ZM27.9595 48.4932C27.8403 48.318 27.6907 48.1298 27.603 48.0072C27.5029 47.8671 27.4286 47.7427 27.38 47.5999L26.844 47.7823C26.9181 48 27.0278 48.176 27.1424 48.3364C27.2695 48.5142 27.3653 48.6264 27.4915 48.8118L27.9595 48.4932ZM27.346 47.5318C27.1398 47.2289 27.0566 46.8599 27.2414 46.4979L26.7371 46.2405C26.4311 46.8398 26.5933 47.4323 26.878 47.8504L27.346 47.5318ZM18.928 50.5752C18.928 50.5092 18.9426 50.4855 18.9561 50.4689C18.9783 50.4417 19.0259 50.4034 19.1375 50.3488L18.8885 49.8403C18.7547 49.9058 18.6182 49.9877 18.5177 50.1107C18.4085 50.2443 18.3618 50.4008 18.3618 50.5752H18.928ZM19.013 50.3776H19.2584V49.8114H19.013V50.3776ZM19.2584 50.0945C19.0604 50.2968 19.0604 50.2968 19.0605 50.2969C19.0605 50.2969 19.0605 50.2969 19.0606 50.297C19.0606 50.297 19.0607 50.2971 19.0608 50.2972C19.0609 50.2973 19.0611 50.2975 19.0613 50.2976C19.0616 50.298 19.062 50.2983 19.0624 50.2987C19.0631 50.2995 19.0641 50.3003 19.0651 50.3013C19.0672 50.3033 19.0698 50.3058 19.073 50.3086C19.0792 50.3143 19.0875 50.3217 19.0975 50.3301C19.1174 50.3468 19.1457 50.369 19.1804 50.3916C19.2408 50.4311 19.3591 50.4978 19.5039 50.4978V49.9316C19.5259 49.9316 19.5215 49.9382 19.4899 49.9176C19.4785 49.9102 19.4685 49.9023 19.4615 49.8965C19.4582 49.8937 19.4559 49.8916 19.4549 49.8907C19.4545 49.8903 19.4543 49.8902 19.4546 49.8904C19.4547 49.8905 19.4549 49.8907 19.4552 49.891C19.4554 49.8912 19.4556 49.8914 19.4558 49.8916C19.4559 49.8917 19.456 49.8918 19.4561 49.8919C19.4562 49.892 19.4563 49.892 19.4563 49.8921C19.4563 49.8921 19.4564 49.8922 19.4564 49.8922C19.4565 49.8922 19.4565 49.8923 19.2584 50.0945ZM19.3058 50.4169C19.4615 50.5694 19.63 50.8126 19.7939 51.1044C19.9557 51.3924 20.1041 51.7119 20.2235 52.0041L20.7476 51.7901C20.6215 51.4814 20.4632 51.14 20.2875 50.8272C20.114 50.5181 19.9144 50.2205 19.7019 50.0124L19.3058 50.4169ZM20.2334 52.0258C20.2784 52.1138 20.3025 52.2042 20.334 52.3276C20.3638 52.4445 20.4011 52.5945 20.4789 52.7469L20.9831 52.4894C20.9382 52.4014 20.9141 52.3111 20.8826 52.1876C20.8527 52.0708 20.8155 51.9207 20.7377 51.7684L20.2334 52.0258ZM20.7983 52.3432C20.2934 52.2196 19.8828 52.1124 19.5792 51.815L19.1831 52.2195C19.6157 52.6432 20.1868 52.7764 20.6637 52.8931L20.7983 52.3432ZM19.5056 51.763C19.1518 51.5898 18.928 51.121 18.928 50.5752H18.3618C18.3618 51.2311 18.6288 51.9641 19.2567 52.2715L19.5056 51.763Z" fill="#00B6F0" mask="url(#path-4-inside-2_2875_111)"/>
<path d="M17.8593 73.5326H37.7688V75.7015H17.8593V73.5326Z" fill="white" stroke="#00B6F0" stroke-width="0.32645"/>
<path d="M19.2715 78.5209H36.3508V80.6898H19.2715V78.5209Z" fill="white" stroke="#00B6F0" stroke-width="0.32645"/>
<path d="M19.2715 76.0282H36.3508V78.1971H19.2715V76.0282Z" fill="white" stroke="#00B6F0" stroke-width="0.32645"/>
<path d="M19.7663 80.1368V78.8607L37.2813 74.2179V75.365L19.7663 80.1368Z" stroke="#00B6F0" stroke-width="1.3058"/>
<path d="M21.1784 84.1384H34.4482V85.3279H21.1784V84.1384Z" stroke="#00B6F0" stroke-width="1.3058"/>
<path d="M20.6886 81.1548H34.9377V83.3237H20.6886V81.1548Z" fill="white" stroke="#00B6F0" stroke-width="0.32645"/>
<path d="M20.6886 85.896V83.6057L36.3528 78.5829V80.8731L20.6886 85.896Z" fill="white" stroke="#00B6F0" stroke-width="0.32645"/>
<path d="M52.3936 11.9374L13.28 26.8534L24.237 31.7891L4.29986e-05 55.1269L41.236 35.6924L31.2983 31.2158L52.3936 11.9374Z" fill="#F59331"/>
<path d="M65.8054 30.2023C66.249 30.124 66.7361 30.0718 67.2668 30.0457C67.7974 30.0196 68.2497 30.0066 68.6238 30.0066C69.0065 30.0066 69.4328 30.0196 69.9025 30.0457C70.3722 30.0718 70.8289 30.124 71.2726 30.2023L72.8122 36.5828C72.847 36.7394 72.9036 37.0091 72.9819 37.3918C73.0689 37.7746 73.1645 38.2095 73.2689 38.6966C73.3733 39.1751 73.469 39.6535 73.556 40.1319C73.6517 40.6017 73.7256 41.0018 73.7778 41.3324H73.9605C74.0127 41.0018 74.0866 40.6017 74.1823 40.1319C74.278 39.6535 74.378 39.1751 74.4824 38.6966C74.5868 38.2095 74.6781 37.7746 74.7564 37.3918C74.8434 37.0091 74.9043 36.7394 74.9391 36.5828L76.4788 30.2023C76.9224 30.124 77.3791 30.0718 77.8488 30.0457C78.3186 30.0196 78.7405 30.0066 79.1145 30.0066C79.4973 30.0066 79.9539 30.0196 80.4846 30.0457C81.0152 30.0718 81.498 30.124 81.9329 30.2023L83.316 47.9478C83.0203 48.0261 82.6767 48.0783 82.2852 48.1044C81.8938 48.1392 81.5328 48.1566 81.2022 48.1566C80.8891 48.1566 80.5803 48.1479 80.2758 48.1305C79.98 48.1131 79.6799 48.0783 79.3755 48.0261L78.984 40.7583C78.9492 40.1406 78.9144 39.4752 78.8796 38.7619C78.8535 38.0486 78.8275 37.344 78.8014 36.6481C78.784 35.9522 78.7753 35.3215 78.7753 34.7561H78.5926L76.0221 45.3773C75.7089 45.4295 75.3436 45.4687 74.926 45.4947C74.5085 45.5121 74.1519 45.5208 73.8561 45.5208C73.5951 45.5208 73.2515 45.5121 72.8253 45.4947C72.399 45.4687 72.0293 45.4295 71.7162 45.3773L69.1457 34.7561H68.9761C68.9761 35.3215 68.963 35.9522 68.9369 36.6481C68.9195 37.344 68.8934 38.0486 68.8586 38.7619C68.8325 39.4752 68.8021 40.1406 68.7673 40.7583L68.3628 48.0261C68.067 48.0783 67.7669 48.1131 67.4625 48.1305C67.158 48.1479 66.8492 48.1566 66.5361 48.1566C66.2055 48.1566 65.8445 48.1392 65.4531 48.1044C65.0703 48.0783 64.7267 48.0261 64.4223 47.9478L65.8054 30.2023ZM94.616 47.6477C94.3028 48.8307 93.907 49.8789 93.4286 50.7923C92.9501 51.7057 92.2977 52.419 91.4713 52.9322C90.6537 53.4541 89.5663 53.7151 88.2093 53.7151C87.6874 53.7151 87.1176 53.6542 86.5 53.5324C85.8824 53.4193 85.3952 53.3019 85.0386 53.1801C84.9951 52.7191 85.0516 52.1972 85.2082 51.6143C85.3735 51.0315 85.591 50.5835 85.8606 50.2704C86.139 50.3574 86.4913 50.4444 86.9175 50.5313C87.3525 50.627 87.7831 50.6749 88.2093 50.6749C88.6529 50.6749 89.04 50.5879 89.3706 50.4139C89.7098 50.2486 89.9926 50.0051 90.2187 49.6832C90.4536 49.3701 90.6363 48.996 90.7667 48.5611L90.8711 48.1827C90.1665 48.174 89.5794 48.0522 89.1096 47.8173C88.6486 47.5738 88.3311 47.1475 88.1571 46.5386L85.1169 35.2911C85.5344 35.0997 85.9737 34.9605 86.4347 34.8735C86.8958 34.7865 87.2959 34.743 87.6352 34.743C88.131 34.743 88.5399 34.8648 88.8617 35.1084C89.1923 35.352 89.4402 35.813 89.6055 36.4915L90.832 41.5151C90.9103 41.8021 90.9842 42.1631 91.0538 42.5981C91.1234 43.0243 91.1886 43.4505 91.2495 43.8768C91.3191 44.2943 91.3713 44.6466 91.4061 44.9337C91.4235 45.0555 91.4974 45.1164 91.6279 45.1164L93.8983 34.991C94.1245 34.9301 94.3854 34.8866 94.6812 34.8605C94.977 34.8344 95.251 34.8213 95.5032 34.8213C95.8599 34.8213 96.2209 34.8431 96.5862 34.8866C96.9516 34.9214 97.3169 34.9997 97.6823 35.1214L97.8389 35.3955L94.616 47.6477Z" fill="#F59331"/>
<path d="M99.6686 48V29.0208H107.509C108.93 29.0208 110.156 29.2772 111.188 29.79C112.226 30.2966 113.026 31.0256 113.588 31.977C114.15 32.9223 114.431 34.0436 114.431 35.341C114.431 36.657 114.144 37.7752 113.569 38.6958C112.995 39.6101 112.179 40.3082 111.123 40.7901C110.066 41.2659 108.815 41.5037 107.37 41.5037H102.412V37.8895H106.517C107.209 37.8895 107.787 37.7999 108.25 37.6208C108.719 37.4354 109.075 37.1574 109.316 36.7867C109.557 36.4098 109.677 35.928 109.677 35.341C109.677 34.7541 109.557 34.2691 109.316 33.8861C109.075 33.4969 108.719 33.2065 108.25 33.015C107.78 32.8173 107.203 32.7184 106.517 32.7184H104.256V48H99.6686ZM110.354 39.3259L115.08 48H110.076L105.442 39.3259H110.354ZM123.582 48.2687C122.093 48.2687 120.808 47.9753 119.727 47.3884C118.652 46.7953 117.824 45.952 117.243 44.8584C116.668 43.7587 116.381 42.452 116.381 40.9384C116.381 39.468 116.671 38.183 117.252 37.0833C117.833 35.9774 118.652 35.1186 119.708 34.507C120.764 33.8892 122.009 33.5803 123.443 33.5803C124.456 33.5803 125.383 33.7378 126.223 34.0529C127.063 34.368 127.789 34.8344 128.401 35.4522C129.012 36.0701 129.488 36.8331 129.828 37.7412C130.168 38.6432 130.337 39.6781 130.337 40.8457V41.9763H117.966V39.3445H126.121C126.115 38.8626 126 38.4332 125.778 38.0563C125.556 37.6795 125.25 37.386 124.861 37.1759C124.477 36.9597 124.036 36.8516 123.535 36.8516C123.029 36.8516 122.575 36.9659 122.173 37.1945C121.771 37.4169 121.453 37.7227 121.219 38.1119C120.984 38.495 120.86 38.9305 120.848 39.4186V42.0968C120.848 42.6776 120.962 43.1872 121.191 43.6259C121.419 44.0584 121.744 44.3951 122.164 44.636C122.584 44.877 123.084 44.9974 123.665 44.9974C124.067 44.9974 124.431 44.9418 124.759 44.8306C125.086 44.7194 125.367 44.5557 125.602 44.3395C125.837 44.1232 126.013 43.8576 126.13 43.5425L130.291 43.663C130.118 44.5959 129.738 45.4083 129.151 46.1002C128.571 46.786 127.808 47.3204 126.862 47.7035C125.917 48.0803 124.823 48.2687 123.582 48.2687ZM139.557 48.2687C138.056 48.2687 136.768 47.9598 135.693 47.342C134.624 46.7242 133.803 45.8655 133.228 44.7658C132.653 43.6599 132.366 42.381 132.366 40.9291C132.366 39.4711 132.653 38.1922 133.228 37.0925C133.809 35.9866 134.633 35.1248 135.702 34.507C136.777 33.8892 138.059 33.5803 139.548 33.5803C140.864 33.5803 142.01 33.8181 142.986 34.2938C143.969 34.7696 144.735 35.443 145.285 36.3141C145.841 37.179 146.134 38.1953 146.165 39.363H141.93C141.843 38.634 141.596 38.0625 141.188 37.6486C140.787 37.2346 140.262 37.0277 139.613 37.0277C139.088 37.0277 138.628 37.1759 138.232 37.4725C137.837 37.7629 137.528 38.1953 137.306 38.7699C137.089 39.3383 136.981 40.0426 136.981 40.8828C136.981 41.723 137.089 42.4335 137.306 43.0143C137.528 43.5888 137.837 44.0244 138.232 44.3209C138.628 44.6113 139.088 44.7565 139.613 44.7565C140.033 44.7565 140.404 44.6669 140.725 44.4877C141.053 44.3086 141.321 44.046 141.531 43.7C141.741 43.3479 141.874 42.9216 141.93 42.4212H146.165C146.122 43.595 145.828 44.6206 145.285 45.4979C144.747 46.3752 143.99 47.0578 143.014 47.5459C142.044 48.0278 140.892 48.2687 139.557 48.2687ZM153.277 39.882V48H148.745V29.0208H153.128V36.379H153.286C153.607 35.5017 154.132 34.8159 154.861 34.3216C155.597 33.8274 156.495 33.5803 157.558 33.5803C158.559 33.5803 159.43 33.8027 160.171 34.2475C160.913 34.6862 161.487 35.3071 161.895 36.1102C162.309 36.9134 162.513 37.8524 162.507 38.9274V48H157.975V39.8171C157.981 39.0263 157.784 38.4085 157.382 37.9636C156.98 37.5188 156.415 37.2964 155.686 37.2964C155.21 37.2964 154.79 37.4014 154.426 37.6115C154.067 37.8154 153.786 38.1088 153.582 38.4919C153.385 38.8749 153.283 39.3383 153.277 39.882ZM169.609 48.2409C168.701 48.2409 167.895 48.0896 167.191 47.7869C166.492 47.4779 165.939 47.0146 165.532 46.3968C165.13 45.7728 164.929 44.9913 164.929 44.0522C164.929 43.2614 165.068 42.5941 165.346 42.0505C165.624 41.5068 166.007 41.0651 166.495 40.7253C166.984 40.3855 167.546 40.1291 168.182 39.9561C168.818 39.7769 169.498 39.6565 170.221 39.5947C171.03 39.5205 171.682 39.4433 172.176 39.363C172.67 39.2765 173.029 39.156 173.251 39.0016C173.48 38.8409 173.594 38.6154 173.594 38.3251V38.2787C173.594 37.803 173.43 37.4354 173.103 37.1759C172.776 36.9165 172.334 36.7867 171.778 36.7867C171.178 36.7867 170.697 36.9165 170.332 37.1759C169.968 37.4354 169.736 37.7937 169.637 38.2509L165.458 38.1027C165.581 37.2377 165.899 36.4655 166.412 35.7859C166.931 35.1001 167.642 34.5626 168.544 34.1734C169.452 33.778 170.542 33.5803 171.815 33.5803C172.723 33.5803 173.56 33.6884 174.326 33.9046C175.092 34.1147 175.76 34.4236 176.328 34.8313C176.896 35.2329 177.335 35.7272 177.644 36.3141C177.959 36.901 178.117 37.5713 178.117 38.3251V48H173.854V46.0168H173.742C173.489 46.4987 173.165 46.9065 172.769 47.2401C172.38 47.5737 171.92 47.8239 171.389 47.9907C170.863 48.1575 170.27 48.2409 169.609 48.2409ZM171.009 45.2754C171.497 45.2754 171.935 45.1766 172.325 44.9789C172.72 44.7812 173.035 44.5094 173.27 44.1634C173.505 43.8112 173.622 43.4035 173.622 42.9401V41.5871C173.492 41.6551 173.335 41.7169 173.149 41.7725C172.97 41.8281 172.772 41.8806 172.556 41.93C172.34 41.9794 172.118 42.0227 171.889 42.0597C171.66 42.0968 171.441 42.1308 171.231 42.1617C170.805 42.2296 170.44 42.3347 170.137 42.4768C169.841 42.6189 169.612 42.8042 169.452 43.0328C169.297 43.2552 169.22 43.5209 169.22 43.8298C169.22 44.2993 169.387 44.6576 169.72 44.9048C170.06 45.1519 170.49 45.2754 171.009 45.2754ZM181.148 48V33.7656H185.55V36.3604H185.699C185.958 35.4214 186.381 34.7232 186.968 34.266C187.555 33.8027 188.238 33.571 189.016 33.571C189.226 33.571 189.442 33.5864 189.665 33.6173C189.887 33.6421 190.094 33.6822 190.286 33.7378V37.6764C190.07 37.6022 189.785 37.5435 189.433 37.5003C189.087 37.457 188.778 37.4354 188.506 37.4354C187.969 37.4354 187.484 37.5559 187.052 37.7968C186.625 38.0316 186.289 38.3621 186.041 38.7884C185.8 39.2085 185.68 39.7028 185.68 40.2712V48H181.148ZM199.029 53.6344C197.676 53.6344 196.517 53.446 195.553 53.0691C194.59 52.6923 193.833 52.1764 193.283 51.5215C192.733 50.8666 192.403 50.1253 192.291 49.2974L196.582 49.0565C196.662 49.3468 196.811 49.6001 197.027 49.8164C197.249 50.0326 197.537 50.1994 197.889 50.3168C198.247 50.4342 198.667 50.4929 199.149 50.4929C199.909 50.4929 200.536 50.3075 201.03 49.9368C201.531 49.5723 201.781 48.9329 201.781 48.0185V45.5164H201.623C201.444 45.955 201.172 46.3474 200.808 46.6933C200.443 47.0393 199.989 47.3111 199.446 47.5088C198.908 47.7065 198.29 47.8054 197.592 47.8054C196.554 47.8054 195.603 47.5644 194.738 47.0825C193.879 46.5945 193.19 45.8407 192.671 44.8214C192.158 43.7958 191.902 42.4768 191.902 40.8643C191.902 39.2024 192.168 37.8339 192.699 36.7589C193.23 35.6777 193.925 34.8777 194.784 34.3587C195.649 33.8398 196.579 33.5803 197.574 33.5803C198.321 33.5803 198.961 33.71 199.492 33.9695C200.029 34.2228 200.471 34.5502 200.817 34.9518C201.163 35.3534 201.426 35.7704 201.605 36.2029H201.735V33.7656H206.248V48.0556C206.248 49.2603 205.945 50.2766 205.339 51.1045C204.734 51.9324 203.888 52.5595 202.8 52.9857C201.713 53.4182 200.456 53.6344 199.029 53.6344ZM199.168 44.5063C199.717 44.5063 200.187 44.3611 200.576 44.0707C200.965 43.7803 201.265 43.3633 201.475 42.8196C201.685 42.276 201.79 41.6242 201.79 40.8643C201.79 40.092 201.685 39.4279 201.475 38.8718C201.271 38.3096 200.972 37.8772 200.576 37.5744C200.187 37.2717 199.717 37.1203 199.168 37.1203C198.605 37.1203 198.13 37.2748 197.74 37.5837C197.351 37.8926 197.055 38.3282 196.851 38.8904C196.653 39.4464 196.554 40.1044 196.554 40.8643C196.554 41.6242 196.656 42.276 196.86 42.8196C197.064 43.3633 197.357 43.7803 197.74 44.0707C198.13 44.3611 198.605 44.5063 199.168 44.5063ZM216.052 48.2687C214.563 48.2687 213.278 47.9753 212.196 47.3884C211.121 46.7953 210.294 45.952 209.713 44.8584C209.138 43.7587 208.851 42.452 208.851 40.9384C208.851 39.468 209.141 38.183 209.722 37.0833C210.303 35.9774 211.121 35.1186 212.178 34.507C213.234 33.8892 214.479 33.5803 215.913 33.5803C216.926 33.5803 217.852 33.7378 218.693 34.0529C219.533 34.368 220.259 34.8344 220.87 35.4522C221.482 36.0701 221.958 36.8331 222.298 37.7412C222.637 38.6432 222.807 39.6781 222.807 40.8457V41.9763H210.436V39.3445H218.591C218.585 38.8626 218.47 38.4332 218.248 38.0563C218.025 37.6795 217.72 37.386 217.33 37.1759C216.947 36.9597 216.506 36.8516 216.005 36.8516C215.499 36.8516 215.044 36.9659 214.643 37.1945C214.241 37.4169 213.923 37.7227 213.688 38.1119C213.454 38.495 213.33 38.9305 213.318 39.4186V42.0968C213.318 42.6776 213.432 43.1872 213.661 43.6259C213.889 44.0584 214.214 44.3951 214.634 44.636C215.054 44.877 215.554 44.9974 216.135 44.9974C216.537 44.9974 216.901 44.9418 217.228 44.8306C217.556 44.7194 217.837 44.5557 218.072 44.3395C218.307 44.1232 218.483 43.8576 218.6 43.5425L222.761 43.663C222.588 44.5959 222.208 45.4083 221.621 46.1002C221.04 46.786 220.277 47.3204 219.332 47.7035C218.387 48.0803 217.293 48.2687 216.052 48.2687ZM227.931 48.2687C227.264 48.2687 226.692 48.034 226.217 47.5644C225.747 47.0949 225.516 46.5265 225.522 45.8593C225.516 45.2044 225.747 44.6453 226.217 44.1819C226.692 43.7124 227.264 43.4776 227.931 43.4776C228.561 43.4776 229.117 43.7124 229.599 44.1819C230.087 44.6453 230.334 45.2044 230.341 45.8593C230.334 46.3041 230.217 46.7088 229.989 47.0733C229.766 47.4378 229.473 47.7282 229.108 47.9444C228.75 48.1606 228.357 48.2687 227.931 48.2687ZM249.748 29.0208V48H245.855L238.303 37.0462H238.182V48H233.595V29.0208H237.543L245.012 39.9561H245.17V29.0208H249.748ZM259.528 53.6344C258.175 53.6344 257.017 53.446 256.053 53.0691C255.089 52.6923 254.333 52.1764 253.783 51.5215C253.233 50.8666 252.902 50.1253 252.791 49.2974L257.082 49.0565C257.162 49.3468 257.31 49.6001 257.527 49.8164C257.749 50.0326 258.036 50.1994 258.388 50.3168C258.747 50.4342 259.167 50.4929 259.649 50.4929C260.409 50.4929 261.036 50.3075 261.53 49.9368C262.03 49.5723 262.281 48.9329 262.281 48.0185V45.5164H262.123C261.944 45.955 261.672 46.3474 261.308 46.6933C260.943 47.0393 260.489 47.3111 259.945 47.5088C259.408 47.7065 258.79 47.8054 258.092 47.8054C257.054 47.8054 256.103 47.5644 255.238 47.0825C254.379 46.5945 253.69 45.8407 253.171 44.8214C252.658 43.7958 252.402 42.4768 252.402 40.8643C252.402 39.2024 252.668 37.8339 253.199 36.7589C253.73 35.6777 254.425 34.8777 255.284 34.3587C256.149 33.8398 257.079 33.5803 258.073 33.5803C258.821 33.5803 259.46 33.71 259.992 33.9695C260.529 34.2228 260.971 34.5502 261.317 34.9518C261.663 35.3534 261.925 35.7704 262.105 36.2029H262.234V33.7656H266.747V48.0556C266.747 49.2603 266.445 50.2766 265.839 51.1045C265.234 51.9324 264.387 52.5595 263.3 52.9857C262.213 53.4182 260.955 53.6344 259.528 53.6344ZM259.667 44.5063C260.217 44.5063 260.687 44.3611 261.076 44.0707C261.465 43.7803 261.765 43.3633 261.975 42.8196C262.185 42.276 262.29 41.6242 262.29 40.8643C262.29 40.092 262.185 39.4279 261.975 38.8718C261.771 38.3096 261.471 37.8772 261.076 37.5744C260.687 37.2717 260.217 37.1203 259.667 37.1203C259.105 37.1203 258.629 37.2748 258.24 37.5837C257.851 37.8926 257.554 38.3282 257.351 38.8904C257.153 39.4464 257.054 40.1044 257.054 40.8643C257.054 41.6242 257.156 42.276 257.36 42.8196C257.564 43.3633 257.857 43.7803 258.24 44.0707C258.629 44.3611 259.105 44.5063 259.667 44.5063Z" fill="#00B6F0"/>
<path d="M63.6672 69L65.5577 57.6125H72.4303L72.2301 58.8358H66.7365L66.0915 62.6835H71.2293L71.0291 63.9068H65.8914L65.2464 67.7767H70.8289L70.6287 69H63.6672ZM75.5993 69.2002C75.0581 69.2002 74.5836 69.0982 74.1758 68.8944C73.7681 68.6868 73.466 68.3884 73.2695 67.9991C73.0731 67.6062 73.0193 67.1317 73.1083 66.5757C73.1935 66.0864 73.3585 65.6898 73.6031 65.3858C73.8478 65.0781 74.1443 64.8372 74.4928 64.663C74.8449 64.485 75.223 64.3534 75.6271 64.2682C76.0348 64.1792 76.4407 64.1106 76.8448 64.0624C77.3712 63.9957 77.7993 63.9438 78.1292 63.9068C78.4591 63.8697 78.7075 63.8085 78.8743 63.7233C79.0411 63.638 79.1431 63.4916 79.1801 63.284V63.2395C79.2691 62.6946 79.1968 62.2702 78.9633 61.9662C78.7297 61.6585 78.3127 61.5047 77.7122 61.5047C77.0894 61.5047 76.5686 61.6419 76.1498 61.9162C75.7309 62.1905 75.4214 62.4833 75.2212 62.7947L74.0646 62.3499C74.3686 61.8309 74.7319 61.4269 75.1545 61.1377C75.577 60.8449 76.02 60.641 76.4834 60.5261C76.9467 60.4075 77.3934 60.3482 77.8234 60.3482C78.0977 60.3482 78.4072 60.3815 78.752 60.4482C79.0967 60.5113 79.4192 60.6429 79.7195 60.843C80.0234 61.0432 80.2514 61.3453 80.4034 61.7494C80.5591 62.1534 80.5813 62.6946 80.4701 63.373L79.536 69H78.2237L78.4239 67.8435H78.3572C78.2386 68.0288 78.0569 68.2271 77.8123 68.4384C77.5713 68.6497 77.2655 68.8295 76.8948 68.9778C76.5279 69.126 76.096 69.2002 75.5993 69.2002ZM75.9774 68.0214C76.4963 68.0214 76.9504 67.9194 77.3397 67.7156C77.7326 67.5117 78.0477 67.2485 78.2849 66.926C78.5259 66.6035 78.676 66.2643 78.7353 65.9085L78.9355 64.7074C78.8687 64.7742 78.7372 64.8353 78.5407 64.8909C78.3442 64.9428 78.1218 64.9892 77.8734 65.0299C77.6288 65.067 77.3897 65.1004 77.1562 65.13C76.9263 65.156 76.741 65.1782 76.6001 65.1968C76.2517 65.2412 75.9199 65.3135 75.6048 65.4136C75.2935 65.51 75.0303 65.6564 74.8153 65.8529C74.604 66.0456 74.4724 66.3088 74.4205 66.6424C74.3427 67.0984 74.452 67.4431 74.7486 67.6766C75.0451 67.9065 75.4547 68.0214 75.9774 68.0214ZM89.3537 62.3721L88.1082 62.7057C88.0637 62.5056 87.9859 62.3128 87.8747 62.1275C87.7672 61.9384 87.6004 61.7846 87.3743 61.666C87.1518 61.5436 86.8479 61.4825 86.4624 61.4825C85.9397 61.4825 85.4856 61.6029 85.1001 61.8439C84.7146 62.0811 84.494 62.3832 84.4384 62.7502C84.3828 63.0727 84.4569 63.3303 84.6608 63.5231C84.8647 63.7159 85.2057 63.8734 85.6839 63.9957L86.9072 64.3071C87.6411 64.4962 88.1638 64.7797 88.4752 65.1578C88.7903 65.5322 88.8978 66.0197 88.7977 66.6202C88.7161 67.1095 88.503 67.5469 88.1583 67.9324C87.8135 68.3179 87.3724 68.6219 86.8349 68.8443C86.2974 69.0667 85.6987 69.1779 85.0389 69.1779C84.1604 69.1779 83.4672 68.9889 82.9594 68.6108C82.4515 68.229 82.1809 67.6766 82.1476 66.9538L83.4598 66.6424C83.4932 67.0984 83.6563 67.4431 83.9491 67.6766C84.2457 67.9065 84.6608 68.0214 85.1946 68.0214C85.8062 68.0214 86.3159 67.8916 86.7237 67.6322C87.1315 67.369 87.3631 67.0539 87.4187 66.6869C87.4743 66.3867 87.415 66.1364 87.2408 65.9363C87.0703 65.7361 86.7737 65.586 86.3512 65.4859L84.9944 65.1523C84.2382 64.9632 83.7082 64.6741 83.4042 64.2849C83.1039 63.8956 83.0039 63.4063 83.1039 62.8169C83.1855 62.335 83.3931 61.9088 83.7267 61.5381C84.064 61.1674 84.4866 60.8764 84.9944 60.6651C85.506 60.4538 86.062 60.3482 86.6625 60.3482C87.5077 60.3482 88.1397 60.5335 88.5586 60.9042C88.9775 61.2712 89.2425 61.7605 89.3537 62.3721ZM90.9561 72.2027C90.7337 72.2027 90.5372 72.1842 90.3667 72.1471C90.1999 72.1138 90.085 72.0804 90.022 72.047L90.5558 70.8905C90.8597 70.9721 91.1303 70.9962 91.3676 70.9628C91.6085 70.9331 91.8365 70.8164 92.0515 70.6125C92.2702 70.4123 92.4982 70.0972 92.7354 69.6672L93.1024 69L91.3898 60.4594H92.7576L93.9809 67.2874H94.0699L97.5618 60.4594H99.0408L93.803 70.2344C93.5583 70.6903 93.2896 71.0629 92.9967 71.352C92.7039 71.6411 92.387 71.8543 92.0459 71.9914C91.7049 72.1323 91.3416 72.2027 90.9561 72.2027ZM106.766 69.2002C106.225 69.2002 105.75 69.0982 105.343 68.8944C104.935 68.6868 104.633 68.3884 104.436 67.9991C104.24 67.6062 104.186 67.1317 104.275 66.5757C104.36 66.0864 104.525 65.6898 104.77 65.3858C105.015 65.0781 105.311 64.8372 105.66 64.663C106.012 64.485 106.39 64.3534 106.794 64.2682C107.202 64.1792 107.608 64.1106 108.012 64.0624C108.538 63.9957 108.966 63.9438 109.296 63.9068C109.626 63.8697 109.874 63.8085 110.041 63.7233C110.208 63.638 110.31 63.4916 110.347 63.284V63.2395C110.436 62.6946 110.364 62.2702 110.13 61.9662C109.897 61.6585 109.48 61.5047 108.879 61.5047C108.256 61.5047 107.735 61.6419 107.317 61.9162C106.898 62.1905 106.588 62.4833 106.388 62.7947L105.231 62.3499C105.535 61.8309 105.899 61.4269 106.321 61.1377C106.744 60.8449 107.187 60.641 107.65 60.5261C108.114 60.4075 108.56 60.3482 108.99 60.3482C109.265 60.3482 109.574 60.3815 109.919 60.4482C110.264 60.5113 110.586 60.6429 110.886 60.843C111.19 61.0432 111.418 61.3453 111.57 61.7494C111.726 62.1534 111.748 62.6946 111.637 63.373L110.703 69H109.391L109.591 67.8435H109.524C109.405 68.0288 109.224 68.2271 108.979 68.4384C108.738 68.6497 108.432 68.8295 108.062 68.9778C107.695 69.126 107.263 69.2002 106.766 69.2002ZM107.144 68.0214C107.663 68.0214 108.117 67.9194 108.506 67.7156C108.899 67.5117 109.214 67.2485 109.452 66.926C109.693 66.6035 109.843 66.2643 109.902 65.9085L110.102 64.7074C110.036 64.7742 109.904 64.8353 109.708 64.8909C109.511 64.9428 109.289 64.9892 109.04 65.0299C108.796 65.067 108.557 65.1004 108.323 65.13C108.093 65.156 107.908 65.1782 107.767 65.1968C107.419 65.2412 107.087 65.3135 106.772 65.4136C106.46 65.51 106.197 65.6564 105.982 65.8529C105.771 66.0456 105.639 66.3088 105.587 66.6424C105.509 67.0984 105.619 67.4431 105.915 67.6766C106.212 67.9065 106.622 68.0214 107.144 68.0214ZM115.516 63.8623L114.671 69H113.359L114.782 60.4594H116.05L115.828 61.7938H115.939C116.206 61.3601 116.567 61.0117 117.023 60.7485C117.479 60.4816 118.03 60.3482 118.675 60.3482C119.245 60.3482 119.727 60.4668 120.12 60.704C120.517 60.9376 120.797 61.2934 120.96 61.7716C121.127 62.2461 121.151 62.8466 121.032 63.5731L120.12 69H118.808L119.698 63.6621C119.809 62.9949 119.722 62.4722 119.436 62.0941C119.155 61.716 118.708 61.5269 118.096 61.5269C117.674 61.5269 117.283 61.6178 116.923 61.7994C116.567 61.981 116.265 62.2461 116.017 62.5945C115.772 62.943 115.605 63.3656 115.516 63.8623ZM125.993 69.1779C125.277 69.1779 124.677 68.9981 124.191 68.6386C123.706 68.2753 123.363 67.7638 123.163 67.1039C122.966 66.4404 122.942 65.6564 123.09 64.7519C123.242 63.8549 123.526 63.0764 123.941 62.4166C124.36 61.7568 124.873 61.2471 125.481 60.8875C126.089 60.5279 126.753 60.3482 127.472 60.3482C128.028 60.3482 128.452 60.4408 128.745 60.6262C129.042 60.8078 129.257 61.0154 129.39 61.2489C129.524 61.4788 129.626 61.6678 129.696 61.8161H129.807L130.508 57.6125H131.82L129.93 69H128.662L128.884 67.6878H128.729C128.606 67.8435 128.436 68.0399 128.217 68.2772C127.998 68.5107 127.709 68.7201 127.35 68.9055C126.994 69.0871 126.542 69.1779 125.993 69.1779ZM126.315 67.9991C126.842 67.9991 127.313 67.862 127.728 67.5877C128.147 67.3097 128.495 66.926 128.773 66.4367C129.051 65.9437 129.244 65.3747 129.351 64.7297C129.459 64.0921 129.455 63.5342 129.34 63.056C129.225 62.5741 129.005 62.1997 128.679 61.9329C128.352 61.6622 127.92 61.5269 127.383 61.5269C126.831 61.5269 126.351 61.6697 125.943 61.9551C125.535 62.2368 125.203 62.6205 124.948 63.1061C124.692 63.588 124.514 64.1292 124.414 64.7297C124.314 65.3376 124.312 65.8899 124.408 66.3867C124.505 66.8797 124.708 67.2726 125.02 67.5654C125.335 67.8546 125.767 67.9991 126.315 67.9991ZM137.43 69L138.853 60.4594H140.121L139.898 61.7494H139.987C140.21 61.3268 140.549 60.9839 141.005 60.7207C141.461 60.4575 141.945 60.3259 142.456 60.3259C142.556 60.3259 142.677 60.3278 142.818 60.3315C142.959 60.3315 143.068 60.337 143.146 60.3482L142.923 61.6826C142.879 61.6715 142.779 61.6548 142.623 61.6326C142.467 61.6066 142.301 61.5937 142.123 61.5937C141.707 61.5937 141.324 61.6808 140.972 61.855C140.619 62.0255 140.325 62.2628 140.088 62.5667C139.85 62.867 139.698 63.2099 139.632 63.5954L138.742 69H137.43ZM146.846 69.1779C146.026 69.1779 145.35 68.9963 144.816 68.633C144.282 68.266 143.91 67.7545 143.699 67.0984C143.487 66.4386 143.454 65.6712 143.598 64.7964C143.743 63.9216 144.03 63.1506 144.46 62.4833C144.89 61.8124 145.426 61.2897 146.067 60.9153C146.709 60.5372 147.413 60.3482 148.18 60.3482C148.625 60.3482 149.053 60.4223 149.465 60.5706C149.876 60.7189 150.232 60.9598 150.532 61.2934C150.832 61.6233 151.042 62.0607 151.161 62.6056C151.279 63.1506 151.272 63.8215 151.138 64.6185L151.049 65.1745H144.466L144.644 64.0402H149.893C149.978 63.5583 149.956 63.1283 149.826 62.7502C149.7 62.3721 149.479 62.0737 149.164 61.855C148.853 61.6363 148.458 61.5269 147.98 61.5269C147.487 61.5269 147.027 61.6604 146.601 61.9273C146.175 62.1905 145.819 62.5241 145.533 62.9281C145.248 63.3285 145.07 63.7362 145 64.1514L144.844 65.13C144.733 65.838 144.749 66.4015 144.894 66.8204C145.042 67.2392 145.3 67.5413 145.667 67.7267C146.034 67.9083 146.494 67.9991 147.046 67.9991C147.398 67.9991 147.722 67.951 148.019 67.8546C148.315 67.7545 148.581 67.6062 148.814 67.4098C149.048 67.2096 149.244 66.9612 149.403 66.6647L150.604 67.0205C150.401 67.4505 150.113 67.8286 149.743 68.1548C149.376 68.4773 148.946 68.7294 148.453 68.911C147.963 69.089 147.428 69.1779 146.846 69.1779ZM155.895 57.6125L154.004 69H152.692L154.583 57.6125H155.895ZM156.669 69L158.092 60.4594H159.404L157.981 69H156.669ZM159.149 59.0137C158.893 59.0137 158.672 58.9266 158.487 58.7524C158.305 58.5781 158.214 58.3687 158.214 58.124C158.214 57.8794 158.305 57.6699 158.487 57.4957C158.672 57.3215 158.893 57.2344 159.149 57.2344C159.404 57.2344 159.623 57.3215 159.805 57.4957C159.99 57.6699 160.083 57.8794 160.083 58.124C160.083 58.3687 159.99 58.5781 159.805 58.7524C159.623 58.9266 159.404 59.0137 159.149 59.0137ZM163.136 69.2002C162.595 69.2002 162.121 69.0982 161.713 68.8944C161.305 68.6868 161.003 68.3884 160.807 67.9991C160.61 67.6062 160.556 67.1317 160.645 66.5757C160.731 66.0864 160.895 65.6898 161.14 65.3858C161.385 65.0781 161.681 64.8372 162.03 64.663C162.382 64.485 162.76 64.3534 163.164 64.2682C163.572 64.1792 163.978 64.1106 164.382 64.0624C164.908 63.9957 165.336 63.9438 165.666 63.9068C165.996 63.8697 166.245 63.8085 166.411 63.7233C166.578 63.638 166.68 63.4916 166.717 63.284V63.2395C166.806 62.6946 166.734 62.2702 166.5 61.9662C166.267 61.6585 165.85 61.5047 165.249 61.5047C164.626 61.5047 164.106 61.6419 163.687 61.9162C163.268 62.1905 162.958 62.4833 162.758 62.7947L161.602 62.3499C161.906 61.8309 162.269 61.4269 162.691 61.1377C163.114 60.8449 163.557 60.641 164.02 60.5261C164.484 60.4075 164.93 60.3482 165.36 60.3482C165.635 60.3482 165.944 60.3815 166.289 60.4482C166.634 60.5113 166.956 60.6429 167.256 60.843C167.56 61.0432 167.788 61.3453 167.94 61.7494C168.096 62.1534 168.118 62.6946 168.007 63.373L167.073 69H165.761L165.961 67.8435H165.894C165.776 68.0288 165.594 68.2271 165.349 68.4384C165.108 68.6497 164.803 68.8295 164.432 68.9778C164.065 69.126 163.633 69.2002 163.136 69.2002ZM163.514 68.0214C164.033 68.0214 164.487 67.9194 164.877 67.7156C165.27 67.5117 165.585 67.2485 165.822 66.926C166.063 66.6035 166.213 66.2643 166.272 65.9085L166.472 64.7074C166.406 64.7742 166.274 64.8353 166.078 64.8909C165.881 64.9428 165.659 64.9892 165.41 65.0299C165.166 65.067 164.927 65.1004 164.693 65.13C164.463 65.156 164.278 65.1782 164.137 65.1968C163.789 65.2412 163.457 65.3135 163.142 65.4136C162.83 65.51 162.567 65.6564 162.352 65.8529C162.141 66.0456 162.009 66.3088 161.958 66.6424C161.88 67.0984 161.989 67.4431 162.286 67.6766C162.582 67.9065 162.992 68.0214 163.514 68.0214ZM169.907 69L171.797 57.6125H173.11L172.42 61.8161H172.531C172.65 61.6678 172.815 61.4788 173.026 61.2489C173.238 61.0154 173.521 60.8078 173.877 60.6262C174.233 60.4408 174.689 60.3482 175.245 60.3482C175.964 60.3482 176.566 60.5279 177.052 60.8875C177.541 61.2471 177.884 61.7568 178.081 62.4166C178.281 63.0764 178.307 63.8549 178.158 64.7519C178.01 65.6564 177.727 66.4404 177.308 67.1039C176.893 67.7638 176.381 68.2753 175.773 68.6386C175.169 68.9981 174.511 69.1779 173.799 69.1779C173.251 69.1779 172.826 69.0871 172.526 68.9055C172.229 68.7201 172.011 68.5107 171.87 68.2772C171.733 68.0399 171.627 67.8435 171.553 67.6878H171.397L171.175 69H169.907ZM171.909 64.7297C171.805 65.3747 171.807 65.9437 171.914 66.4367C172.022 66.926 172.235 67.3097 172.554 67.5877C172.872 67.862 173.295 67.9991 173.821 67.9991C174.37 67.9991 174.852 67.8546 175.267 67.5654C175.682 67.2726 176.023 66.8797 176.29 66.3867C176.557 65.8899 176.742 65.3376 176.846 64.7297C176.943 64.1292 176.939 63.588 176.835 63.1061C176.735 62.6205 176.524 62.2368 176.201 61.9551C175.882 61.6697 175.445 61.5269 174.889 61.5269C174.355 61.5269 173.883 61.6622 173.471 61.9329C173.063 62.1997 172.726 62.5741 172.459 63.056C172.196 63.5342 172.012 64.0921 171.909 64.7297ZM182.918 57.6125L181.027 69H179.715L181.606 57.6125H182.918ZM187.25 69.1779C186.431 69.1779 185.755 68.9963 185.221 68.633C184.687 68.266 184.314 67.7545 184.103 67.0984C183.892 66.4386 183.858 65.6712 184.003 64.7964C184.148 63.9216 184.435 63.1506 184.865 62.4833C185.295 61.8124 185.831 61.2897 186.472 60.9153C187.113 60.5372 187.817 60.3482 188.585 60.3482C189.03 60.3482 189.458 60.4223 189.869 60.5706C190.281 60.7189 190.636 60.9598 190.937 61.2934C191.237 61.6233 191.446 62.0607 191.565 62.6056C191.684 63.1506 191.676 63.8215 191.543 64.6185L191.454 65.1745H184.87L185.048 64.0402H190.297C190.383 63.5583 190.36 63.1283 190.231 62.7502C190.105 62.3721 189.884 62.0737 189.569 61.855C189.258 61.6363 188.863 61.5269 188.385 61.5269C187.892 61.5269 187.432 61.6604 187.006 61.9273C186.579 62.1905 186.223 62.5241 185.938 62.9281C185.653 63.3285 185.475 63.7362 185.404 64.1514L185.249 65.13C185.137 65.838 185.154 66.4015 185.299 66.8204C185.447 67.2392 185.704 67.5413 186.071 67.7267C186.438 67.9083 186.898 67.9991 187.45 67.9991C187.803 67.9991 188.127 67.951 188.423 67.8546C188.72 67.7545 188.985 67.6062 189.219 67.4098C189.452 67.2096 189.649 66.9612 189.808 66.6647L191.009 67.0205C190.805 67.4505 190.518 67.8286 190.147 68.1548C189.78 68.4773 189.35 68.7294 188.857 68.911C188.368 69.089 187.832 69.1779 187.25 69.1779ZM199.696 69L198.517 60.4594H199.896L200.653 66.9983H200.742L203.655 60.4594H205.056L205.768 66.976H205.857L208.793 60.4594H210.172L206.146 69H204.856L204.078 62.4388H203.944L200.986 69H199.696ZM213.235 69.2002C212.694 69.2002 212.22 69.0982 211.812 68.8944C211.404 68.6868 211.102 68.3884 210.905 67.9991C210.709 67.6062 210.655 67.1317 210.744 66.5757C210.829 66.0864 210.994 65.6898 211.239 65.3858C211.484 65.0781 211.78 64.8372 212.129 64.663C212.481 64.485 212.859 64.3534 213.263 64.2682C213.671 64.1792 214.077 64.1106 214.481 64.0624C215.007 63.9957 215.435 63.9438 215.765 63.9068C216.095 63.8697 216.343 63.8085 216.51 63.7233C216.677 63.638 216.779 63.4916 216.816 63.284V63.2395C216.905 62.6946 216.833 62.2702 216.599 61.9662C216.366 61.6585 215.949 61.5047 215.348 61.5047C214.725 61.5047 214.205 61.6419 213.786 61.9162C213.367 62.1905 213.057 62.4833 212.857 62.7947L211.701 62.3499C212.005 61.8309 212.368 61.4269 212.79 61.1377C213.213 60.8449 213.656 60.641 214.119 60.5261C214.583 60.4075 215.029 60.3482 215.459 60.3482C215.734 60.3482 216.043 60.3815 216.388 60.4482C216.733 60.5113 217.055 60.6429 217.355 60.843C217.659 61.0432 217.887 61.3453 218.039 61.7494C218.195 62.1534 218.217 62.6946 218.106 63.373L217.172 69H215.86L216.06 67.8435H215.993C215.875 68.0288 215.693 68.2271 215.448 68.4384C215.207 68.6497 214.901 68.8295 214.531 68.9778C214.164 69.126 213.732 69.2002 213.235 69.2002ZM213.613 68.0214C214.132 68.0214 214.586 67.9194 214.976 67.7156C215.369 67.5117 215.684 67.2485 215.921 66.926C216.162 66.6035 216.312 66.2643 216.371 65.9085L216.571 64.7074C216.505 64.7742 216.373 64.8353 216.177 64.8909C215.98 64.9428 215.758 64.9892 215.509 65.0299C215.265 65.067 215.026 65.1004 214.792 65.13C214.562 65.156 214.377 65.1782 214.236 65.1968C213.888 65.2412 213.556 65.3135 213.241 65.4136C212.929 65.51 212.666 65.6564 212.451 65.8529C212.24 66.0456 212.108 66.3088 212.056 66.6424C211.979 67.0984 212.088 67.4431 212.384 67.6766C212.681 67.9065 213.091 68.0214 213.613 68.0214ZM219.845 72.2027C219.622 72.2027 219.426 72.1842 219.255 72.1471C219.088 72.1138 218.974 72.0804 218.911 72.047L219.444 70.8905C219.748 70.9721 220.019 70.9962 220.256 70.9628C220.497 70.9331 220.725 70.8164 220.94 70.6125C221.159 70.4123 221.387 70.0972 221.624 69.6672L221.991 69L220.278 60.4594H221.646L222.869 67.2874H222.958L226.45 60.4594H227.929L222.692 70.2344C222.447 70.6903 222.178 71.0629 221.885 71.352C221.592 71.6411 221.276 71.8543 220.934 71.9914C220.593 72.1323 220.23 72.2027 219.845 72.2027ZM238.301 60.4594L238.123 61.5714H233.697L233.875 60.4594H238.301ZM235.499 58.4132H236.811L235.454 66.5535C235.395 66.9242 235.404 67.2022 235.482 67.3875C235.564 67.5691 235.686 67.6915 235.849 67.7545C236.016 67.8138 236.196 67.8435 236.389 67.8435C236.533 67.8435 236.652 67.836 236.744 67.8212C236.837 67.8027 236.911 67.7879 236.967 67.7767L237.056 68.9555C236.956 68.9889 236.82 69.0222 236.65 69.0556C236.483 69.0927 236.277 69.1112 236.033 69.1112C235.662 69.1112 235.314 69.0315 234.987 68.8721C234.661 68.7127 234.411 68.4699 234.237 68.1437C234.063 67.8175 234.016 67.406 234.098 66.9093L235.499 58.4132ZM242.546 69.1779C241.76 69.1779 241.102 68.9907 240.572 68.6163C240.042 68.2419 239.668 67.7174 239.449 67.0428C239.234 66.3681 239.199 65.5823 239.344 64.6852C239.484 63.8104 239.764 63.0486 240.183 62.3999C240.606 61.7475 241.13 61.2434 241.757 60.8875C242.387 60.5279 243.08 60.3482 243.836 60.3482C244.622 60.3482 245.278 60.5372 245.805 60.9153C246.335 61.2897 246.709 61.8161 246.928 62.4944C247.147 63.1691 247.184 63.9587 247.039 64.8631C246.898 65.7305 246.615 66.4886 246.188 67.1373C245.766 67.7823 245.241 68.2846 244.615 68.6441C243.992 69 243.302 69.1779 242.546 69.1779ZM242.569 67.9991C243.169 67.9991 243.69 67.8453 244.131 67.5376C244.576 67.23 244.935 66.8241 245.21 66.3199C245.488 65.8158 245.675 65.2709 245.771 64.6852C245.86 64.1292 245.857 63.6121 245.76 63.1339C245.664 62.652 245.458 62.2646 245.143 61.9718C244.828 61.6752 244.385 61.5269 243.814 61.5269C243.214 61.5269 242.689 61.6826 242.24 61.994C241.796 62.3054 241.436 62.715 241.162 63.2228C240.887 63.7307 240.704 64.2774 240.611 64.8631C240.522 65.4192 240.524 65.9363 240.617 66.4145C240.713 66.8889 240.919 67.2726 241.234 67.5654C241.553 67.8546 241.998 67.9991 242.569 67.9991ZM253.467 69L255.358 57.6125H256.67L255.981 61.8161H256.092C256.21 61.6678 256.375 61.4788 256.587 61.2489C256.798 61.0154 257.082 60.8078 257.437 60.6262C257.793 60.4408 258.249 60.3482 258.805 60.3482C259.524 60.3482 260.127 60.5279 260.612 60.8875C261.102 61.2471 261.445 61.7568 261.641 62.4166C261.841 63.0764 261.867 63.8549 261.719 64.7519C261.571 65.6564 261.287 66.4404 260.868 67.1039C260.453 67.7638 259.941 68.2753 259.333 68.6386C258.729 68.9981 258.071 69.1779 257.36 69.1779C256.811 69.1779 256.387 69.0871 256.086 68.9055C255.79 68.7201 255.571 68.5107 255.43 68.2772C255.293 68.0399 255.187 67.8435 255.113 67.6878H254.958L254.735 69H253.467ZM255.469 64.7297C255.365 65.3747 255.367 65.9437 255.475 66.4367C255.582 66.926 255.795 67.3097 256.114 67.5877C256.433 67.862 256.855 67.9991 257.382 67.9991C257.93 67.9991 258.412 67.8546 258.827 67.5654C259.243 67.2726 259.584 66.8797 259.851 66.3867C260.117 65.8899 260.303 65.3376 260.407 64.7297C260.503 64.1292 260.499 63.588 260.396 63.1061C260.295 62.6205 260.084 62.2368 259.762 61.9551C259.443 61.6697 259.005 61.5269 258.449 61.5269C257.916 61.5269 257.443 61.6622 257.032 61.9329C256.624 62.1997 256.286 62.5741 256.02 63.056C255.756 63.5342 255.573 64.0921 255.469 64.7297ZM269.236 65.5081L270.081 60.4594H271.393L269.97 69H268.658L268.902 67.5543H268.813C268.547 67.988 268.174 68.3569 267.696 68.6608C267.218 68.9611 266.656 69.1112 266.011 69.1112C265.477 69.1112 265.021 68.9944 264.643 68.7609C264.269 68.5237 264.002 68.1678 263.843 67.6933C263.687 67.2151 263.668 66.6128 263.787 65.8862L264.699 60.4594H266.011L265.121 65.7973C265.021 66.42 265.116 66.9167 265.405 67.2874C265.694 67.6581 266.111 67.8435 266.656 67.8435C266.982 67.8435 267.327 67.7601 267.69 67.5932C268.057 67.4264 268.383 67.1707 268.669 66.8259C268.958 66.4812 269.147 66.0419 269.236 65.5081ZM272.957 72.2027C272.734 72.2027 272.538 72.1842 272.367 72.1471C272.201 72.1138 272.086 72.0804 272.023 72.047L272.557 70.8905C272.861 70.9721 273.131 70.9962 273.368 70.9628C273.609 70.9331 273.837 70.8164 274.052 70.6125C274.271 70.4123 274.499 70.0972 274.736 69.6672L275.103 69L273.391 60.4594H274.758L275.982 67.2874H276.071L279.563 60.4594H281.042L275.804 70.2344C275.559 70.6903 275.29 71.0629 274.998 71.352C274.705 71.6411 274.388 71.8543 274.047 71.9914C273.706 72.1323 273.342 72.2027 272.957 72.2027ZM289.834 69.1779C289.015 69.1779 288.339 68.9963 287.805 68.633C287.271 68.266 286.899 67.7545 286.687 67.0984C286.476 66.4386 286.443 65.6712 286.587 64.7964C286.732 63.9216 287.019 63.1506 287.449 62.4833C287.879 61.8124 288.415 61.2897 289.056 60.9153C289.697 60.5372 290.402 60.3482 291.169 60.3482C291.614 60.3482 292.042 60.4223 292.453 60.5706C292.865 60.7189 293.221 60.9598 293.521 61.2934C293.821 61.6233 294.031 62.0607 294.149 62.6056C294.268 63.1506 294.26 63.8215 294.127 64.6185L294.038 65.1745H287.455L287.633 64.0402H292.882C292.967 63.5583 292.945 63.1283 292.815 62.7502C292.689 62.3721 292.468 62.0737 292.153 61.855C291.842 61.6363 291.447 61.5269 290.969 61.5269C290.476 61.5269 290.016 61.6604 289.59 61.9273C289.164 62.1905 288.808 62.5241 288.522 62.9281C288.237 63.3285 288.059 63.7362 287.988 64.1514L287.833 65.13C287.722 65.838 287.738 66.4015 287.883 66.8204C288.031 67.2392 288.289 67.5413 288.656 67.7267C289.023 67.9083 289.482 67.9991 290.035 67.9991C290.387 67.9991 290.711 67.951 291.008 67.8546C291.304 67.7545 291.569 67.6062 291.803 67.4098C292.036 67.2096 292.233 66.9612 292.392 66.6647L293.593 67.0205C293.389 67.4505 293.102 67.8286 292.731 68.1548C292.364 68.4773 291.934 68.7294 291.441 68.911C290.952 69.089 290.416 69.1779 289.834 69.1779ZM298.883 57.6125L296.993 69H295.681L297.571 57.6125H298.883ZM303.216 69.1779C302.397 69.1779 301.72 68.9963 301.186 68.633C300.653 68.266 300.28 67.7545 300.069 67.0984C299.858 66.4386 299.824 65.6712 299.969 64.7964C300.113 63.9216 300.401 63.1506 300.831 62.4833C301.261 61.8124 301.796 61.2897 302.438 60.9153C303.079 60.5372 303.783 60.3482 304.55 60.3482C304.995 60.3482 305.423 60.4223 305.835 60.5706C306.246 60.7189 306.602 60.9598 306.902 61.2934C307.203 61.6233 307.412 62.0607 307.531 62.6056C307.649 63.1506 307.642 63.8215 307.509 64.6185L307.42 65.1745H300.836L301.014 64.0402H306.263C306.348 63.5583 306.326 63.1283 306.196 62.7502C306.07 62.3721 305.85 62.0737 305.535 61.855C305.223 61.6363 304.828 61.5269 304.35 61.5269C303.857 61.5269 303.398 61.6604 302.971 61.9273C302.545 62.1905 302.189 62.5241 301.904 62.9281C301.618 63.3285 301.44 63.7362 301.37 64.1514L301.214 65.13C301.103 65.838 301.12 66.4015 301.264 66.8204C301.413 67.2392 301.67 67.5413 302.037 67.7267C302.404 67.9083 302.864 67.9991 303.416 67.9991C303.768 67.9991 304.093 67.951 304.389 67.8546C304.686 67.7545 304.951 67.6062 305.184 67.4098C305.418 67.2096 305.614 66.9612 305.774 66.6647L306.975 67.0205C306.771 67.4505 306.484 67.8286 306.113 68.1548C305.746 68.4773 305.316 68.7294 304.823 68.911C304.334 69.089 303.798 69.1779 303.216 69.1779ZM312.51 69.1779C311.705 69.1779 311.045 68.9889 310.53 68.6108C310.019 68.2327 309.663 67.7119 309.463 67.0483C309.262 66.3848 309.233 65.6267 309.374 64.7742C309.515 63.9068 309.8 63.1413 310.23 62.4778C310.66 61.8105 311.196 61.2897 311.837 60.9153C312.478 60.5372 313.184 60.3482 313.955 60.3482C314.556 60.3482 315.079 60.4594 315.523 60.6818C315.968 60.9042 316.311 61.2156 316.552 61.6159C316.793 62.0163 316.906 62.4833 316.891 63.0171H315.579C315.542 62.6279 315.375 62.2831 315.079 61.9829C314.786 61.6789 314.352 61.5269 313.777 61.5269C313.266 61.5269 312.795 61.6604 312.365 61.9273C311.935 62.1905 311.574 62.563 311.281 63.0449C310.988 63.5231 310.79 64.0847 310.686 64.7297C310.575 65.3895 310.584 65.9641 310.714 66.4534C310.843 66.9427 311.079 67.3226 311.42 67.5932C311.761 67.8638 312.191 67.9991 312.71 67.9991C313.051 67.9991 313.37 67.9398 313.666 67.8212C313.963 67.7026 314.226 67.5321 314.456 67.3097C314.686 67.0873 314.867 66.8204 315.001 66.509H316.313C316.15 67.0131 315.888 67.4672 315.529 67.8713C315.169 68.2716 314.734 68.5904 314.222 68.8276C313.711 69.0612 313.14 69.1779 312.51 69.1779ZM323.207 60.4594L323.029 61.5714H318.603L318.781 60.4594H323.207ZM320.405 58.4132H321.717L320.36 66.5535C320.301 66.9242 320.31 67.2022 320.388 67.3875C320.47 67.5691 320.592 67.6915 320.755 67.7545C320.922 67.8138 321.102 67.8435 321.295 67.8435C321.439 67.8435 321.558 67.836 321.65 67.8212C321.743 67.8027 321.817 67.7879 321.873 67.7767L321.962 68.9555C321.862 68.9889 321.726 69.0222 321.556 69.0556C321.389 69.0927 321.183 69.1112 320.939 69.1112C320.568 69.1112 320.22 69.0315 319.893 68.8721C319.567 68.7127 319.317 68.4699 319.143 68.1437C318.969 67.8175 318.922 67.406 319.004 66.9093L320.405 58.4132ZM324.019 69L325.442 60.4594H326.71L326.488 61.7494H326.576C326.799 61.3268 327.138 60.9839 327.594 60.7207C328.05 60.4575 328.534 60.3259 329.045 60.3259C329.145 60.3259 329.266 60.3278 329.407 60.3315C329.548 60.3315 329.657 60.337 329.735 60.3482L329.512 61.6826C329.468 61.6715 329.368 61.6548 329.212 61.6326C329.056 61.6066 328.89 61.5937 328.712 61.5937C328.296 61.5937 327.913 61.6808 327.561 61.855C327.209 62.0255 326.914 62.2628 326.677 62.5667C326.439 62.867 326.287 63.2099 326.221 63.5954L325.331 69H324.019ZM330.136 69L331.56 60.4594H332.872L331.448 69H330.136ZM332.616 59.0137C332.36 59.0137 332.14 58.9266 331.954 58.7524C331.773 58.5781 331.682 58.3687 331.682 58.124C331.682 57.8794 331.773 57.6699 331.954 57.4957C332.14 57.3215 332.36 57.2344 332.616 57.2344C332.872 57.2344 333.091 57.3215 333.272 57.4957C333.457 57.6699 333.55 57.8794 333.55 58.124C333.55 58.3687 333.457 58.5781 333.272 58.7524C333.091 58.9266 332.872 59.0137 332.616 59.0137ZM337.56 69.1779C336.756 69.1779 336.096 68.9889 335.581 68.6108C335.069 68.2327 334.713 67.7119 334.513 67.0483C334.313 66.3848 334.283 65.6267 334.424 64.7742C334.565 63.9068 334.85 63.1413 335.28 62.4778C335.71 61.8105 336.246 61.2897 336.887 60.9153C337.529 60.5372 338.235 60.3482 339.006 60.3482C339.606 60.3482 340.129 60.4594 340.574 60.6818C341.019 60.9042 341.362 61.2156 341.602 61.6159C341.843 62.0163 341.956 62.4833 341.942 63.0171H340.629C340.592 62.6279 340.426 62.2831 340.129 61.9829C339.836 61.6789 339.402 61.5269 338.828 61.5269C338.316 61.5269 337.846 61.6604 337.416 61.9273C336.986 62.1905 336.624 62.563 336.331 63.0449C336.038 63.5231 335.84 64.0847 335.736 64.7297C335.625 65.3895 335.634 65.9641 335.764 66.4534C335.894 66.9427 336.129 67.3226 336.47 67.5932C336.811 67.8638 337.241 67.9991 337.76 67.9991C338.101 67.9991 338.42 67.9398 338.717 67.8212C339.013 67.7026 339.276 67.5321 339.506 67.3097C339.736 67.0873 339.918 66.8204 340.051 66.509H341.363C341.2 67.0131 340.939 67.4672 340.579 67.8713C340.22 68.2716 339.784 68.5904 339.273 68.8276C338.761 69.0612 338.19 69.1779 337.56 69.1779ZM343.12 69L344.544 60.4594H345.856L344.432 69H343.12ZM345.6 59.0137C345.344 59.0137 345.124 58.9266 344.938 58.7524C344.757 58.5781 344.666 58.3687 344.666 58.124C344.666 57.8794 344.757 57.6699 344.938 57.4957C345.124 57.3215 345.344 57.2344 345.6 57.2344C345.856 57.2344 346.074 57.3215 346.256 57.4957C346.441 57.6699 346.534 57.8794 346.534 58.124C346.534 58.3687 346.441 58.5781 346.256 58.7524C346.074 58.9266 345.856 59.0137 345.6 59.0137ZM352.234 60.4594L352.057 61.5714H347.631L347.808 60.4594H352.234ZM349.432 58.4132H350.744L349.388 66.5535C349.328 66.9242 349.338 67.2022 349.415 67.3875C349.497 67.5691 349.619 67.6915 349.782 67.7545C349.949 67.8138 350.129 67.8435 350.322 67.8435C350.466 67.8435 350.585 67.836 350.678 67.8212C350.77 67.8027 350.844 67.7879 350.9 67.7767L350.989 68.9555C350.889 68.9889 350.754 69.0222 350.583 69.0556C350.416 69.0927 350.211 69.1112 349.966 69.1112C349.595 69.1112 349.247 69.0315 348.921 68.8721C348.594 68.7127 348.344 68.4699 348.17 68.1437C347.996 67.8175 347.949 67.406 348.031 66.9093L349.432 58.4132ZM353.368 72.2027C353.146 72.2027 352.95 72.1842 352.779 72.1471C352.612 72.1138 352.497 72.0804 352.434 72.047L352.968 70.8905C353.272 70.9721 353.543 70.9962 353.78 70.9628C354.021 70.9331 354.249 70.8164 354.464 70.6125C354.682 70.4123 354.91 70.0972 355.148 69.6672L355.515 69L353.802 60.4594H355.17L356.393 67.2874H356.482L359.974 60.4594H361.453L356.215 70.2344C355.971 70.6903 355.702 71.0629 355.409 71.352C355.116 71.6411 354.799 71.8543 354.458 71.9914C354.117 72.1323 353.754 72.2027 353.368 72.2027Z" fill="black"/>
</svg>
