<svg width="80" height="80" viewBox="0 0 80 80" fill="none" xmlns="http://www.w3.org/2000/svg">
<rect width="80" height="80" rx="40" fill="#F4F5F7"/>
<path d="M56.625 19.875H14.625C14.1418 19.875 13.75 20.2668 13.75 20.75V48.75C13.75 49.2332 14.1418 49.625 14.625 49.625H56.625C57.1082 49.625 57.5 49.2332 57.5 48.75V20.75C57.5 20.2668 57.1082 19.875 56.625 19.875Z" fill="#80DEEA"/>
<path d="M49.87 19.875C48.4622 26.5555 44.8003 32.5489 39.4985 36.8502C34.1967 41.1516 27.5772 43.4994 20.75 43.5H13.75V20.75C13.7507 20.5181 13.8431 20.296 14.007 20.132C14.171 19.9681 14.3931 19.8757 14.625 19.875H49.87Z" fill="#B2EBF2"/>
<path d="M57.5 25.125H13.75V30.375H57.5V25.125Z" fill="#37474F"/>
<path d="M48.2425 25.125C47.4819 26.9651 46.538 28.724 45.425 30.375H13.75V25.125H48.2425Z" fill="#455A64"/>
<path d="M61 39.125V39.9825C61.0031 40.672 60.9709 41.3612 60.9037 42.0475C60.383 48.2504 57.5354 54.0269 52.9325 58.2175L51.0862 59.8975C50.9261 60.0438 50.717 60.125 50.5 60.125C50.283 60.125 50.0739 60.0438 49.9138 59.8975L48.0675 58.2175C47.2203 57.4481 46.4306 56.6175 45.705 55.7325C42.02 51.3112 40.0013 45.7381 40 39.9825V39.125C40.0001 38.9566 40.0489 38.7919 40.1405 38.6506C40.2321 38.5093 40.3626 38.3976 40.5163 38.3287L50.1412 33.9537C50.2537 33.9019 50.3761 33.875 50.5 33.875C50.6239 33.875 50.7463 33.9019 50.8587 33.9537L54.42 35.5725L60.4837 38.3287C60.6374 38.3976 60.7679 38.5093 60.8595 38.6506C60.9511 38.7919 60.9999 38.9566 61 39.125Z" fill="#388E3C"/>
<path d="M56.625 43.0625C56.625 49.905 51.7775 55.47 45.705 55.7325C42.02 51.3112 40.0013 45.7381 40 39.9825V39.125C40.0001 38.9566 40.0489 38.7919 40.1405 38.6506C40.2321 38.5093 40.3626 38.3976 40.5163 38.3287L50.1413 33.9537C50.2537 33.9019 50.3761 33.875 50.5 33.875C50.6239 33.875 50.7463 33.9019 50.8588 33.9537L54.42 35.5725C55.8745 37.7985 56.6414 40.4035 56.625 43.0625Z" fill="#43A047"/>
<path d="M42.9078 44.375C42.7001 44.3748 42.4993 44.3008 42.3412 44.1662C42.1831 44.0315 42.078 43.845 42.0448 43.64C41.8635 42.5226 41.7655 41.3932 41.7518 40.2613C41.7498 40.0916 41.7972 39.925 41.8883 39.7818C41.9793 39.6386 42.11 39.525 42.2644 39.4547L44.0127 38.66C44.1176 38.6097 44.2316 38.5807 44.3479 38.5749C44.4641 38.5691 44.5804 38.5866 44.6898 38.6263C44.7993 38.666 44.8997 38.7272 44.9852 38.8062C45.0707 38.8852 45.1396 38.9805 45.1878 39.0864C45.236 39.1924 45.2626 39.3069 45.266 39.4233C45.2694 39.5397 45.2495 39.6555 45.2076 39.7641C45.1656 39.8727 45.1024 39.9719 45.0217 40.0557C44.941 40.1396 44.8443 40.2065 44.7374 40.2525L43.5163 40.8079C43.5497 41.6628 43.6353 42.5149 43.7726 43.3594C43.8095 43.5885 43.754 43.8229 43.6184 44.0111C43.4827 44.1993 43.2779 44.3261 43.0489 44.3635C43.0022 44.3711 42.9551 44.3749 42.9078 44.375Z" fill="#E8F5E9"/>
<path d="M61 39.3V39.9825C61.003 40.672 60.9709 41.3612 60.9037 42.0475L52.0312 51.9612C51.8668 52.1358 51.6408 52.2394 51.4012 52.25H51.375C51.1433 52.2466 50.9215 52.156 50.7537 51.9962L47.2537 48.4962C47.09 48.3312 46.9984 48.1081 46.9989 47.8757C46.9994 47.6433 47.0919 47.4206 47.2562 47.2563C47.4206 47.0919 47.6433 46.9994 47.8757 46.9989C48.1081 46.9985 48.3312 47.0901 48.4962 47.2537L51.34 50.1062L61 39.3Z" fill="#1B5E20"/>
<path d="M50.5 51.375C50.268 51.3749 50.0455 51.2826 49.8814 51.1186L46.3814 47.6186C46.222 47.4536 46.1338 47.2326 46.1358 47.0031C46.1378 46.7737 46.2298 46.5543 46.392 46.392C46.5543 46.2298 46.7737 46.1378 47.0031 46.1358C47.2326 46.1338 47.4536 46.222 47.6186 46.3814L50.465 49.2277L64.723 33.2914C64.8785 33.121 65.0949 33.0188 65.3253 33.0072C65.5556 32.9955 65.7813 33.0753 65.9531 33.2291C66.125 33.383 66.2291 33.5985 66.2429 33.8287C66.2567 34.059 66.179 34.2854 66.0268 34.4586L51.1518 51.0836C51.0724 51.1724 50.9758 51.244 50.8678 51.2941C50.7598 51.3442 50.6427 51.3717 50.5237 51.375H50.5Z" fill="#B2DFDB"/>
<path d="M34.75 40.875H18.125C17.8929 40.875 17.6704 40.7828 17.5063 40.6187C17.3422 40.4546 17.25 40.2321 17.25 40C17.25 39.7679 17.3422 39.5454 17.5063 39.3813C17.6704 39.2172 17.8929 39.125 18.125 39.125H34.75C34.9821 39.125 35.2046 39.2172 35.3687 39.3813C35.5328 39.5454 35.625 39.7679 35.625 40C35.625 40.2321 35.5328 40.4546 35.3687 40.6187C35.2046 40.7828 34.9821 40.875 34.75 40.875ZM19.875 44.375H18.125C17.8929 44.375 17.6704 44.2828 17.5063 44.1187C17.3422 43.9546 17.25 43.7321 17.25 43.5C17.25 43.2679 17.3422 43.0454 17.5063 42.8813C17.6704 42.7172 17.8929 42.625 18.125 42.625H19.875C20.1071 42.625 20.3296 42.7172 20.4937 42.8813C20.6578 43.0454 20.75 43.2679 20.75 43.5C20.75 43.7321 20.6578 43.9546 20.4937 44.1187C20.3296 44.2828 20.1071 44.375 19.875 44.375ZM25.125 44.375H23.375C23.1429 44.375 22.9204 44.2828 22.7563 44.1187C22.5922 43.9546 22.5 43.7321 22.5 43.5C22.5 43.2679 22.5922 43.0454 22.7563 42.8813C22.9204 42.7172 23.1429 42.625 23.375 42.625H25.125C25.3571 42.625 25.5796 42.7172 25.7437 42.8813C25.9078 43.0454 26 43.2679 26 43.5C26 43.7321 25.9078 43.9546 25.7437 44.1187C25.5796 44.2828 25.3571 44.375 25.125 44.375ZM34.75 44.375H28.625C28.3929 44.375 28.1704 44.2828 28.0063 44.1187C27.8422 43.9546 27.75 43.7321 27.75 43.5C27.75 43.2679 27.8422 43.0454 28.0063 42.8813C28.1704 42.7172 28.3929 42.625 28.625 42.625H34.75C34.9821 42.625 35.2046 42.7172 35.3687 42.8813C35.5328 43.0454 35.625 43.2679 35.625 43.5C35.625 43.7321 35.5328 43.9546 35.3687 44.1187C35.2046 44.2828 34.9821 44.375 34.75 44.375Z" fill="#00ACC1"/>
</svg>
