<svg width="80" height="80" viewBox="0 0 80 80" fill="none" xmlns="http://www.w3.org/2000/svg">
<rect width="80" height="80" rx="40" fill="#F4F5F7"/>
<path d="M59.9858 60.6232H47.7812C45.2014 60.6232 43.1099 58.5317 43.1099 55.9518C43.1099 53.3719 45.2014 51.2805 47.7812 51.2805H59.9858C62.5656 51.2805 64.6571 53.3719 64.6571 55.9518C64.6571 58.5317 62.5656 60.6232 59.9858 60.6232ZM33.1764 41.3422C33.1764 43.9221 31.0849 46.0135 28.5051 46.0135H17.8577C15.2778 46.0135 13.1863 43.9221 13.1863 41.3422C13.1863 38.7623 15.2778 36.6709 17.8577 36.6709H28.5051C31.0849 36.6709 33.1764 38.7623 33.1764 41.3422Z" fill="#CEF6FD"/>
<path d="M48.7304 59.8401H26.7411C25.7205 59.8401 24.8932 59.0128 24.8932 57.9922V23.3401C24.8932 22.3196 25.7205 21.4922 26.7411 21.4922H48.7304C49.7509 21.4922 50.5783 22.3196 50.5783 23.3401V57.9922C50.5782 59.0128 49.7509 59.8401 48.7304 59.8401Z" fill="#3CDAF6"/>
<path d="M47.0179 26.7012H28.4527V52.9391H47.0179V26.7012Z" fill="white"/>
<path d="M37.7359 57.4014C38.5589 57.4014 39.226 56.7342 39.226 55.9113C39.226 55.0883 38.5589 54.4212 37.7359 54.4212C36.913 54.4212 36.2458 55.0883 36.2458 55.9113C36.2458 56.7342 36.913 57.4014 37.7359 57.4014Z" fill="white"/>
<path d="M41.2795 24.9603H37.2347C36.9825 24.9603 36.7782 24.7559 36.7782 24.5038C36.7782 24.2518 36.9825 24.0473 37.2347 24.0473H41.2795C41.5317 24.0473 41.736 24.2518 41.736 24.5038C41.736 24.7559 41.5317 24.9603 41.2795 24.9603ZM35.4431 24.9603H34.192C33.9398 24.9603 33.7355 24.7559 33.7355 24.5038C33.7355 24.2518 33.9398 24.0473 34.192 24.0473H35.4431C35.6953 24.0473 35.8996 24.2518 35.8996 24.5038C35.8996 24.7559 35.6953 24.9603 35.4431 24.9603ZM59.8985 32.4805V43.1697C59.8985 43.8906 59.3141 44.475 58.5932 44.475H57.0703V49.3975L51.7618 44.475H39.8812C39.1603 44.475 38.5759 43.8906 38.5759 43.1697V32.4805C38.5759 31.7596 39.1603 31.1752 39.8812 31.1752H58.5932C59.3141 31.1752 59.8985 31.7596 59.8985 32.4805Z" fill="white"/>
<path d="M58.5932 30.7186H51.1869V23.3403C51.1869 21.9856 50.085 20.8835 48.7305 20.8835H26.741C25.3865 20.8835 24.2845 21.9856 24.2845 23.3403V57.9922C24.2845 59.3466 25.3865 60.4487 26.741 60.4487H48.7304C50.085 60.4487 51.1869 59.3466 51.1869 57.9922V44.9314H51.5828L56.7598 49.7323C56.8924 49.8553 57.0857 49.889 57.2529 49.8161C57.4192 49.7433 57.5268 49.5793 57.5268 49.3977V44.9314H58.5932C59.5647 44.9314 60.3551 44.1411 60.3551 43.1698V32.4805C60.3551 31.5089 59.5647 30.7186 58.5932 30.7186ZM49.9695 57.9922C49.9695 58.6755 49.4137 59.2313 48.7305 59.2313H26.741C26.0577 59.2313 25.5019 58.6755 25.5019 57.9922V23.3403C25.5019 22.657 26.0577 22.1009 26.741 22.1009H48.7304C49.4137 22.1009 49.9695 22.657 49.9695 23.3403V30.7186H39.8812C38.9097 30.7186 38.1194 31.5089 38.1194 32.4805V43.1698C38.1194 44.1411 38.9097 44.9314 39.8812 44.9314H49.9695V57.9922ZM59.4421 43.1698C59.4421 43.6376 59.0613 44.0184 58.5932 44.0184H57.0703C56.8181 44.0184 56.6138 44.2229 56.6138 44.4749V48.3518L52.0723 44.1402C51.9879 44.0618 51.8771 44.0184 51.7619 44.0184H39.8812C39.4132 44.0184 39.0325 43.6376 39.0325 43.1698V32.4805C39.0325 32.0124 39.4132 31.6317 39.8812 31.6317H58.5932C59.0613 31.6317 59.4421 32.0124 59.4421 32.4805V43.1698H59.4421Z" fill="black"/>
<path d="M44.3488 39.5021C45.2945 39.5021 46.0611 38.7355 46.0611 37.7898C46.0611 36.8442 45.2945 36.0776 44.3488 36.0776C43.4031 36.0776 42.6365 36.8442 42.6365 37.7898C42.6365 38.7355 43.4031 39.5021 44.3488 39.5021Z" fill="#3CDAF6"/>
<path d="M49.2372 39.5021C50.1829 39.5021 50.9495 38.7355 50.9495 37.7898C50.9495 36.8442 50.1829 36.0776 49.2372 36.0776C48.2916 36.0776 47.525 36.8442 47.525 37.7898C47.525 38.7355 48.2916 39.5021 49.2372 39.5021Z" fill="#3CDAF6"/>
<path d="M54.1257 39.5021C55.0713 39.5021 55.8379 38.7355 55.8379 37.7898C55.8379 36.8442 55.0713 36.0776 54.1257 36.0776C53.18 36.0776 52.4134 36.8442 52.4134 37.7898C52.4134 38.7355 53.18 39.5021 54.1257 39.5021Z" fill="#3CDAF6"/>
<path d="M63.1425 28.7195H57.872C55.2921 28.7195 53.2006 26.6281 53.2006 24.0482C53.2006 21.4683 55.2921 19.3768 57.872 19.3768H63.1425C65.7224 19.3768 67.8138 21.4683 67.8138 24.0482C67.8138 26.6281 65.7224 28.7195 63.1425 28.7195Z" fill="#CEF6FD"/>
<path d="M18.8798 25.9531C20.2682 25.9531 21.3937 24.8276 21.3937 23.4392C21.3937 22.0508 20.2682 20.9253 18.8798 20.9253C17.4914 20.9253 16.3658 22.0508 16.3658 23.4392C16.3658 24.8276 17.4914 25.9531 18.8798 25.9531Z" fill="#48DA97"/>
<path d="M65.2192 42.0641C66.2008 42.0641 66.9966 41.2683 66.9966 40.2867C66.9966 39.305 66.2008 38.5093 65.2192 38.5093C64.2375 38.5093 63.4418 39.305 63.4418 40.2867C63.4418 41.2683 64.2375 42.0641 65.2192 42.0641Z" fill="#FFF2D7"/>
<path d="M20.6578 59.8903C21.4051 59.8903 22.0109 59.2845 22.0109 58.5372C22.0109 57.7899 21.4051 57.1841 20.6578 57.1841C19.9104 57.1841 19.3046 57.7899 19.3046 58.5372C19.3046 59.2845 19.9104 59.8903 20.6578 59.8903Z" fill="#F68CFF"/>
</svg>
