<svg width="50" height="50" viewBox="0 0 50 50" fill="none" xmlns="http://www.w3.org/2000/svg">
<path d="M42.6276 19.356C42.5169 19.3559 42.4078 19.3828 42.3098 19.4342C42.2118 19.4857 42.1278 19.5602 42.0649 19.6513L36.9754 27.027C36.9045 27.132 36.8632 27.2542 36.8557 27.3807C36.8482 27.5072 36.8748 27.6334 36.9327 27.7461C36.9901 27.858 37.0766 27.9524 37.1832 28.0191C37.2898 28.0858 37.4125 28.1224 37.5382 28.125H41.7395C41.1085 32.1289 38.9911 35.7735 35.7298 38.4313C32.6075 40.976 28.6845 42.4288 24.9669 42.4288C22.5422 42.4288 20.007 41.8043 17.6353 40.6289C15.1985 39.4268 13.0659 37.688 11.3977 35.5432C11.3442 35.4687 11.2763 35.4057 11.1981 35.358C11.1198 35.3103 11.0327 35.2788 10.942 35.2654C10.8513 35.2521 10.7588 35.2571 10.6701 35.2802C10.5813 35.3033 10.4982 35.344 10.4255 35.3999C10.3528 35.4558 10.2922 35.5258 10.2471 35.6056C10.202 35.6855 10.1734 35.7736 10.1631 35.8647C10.1528 35.9558 10.1609 36.048 10.1869 36.1359C10.2129 36.2238 10.2564 36.3056 10.3147 36.3764C12.1101 38.6851 14.4054 40.5568 17.0282 41.8509C19.5875 43.1192 22.3329 43.7895 24.9669 43.7895C28.9938 43.7895 33.2315 42.2311 36.5936 39.4912C40.1751 36.5723 42.4823 32.5195 43.1232 28.125H47.7169C47.8427 28.1224 47.9653 28.0858 48.0719 28.0191C48.1786 27.9524 48.2651 27.858 48.3224 27.7461C48.3803 27.6334 48.407 27.5072 48.3995 27.3807C48.392 27.2542 48.3507 27.132 48.2798 27.027L43.1905 19.6513C43.1276 19.5601 43.0435 19.4856 42.9454 19.4342C42.8474 19.3828 42.7383 19.3559 42.6276 19.356ZM6.80961 30.3454C6.87228 30.4367 6.95617 30.5113 7.05407 30.563C7.15198 30.6147 7.26096 30.6418 7.37167 30.6421C7.48237 30.6423 7.59148 30.6156 7.6896 30.5644C7.78773 30.5131 7.87195 30.4388 7.935 30.3478L13.0245 22.9661C13.0949 22.8621 13.136 22.741 13.1435 22.6157C13.151 22.4903 13.1245 22.3652 13.067 22.2535C13.0094 22.1419 12.9228 22.0478 12.8163 21.9812C12.7098 21.9146 12.5873 21.8779 12.4618 21.875H8.26049C8.89145 17.8711 11.0088 14.2265 14.2702 11.5687C17.3925 9.02402 21.3155 7.57119 25.033 7.57119C27.4578 7.57119 29.993 8.19619 32.3647 9.37109C34.8015 10.5732 36.9341 12.312 38.6023 14.4568C38.6557 14.5313 38.7236 14.5943 38.8019 14.642C38.8802 14.6897 38.9673 14.7212 39.058 14.7346C39.1487 14.7479 39.2412 14.7429 39.3299 14.7198C39.4186 14.6967 39.5018 14.656 39.5745 14.6001C39.6472 14.5442 39.7078 14.4742 39.7529 14.3944C39.798 14.3145 39.8265 14.2264 39.8369 14.1353C39.8472 14.0442 39.8391 13.952 39.8131 13.8641C39.787 13.7762 39.7436 13.6944 39.6853 13.6236C37.8899 11.3149 35.5946 9.44318 32.9718 8.14912C30.4124 6.88076 27.6671 6.21094 25.033 6.21094C21.0062 6.21094 16.7685 7.76934 13.4064 10.5093C9.82475 13.4277 7.51762 17.4805 6.8767 21.875H2.28295C2.15736 21.878 2.03487 21.9147 1.92838 21.9814C1.82188 22.048 1.7353 22.1421 1.67773 22.2538C1.62017 22.3655 1.59373 22.4906 1.60122 22.616C1.6087 22.7414 1.64982 22.8625 1.72026 22.9665L6.80961 30.3454Z" fill="#F5FBFF"/>
<path d="M31.289 23.4013C30.6006 22.5255 29.756 21.7846 28.798 21.2162L28.6636 23.6231C28.636 24.1113 28.4775 24.5831 28.2047 24.989C27.9319 25.3949 27.5549 25.7198 27.1132 25.9297C27.0451 26.4369 26.843 26.9167 26.5277 27.3197C26.2124 27.7228 25.7953 28.0345 25.3195 28.2227H33.1822C33.0422 26.4636 32.3833 24.7856 31.289 23.4013ZM24.2675 24.0487C23.9701 24.0487 23.6793 24.1369 23.432 24.3021C23.1847 24.4674 22.9919 24.7022 22.8781 24.977C22.7643 25.2518 22.7345 25.5542 22.7925 25.846C22.8505 26.1377 22.9938 26.4057 23.2041 26.616C23.4144 26.8263 23.6824 26.9695 23.9741 27.0276C24.2658 27.0856 24.5682 27.0558 24.843 26.942C25.1178 26.8282 25.3527 26.6354 25.518 26.3881C25.6832 26.1408 25.7714 25.85 25.7714 25.5526C25.771 25.1538 25.6125 24.7715 25.3305 24.4896C25.0485 24.2076 24.6662 24.049 24.2675 24.0487ZM19.9706 23.6246L19.8277 21.1661C18.8329 21.7414 17.9572 22.5012 17.2474 23.4049C16.1544 24.7887 15.4956 26.465 15.3541 28.2227H23.2162C22.7317 28.0311 22.3084 27.7115 21.9913 27.2981C21.6742 26.8847 21.4754 26.3929 21.4159 25.8753C21.0032 25.6544 20.6537 25.3317 20.4008 24.9378C20.1478 24.5439 19.9998 24.0919 19.9706 23.6246Z" fill="#F5FBFF"/>
<path d="M33.9844 29.5898H14.4531V31.6406H33.9844V29.5898Z" fill="#F5FBFF"/>
<path d="M25.9461 19.6777L25.8405 18.8851C25.7986 18.5771 25.6464 18.2947 25.4122 18.0903C25.1781 17.8859 24.8777 17.7734 24.5669 17.7734H23.9688C23.658 17.7734 23.3578 17.886 23.1236 18.0904C22.8895 18.2948 22.7373 18.5771 22.6953 18.8851L22.5898 19.6761C22.5718 19.8118 22.5135 19.939 22.4223 20.0412C22.3312 20.1433 22.2114 20.2158 22.0786 20.2491C21.7675 20.3279 21.461 20.4239 21.1606 20.5368L21.3355 23.5458C21.3536 23.8425 21.4681 24.1252 21.6616 24.3509C21.894 23.8464 22.2679 23.4202 22.7377 23.124C23.2076 22.8277 23.7534 22.6743 24.3088 22.6821C24.8642 22.69 25.4053 22.8588 25.8666 23.1682C26.328 23.4776 26.6896 23.9142 26.9076 24.4251C27.1405 24.1894 27.2794 23.8769 27.2982 23.5462L27.4643 20.5701C27.1354 20.4431 26.7991 20.3362 26.4572 20.2502C26.3244 20.2171 26.2047 20.1447 26.1135 20.0427C26.0224 19.9406 25.964 19.8134 25.9461 19.6777Z" fill="#F5FBFF"/>
</svg>
