<svg width="50" height="50" viewBox="0 0 50 50" fill="none" xmlns="http://www.w3.org/2000/svg">
<g clip-path="url(#clip0_2745_2794)">
<path d="M34.375 32.8125C37.4653 32.8125 40.4863 31.8961 43.0558 30.1792C45.6253 28.4623 47.628 26.022 48.8106 23.1669C49.9932 20.3118 50.3027 17.1702 49.6998 14.1392C49.0969 11.1083 47.6087 8.32416 45.4235 6.13896C43.2383 3.95377 40.4542 2.46563 37.4233 1.86274C34.3923 1.25984 31.2507 1.56927 28.3956 2.75189C25.5405 3.93451 23.1002 5.9372 21.3833 8.50672C19.6664 11.0762 18.75 14.0972 18.75 17.1875C18.7549 21.33 20.4026 25.3015 23.3318 28.2307C26.261 31.1599 30.2325 32.8076 34.375 32.8125V32.8125ZM34.375 3.12501C37.1563 3.12501 39.8751 3.94976 42.1877 5.49497C44.5003 7.04017 46.3027 9.23644 47.3671 11.806C48.4314 14.3756 48.7099 17.2031 48.1673 19.931C47.6247 22.6588 46.2854 25.1645 44.3187 27.1312C42.352 29.0979 39.8463 30.4372 37.1185 30.9798C34.3906 31.5224 31.5631 31.2439 28.9935 30.1796C26.4239 29.1152 24.2277 27.3128 22.6825 25.0002C21.1373 22.6876 20.3125 19.9688 20.3125 17.1875C20.3166 13.4591 21.7995 9.88466 24.4358 7.24831C27.0722 4.61196 30.6466 3.12908 34.375 3.12501V3.12501ZM34.375 19.5313C34.7231 19.5294 35.0663 19.4491 35.3791 19.2964L38.4125 22.3297C38.5595 22.4737 38.7574 22.554 38.9632 22.5529C39.169 22.5519 39.3661 22.4697 39.5116 22.3241C39.6572 22.1786 39.7394 21.9815 39.7404 21.7757C39.7415 21.5699 39.6612 21.372 39.5172 21.225L36.4838 18.1916C36.6366 17.8788 36.7169 17.5356 36.7188 17.1875C36.7173 16.7044 36.5663 16.2336 36.2865 15.8397C36.0067 15.4458 35.6119 15.1482 35.1562 14.9877V11.7188C35.1562 11.5116 35.0739 11.3128 34.9274 11.1663C34.7809 11.0198 34.5822 10.9375 34.375 10.9375C34.1678 10.9375 33.9691 11.0198 33.8226 11.1663C33.6761 11.3128 33.5938 11.5116 33.5938 11.7188V14.9877C33.0726 15.1709 32.6332 15.5327 32.3534 16.0089C32.0736 16.4852 31.9714 17.0451 32.065 17.5895C32.1586 18.1339 32.442 18.6275 32.8648 18.983C33.2876 19.3384 33.8226 19.5326 34.375 19.5313V19.5313ZM34.375 16.4063C34.5295 16.4063 34.6806 16.4521 34.809 16.5379C34.9375 16.6238 35.0376 16.7458 35.0968 16.8885C35.1559 17.0313 35.1714 17.1884 35.1412 17.3399C35.1111 17.4915 35.0367 17.6307 34.9274 17.7399C34.8182 17.8492 34.679 17.9236 34.5274 17.9537C34.3759 17.9839 34.2188 17.9684 34.076 17.9093C33.9333 17.8502 33.8113 17.75 33.7254 17.6215C33.6396 17.4931 33.5938 17.342 33.5938 17.1875C33.5942 16.9804 33.6766 16.782 33.823 16.6355C33.9695 16.4891 34.1679 16.4067 34.375 16.4063ZM25.5356 26.0269C25.5465 26.0379 25.5613 26.0414 25.5728 26.0516C27.9104 28.3801 31.0755 29.6875 34.375 29.6875C37.6745 29.6875 40.8396 28.3801 43.1772 26.0516C43.1887 26.0414 43.2034 26.0379 43.2144 26.0269C43.2254 26.016 43.2289 26.0012 43.2391 25.9897C45.5676 23.6521 46.875 20.487 46.875 17.1875C46.875 13.888 45.5676 10.723 43.2391 8.38529C43.2289 8.37385 43.2254 8.35907 43.2144 8.3481C43.2034 8.33713 43.1887 8.3336 43.1772 8.3234C40.8396 5.99489 37.6745 4.68751 34.375 4.68751C31.0755 4.68751 27.9104 5.99489 25.5728 8.3234C25.5613 8.3336 25.5465 8.33713 25.5356 8.3481C25.5246 8.35907 25.5211 8.37385 25.5109 8.38529C23.1824 10.723 21.875 13.888 21.875 17.1875C21.875 20.487 23.1824 23.6521 25.5109 25.9897C25.5211 26.0012 25.5246 26.016 25.5356 26.0269ZM24.2188 16.4063H23.4771C23.6435 14.0526 24.5707 11.8168 26.1188 10.0361L26.6403 10.5576C26.7873 10.7016 26.9852 10.7818 27.191 10.7808C27.3968 10.7798 27.5939 10.6975 27.7394 10.552C27.885 10.4065 27.9672 10.2094 27.9682 10.0036C27.9693 9.79778 27.8891 9.59988 27.745 9.45288L27.2235 8.93141C29.0042 7.38324 31.24 6.45602 33.5938 6.28959V7.03126C33.5938 7.23846 33.6761 7.43717 33.8226 7.58368C33.9691 7.7302 34.1678 7.81251 34.375 7.81251C34.5822 7.81251 34.7809 7.7302 34.9274 7.58368C35.0739 7.43717 35.1562 7.23846 35.1562 7.03126V6.28959C37.5099 6.45601 39.7457 7.38321 41.5264 8.93135L41.0049 9.45282C40.9312 9.52509 40.8725 9.61125 40.8323 9.70634C40.792 9.80143 40.7711 9.90355 40.7705 10.0068C40.77 10.11 40.79 10.2124 40.8292 10.3079C40.8685 10.4033 40.9263 10.4901 40.9993 10.5631C41.0723 10.6361 41.1591 10.6939 41.2546 10.7332C41.3501 10.7725 41.4524 10.7924 41.5556 10.7919C41.6589 10.7914 41.761 10.7704 41.8561 10.7302C41.9512 10.6899 42.0374 10.6312 42.1096 10.5575L42.6311 10.036C44.1793 11.8167 45.1065 14.0525 45.2729 16.4063H44.5312C44.324 16.4063 44.1253 16.4886 43.9788 16.6351C43.8323 16.7816 43.75 16.9803 43.75 17.1875C43.75 17.3947 43.8323 17.5934 43.9788 17.7399C44.1253 17.8864 44.324 17.9688 44.5312 17.9688H45.2729C45.1065 20.3225 44.1793 22.5582 42.6312 24.3389L42.1097 23.8174C41.9627 23.6734 41.7648 23.5932 41.559 23.5942C41.3532 23.5952 41.1561 23.6775 41.0106 23.823C40.865 23.9685 40.7828 24.1656 40.7818 24.3714C40.7807 24.5772 40.8609 24.7751 41.005 24.9221L41.5265 25.4436C39.7458 26.9918 37.51 27.919 35.1562 28.0854V27.3438C35.1562 27.1366 35.0739 26.9378 34.9274 26.7913C34.7809 26.6448 34.5822 26.5625 34.375 26.5625C34.1678 26.5625 33.9691 26.6448 33.8226 26.7913C33.6761 26.9378 33.5938 27.1366 33.5938 27.3438V28.0854C31.2401 27.919 29.0043 26.9918 27.2236 25.4437L27.7451 24.9222C27.8891 24.7752 27.9693 24.5773 27.9683 24.3715C27.9673 24.1657 27.885 23.9686 27.7395 23.8231C27.594 23.6775 27.3969 23.5953 27.1911 23.5943C26.9853 23.5932 26.7874 23.6735 26.6404 23.8175L26.1189 24.339C24.5707 22.5583 23.6435 20.3225 23.4771 17.9688H24.2188C24.426 17.9688 24.6247 17.8864 24.7712 17.7399C24.9177 17.5934 25 17.3947 25 17.1875C25 16.9803 24.9177 16.7816 24.7712 16.6351C24.6247 16.4886 24.426 16.4063 24.2188 16.4063ZM44.1574 39.5081L28.3813 40.8219C27.7772 40.8735 27.1693 40.7826 26.6068 40.5564L26.5258 40.524L26.5442 40.5152C27.1076 40.134 27.5513 39.6007 27.8238 38.9774C28.0964 38.3541 28.1865 37.6663 28.0837 36.9938C27.981 36.3214 27.6896 35.6918 27.2435 35.1783C26.7973 34.6648 26.2146 34.2884 25.563 34.0928L11.943 30.0064C11.9163 30.0024 11.8894 29.9998 11.8624 29.9988C11.5089 29.4534 11.0248 29.0049 10.4539 28.6942C9.88311 28.3835 9.24367 28.2204 8.59375 28.2196H0.78125C0.678638 28.2196 0.577021 28.2397 0.482208 28.279C0.387396 28.3182 0.301248 28.3757 0.22869 28.4483C0.156132 28.5209 0.0985883 28.607 0.0593479 28.7018C0.0201075 28.7966 -5.94352e-05 28.8983 1.31571e-07 29.0009V46.1884C-5.94352e-05 46.291 0.0201075 46.3926 0.0593479 46.4874C0.0985883 46.5822 0.156132 46.6684 0.22869 46.7409C0.301248 46.8135 0.387396 46.871 0.482208 46.9103C0.577021 46.9495 0.678638 46.9697 0.78125 46.9696H8.59375C9.1585 46.9677 9.71603 46.8426 10.2274 46.603C10.7388 46.3634 11.1918 46.015 11.5547 45.5823L24.7497 49.5422C26.4455 50.0537 28.2581 50.0265 29.9377 49.4644L45.1599 44.3908C45.574 44.2525 45.9449 44.0086 46.2359 43.6831C46.5269 43.3577 46.728 42.962 46.8194 42.535C46.9108 42.1081 46.8892 41.6648 46.7569 41.2487C46.6245 40.8327 46.386 40.4583 46.0647 40.1626C45.8105 39.9258 45.5093 39.7452 45.1807 39.6324C44.8521 39.5196 44.5035 39.4773 44.1574 39.5081V39.5081ZM6.25 45.4071H1.5625V29.7821H6.25V45.4071ZM10.9375 43.0634C10.9368 43.6848 10.6897 44.2805 10.2503 44.7199C9.81089 45.1593 9.21514 45.4064 8.59375 45.4071H7.8125V29.7821H8.59375C9.21514 29.7828 9.81089 30.0299 10.2503 30.4693C10.6897 30.9087 10.9368 31.5045 10.9375 32.1259V43.0634ZM44.6641 42.9077L29.4434 47.9813C28.0691 48.4413 26.5861 48.4642 25.1984 48.0469L12.5 44.2352V31.8034L25.1144 35.5881C25.3776 35.6668 25.6221 35.7981 25.8332 35.974C26.0442 36.1498 26.2175 36.3666 26.3424 36.6113C26.4674 36.8559 26.5415 37.1234 26.5602 37.3975C26.5789 37.6715 26.5419 37.9466 26.4515 38.2059C26.361 38.4653 26.2189 38.7037 26.0337 38.9066C25.8486 39.1096 25.6242 39.2729 25.3742 39.3868C25.1242 39.5006 24.8537 39.5626 24.579 39.5691C24.3044 39.5755 24.0313 39.5262 23.7762 39.4241L19.8212 37.8418C19.7259 37.8034 19.624 37.7841 19.5213 37.7851C19.4186 37.7861 19.3171 37.8074 19.2226 37.8477C19.1281 37.888 19.0425 37.9466 18.9707 38.02C18.8989 38.0935 18.8423 38.1804 18.8042 38.2758C18.766 38.3711 18.7471 38.4731 18.7484 38.5758C18.7497 38.6785 18.7713 38.78 18.8119 38.8743C18.8526 38.9687 18.9114 39.0541 18.9851 39.1256C19.0588 39.1972 19.1458 39.2535 19.2413 39.2914L23.1964 40.8737L26.0269 42.0059C26.8156 42.3182 27.6654 42.4455 28.511 42.3782L44.2871 41.0645C44.5504 41.0483 44.8094 41.1372 45.0073 41.3116C45.1041 41.4001 45.1813 41.5078 45.2338 41.628C45.2864 41.7481 45.3132 41.8779 45.3125 42.009C45.3123 42.2079 45.2496 42.4017 45.1333 42.563C45.0169 42.7243 44.8528 42.8449 44.6641 42.9077V42.9077Z" fill="#F5FBFF"/>
</g>
<defs>
<clipPath id="clip0_2745_2794">
<rect width="50" height="50" fill="white"/>
</clipPath>
</defs>
</svg>
