<svg width="50" height="50" viewBox="0 0 50 50" fill="none" xmlns="http://www.w3.org/2000/svg">
<path d="M39.1354 26.0239C41.8567 26.0239 44.0629 28.2315 44.0629 30.9547V32.5796C46.7941 32.5796 49 34.787 49 37.5104V44.0691C49 46.7923 46.7941 49 44.0725 49H34.2173C31.496 49 29.2898 46.7923 29.2898 44.0691V37.5104C29.2898 34.7902 31.4908 32.5848 34.2078 32.5796V30.9547C34.2078 28.2315 36.4141 26.0239 39.1354 26.0239ZM44.0725 35.8668H34.2173C33.4111 35.8668 32.7404 36.4481 32.6013 37.2149L32.5748 37.5104V44.0691C32.5748 44.8759 33.156 45.5471 33.9221 45.6863L34.2173 45.7128H44.0725C44.879 45.7128 45.5495 45.1312 45.6885 44.3645L45.715 44.0691V37.5104C45.715 36.7034 45.1341 36.0324 44.3677 35.8933L44.0725 35.8668ZM22.7102 3C33.5958 3 42.4204 11.8305 42.4204 22.7234L42.4086 23.4154C41.4057 22.9788 40.2989 22.7367 39.1354 22.7367C39.1354 13.646 31.7815 6.28724 22.7102 6.28724C13.6388 6.28724 6.28503 13.646 6.28503 22.7234C6.28503 31.8008 13.6388 39.1596 22.7102 39.1596C23.8386 39.1596 24.9404 39.0459 26.0049 38.8289V42.1724C24.9335 42.3529 23.8328 42.4469 22.7102 42.4469C11.8246 42.4469 3 33.6164 3 22.7234C3 11.8305 11.8246 3 22.7102 3ZM39.1449 39.1462C40.0522 39.1462 40.7874 39.8822 40.7874 40.7898C40.7874 41.6974 40.0522 42.4334 39.1449 42.4334C38.2379 42.4334 37.5024 41.6974 37.5024 40.7898C37.5024 39.8822 38.2379 39.1462 39.1449 39.1462ZM39.1354 29.3111C38.3292 29.3111 37.6584 29.8926 37.5193 30.6593L37.4929 30.9547V32.5796H40.7779V30.9547C40.7779 30.0471 40.0424 29.3111 39.1354 29.3111ZM31.9983 16.6849C32.5692 17.2547 32.6336 18.1403 32.1911 18.7814L32.0013 19.0093L21.4094 29.6368C20.8395 30.2085 19.9535 30.2726 19.3127 29.8288L19.085 29.6385L13.3362 23.8856C12.6947 23.2438 12.6947 22.2031 13.3362 21.5612C13.9063 20.9907 14.7914 20.9273 15.4316 21.371L15.659 21.5612L20.2449 26.1501L29.6755 16.688C30.316 16.0453 31.3561 16.0439 31.9983 16.6849Z" fill="#F5FBFF"/>
</svg>
