<svg width="50" height="50" viewBox="0 0 50 50" fill="none" xmlns="http://www.w3.org/2000/svg">
<path d="M1 8.25902V9.00002C1 24.767 9.366 39.655 22.835 47.853L25 49.17L27.165 47.852C40.634 39.655 49 24.767 49 9.00002V8.25902L25 0.955017L1 8.25902ZM26.126 46.145L25 46.83L23.874 46.145C11.209 38.435 3.263 24.538 3.007 9.73902L25 3.04502L46.993 9.73802C46.737 24.538 38.791 38.435 26.126 46.145V46.145Z" fill="#F5FBFF"/>
<path d="M15.707 25.293L14.293 26.707L22 34.414L41.707 14.707L40.293 13.293L22 31.586L15.707 25.293Z" fill="#F5FBFF"/>
</svg>
