<svg width="22" height="22" viewBox="0 0 22 22" fill="none" xmlns="http://www.w3.org/2000/svg">
<path d="M6.34375 19.9375H3.625C3.1443 19.9375 2.68328 19.7465 2.34337 19.4066C2.00346 19.0667 1.8125 18.6057 1.8125 18.125V11.7812C1.8125 11.3005 2.00346 10.8395 2.34337 10.4996C2.68328 10.1597 3.1443 9.96875 3.625 9.96875H6.34375M12.6875 8.15625V4.53125C12.6875 3.81019 12.4011 3.11867 11.8912 2.6088C11.3813 2.09894 10.6898 1.8125 9.96875 1.8125L6.34375 9.96875V19.9375H16.5662C17.0034 19.9424 17.4275 19.7892 17.7606 19.5061C18.0937 19.223 18.3132 18.8291 18.3787 18.3969L19.6294 10.2406C19.6688 9.98085 19.6513 9.71562 19.578 9.46329C19.5048 9.21096 19.3775 8.97758 19.2051 8.77931C19.0327 8.58104 18.8193 8.42263 18.5795 8.31504C18.3398 8.20746 18.0796 8.15327 17.8169 8.15625H12.6875Z" stroke="#27AE60" stroke-width="1.8125" stroke-linecap="round" stroke-linejoin="round"/>
</svg>
