<svg width="50" height="50" viewBox="0 0 50 50" fill="none" xmlns="http://www.w3.org/2000/svg">
<path d="M43.8086 16.2305C44.1744 15.8636 44.3799 15.3667 44.3799 14.8486C44.3799 14.3306 44.1744 13.8336 43.8086 13.4668L42.3242 11.9824C41.9574 11.6166 41.4605 11.4111 40.9424 11.4111C40.4243 11.4111 39.9274 11.6166 39.5605 11.9824L37.7441 13.8086C34.9476 11.4578 31.5533 9.92971 27.9395 9.39453V7.22656H28.9746C29.5007 7.21939 30.0033 7.00719 30.3754 6.63513C30.7474 6.26307 30.9596 5.7605 30.9668 5.23438V3.13477C30.9668 2.06055 30.0488 1.17188 28.9746 1.17188H21.0449C19.9707 1.17188 19.0527 2.06055 19.0527 3.13477V5.23438C19.0616 5.75998 19.2743 6.2616 19.646 6.63331C20.0177 7.00502 20.5193 7.21775 21.0449 7.22656H22.0801V9.39453C12.5098 10.8008 5.17578 19.0625 5.17578 29.0039C5.17578 39.9316 14.0723 48.8184 25 48.8184C35.9277 48.8184 44.8242 39.9316 44.8242 29.0039C44.8321 25.2223 43.7469 21.5191 41.6992 18.3398L43.8086 16.2305ZM40.9375 13.3691L42.4219 14.8535L40.5566 16.7188C40.1172 16.1719 39.6582 15.6445 39.1602 15.1367L40.9375 13.3691ZM21.0059 5.27344V3.125H29.0137V5.27344H21.0059ZM24.0332 7.22656H25.9863V9.20899C25.5957 9.18945 25.3223 9.18945 25.0098 9.18945C24.6973 9.18945 24.4238 9.19922 24.0332 9.20899V7.22656ZM25.0098 46.8652C15.1563 46.8652 7.14844 38.8477 7.14844 29.0039C7.14844 19.1602 15.1563 11.1328 25.0098 11.1328C34.8633 11.1328 42.8711 19.1504 42.8711 29.0039C42.8711 38.8574 34.8633 46.8652 25.0098 46.8652Z" fill="#F5FBFF"/>
<path d="M25.0098 13.0859H24.8242C16.25 13.1836 9.28711 20.0977 9.10156 28.6523C9.03174 28.7884 8.99494 28.9389 8.99414 29.0918C8.99233 29.2524 9.03275 29.4107 9.11132 29.5508C9.40429 37.9883 16.2988 44.7852 24.7754 44.9023C24.8205 44.9104 24.8663 44.9137 24.9121 44.9121C24.9514 44.9137 24.9908 44.9104 25.0293 44.9023C33.7988 44.9023 40.9277 37.7734 40.9277 29.0039C40.9277 20.2246 33.7891 13.0859 25.0098 13.0859ZM25.8887 42.9297V41.1133C25.8887 40.8543 25.7858 40.6059 25.6026 40.4227C25.4195 40.2396 25.1711 40.1367 24.9121 40.1367C24.6531 40.1367 24.4047 40.2396 24.2216 40.4227C24.0384 40.6059 23.9355 40.8543 23.9355 41.1133V42.9199C17.0898 42.3926 11.6113 36.9238 11.0937 30.0781H12.8027C13.0617 30.0781 13.3101 29.9752 13.4933 29.7921C13.6764 29.609 13.7793 29.3606 13.7793 29.1016C13.7793 28.8426 13.6764 28.5942 13.4933 28.411C13.3101 28.2279 13.0617 28.125 12.8027 28.125H11.0742C11.2892 24.7666 12.7081 21.5985 15.0706 19.2019C17.4331 16.8053 20.5806 15.3412 23.9355 15.0781V16.8945C23.9355 17.1535 24.0384 17.4019 24.2216 17.5851C24.4047 17.7682 24.6531 17.8711 24.9121 17.8711C25.1711 17.8711 25.4195 17.7682 25.6026 17.5851C25.7858 17.4019 25.8887 17.1535 25.8887 16.8945V15.0684C29.2797 15.2871 32.4751 16.7329 34.8779 19.1357C37.2807 21.5385 38.7266 24.734 38.9453 28.125H37.0215C36.7625 28.125 36.5141 28.2279 36.3309 28.411C36.1478 28.5942 36.0449 28.8426 36.0449 29.1016C36.0449 29.3606 36.1478 29.609 36.3309 29.7921C36.5141 29.9752 36.7625 30.0781 37.0215 30.0781H38.9258C38.3984 36.9824 32.8223 42.5 25.8887 42.9297Z" fill="#F5FBFF"/>
<path d="M30.7324 20.8886C30.628 20.8147 30.51 20.7621 30.3851 20.7338C30.2603 20.7056 30.1312 20.7022 30.005 20.724C29.8789 20.7458 29.7584 20.7922 29.6502 20.8607C29.5421 20.9292 29.4486 21.0183 29.375 21.123L25.0098 27.2851L20.6445 21.123C20.4956 20.9119 20.2689 20.7687 20.0144 20.7247C19.7598 20.6808 19.4982 20.7397 19.2871 20.8886C19.076 21.0376 18.9327 21.2643 18.8888 21.5188C18.8448 21.7734 18.9038 22.035 19.0527 22.2461L24.0332 29.2871V29.6875H21.0058C20.7468 29.6875 20.4985 29.7904 20.3153 29.9735C20.1322 30.1566 20.0293 30.405 20.0293 30.664C20.0293 30.923 20.1322 31.1714 20.3153 31.3546C20.4985 31.5377 20.7468 31.6406 21.0058 31.6406H24.0332V31.9336H21.0058C20.7468 31.9336 20.4985 32.0365 20.3153 32.2196C20.1322 32.4027 20.0293 32.6511 20.0293 32.9101C20.0293 33.1691 20.1322 33.4175 20.3153 33.6007C20.4985 33.7838 20.7468 33.8867 21.0058 33.8867H24.0332V36.914C24.0332 37.173 24.1361 37.4214 24.3192 37.6046C24.5024 37.7877 24.7508 37.8906 25.0098 37.8906C25.2688 37.8906 25.5171 37.7877 25.7003 37.6046C25.8834 37.4214 25.9863 37.173 25.9863 36.914V33.8867H29.0137C29.2727 33.8867 29.5211 33.7838 29.7042 33.6007C29.8873 33.4175 29.9902 33.1691 29.9902 32.9101C29.9902 32.6511 29.8873 32.4027 29.7042 32.2196C29.5211 32.0365 29.2727 31.9336 29.0137 31.9336H25.9863V31.6406H29.0137C29.2727 31.6406 29.5211 31.5377 29.7042 31.3546C29.8873 31.1714 29.9902 30.923 29.9902 30.664C29.9902 30.405 29.8873 30.1566 29.7042 29.9735C29.5211 29.7904 29.2727 29.6875 29.0137 29.6875H25.9863V29.2871L30.9668 22.2461C31.0419 22.142 31.0954 22.024 31.1243 21.899C31.1532 21.774 31.1568 21.6445 31.135 21.5181C31.1131 21.3917 31.0663 21.2709 30.9972 21.1628C30.928 21.0547 30.838 20.9615 30.7324 20.8886Z" fill="#F5FBFF"/>
</svg>
