<svg width="32" height="32" viewBox="0 0 32 32" fill="none" xmlns="http://www.w3.org/2000/svg">
<path d="M19 5V19H13C12.7348 19 12.4804 19.1054 12.2929 19.2929C12.1054 19.4804 12 19.7348 12 20V26H5C4.46957 26 3.96086 25.7893 3.58579 25.4142C3.21071 25.0391 3 24.5304 3 24V5C3 4.46957 3.21071 3.96086 3.58579 3.58579C3.96086 3.21071 4.46957 3 5 3H17C17.5304 3 18.0391 3.21071 18.4142 3.58579C18.7893 3.96086 19 4.46957 19 5Z" stroke="#121212" stroke-width="2" stroke-linecap="round" stroke-linejoin="round"/>
<path d="M28 19H13C12.4477 19 12 19.4477 12 20V28C12 28.5523 12.4477 29 13 29H28C28.5523 29 29 28.5523 29 28V20C29 19.4477 28.5523 19 28 19Z" stroke="#121212" stroke-width="2" stroke-linecap="round" stroke-linejoin="round"/>
<path d="M21 26C22.1046 26 23 25.1046 23 24C23 22.8954 22.1046 22 21 22C19.8954 22 19 22.8954 19 24C19 25.1046 19.8954 26 21 26Z" stroke="#121212" stroke-width="2" stroke-linecap="round" stroke-linejoin="round"/>
<path d="M7 7H8" stroke="#121212" stroke-width="2" stroke-linecap="round" stroke-linejoin="round"/>
<path d="M11 7H15" stroke="#121212" stroke-width="2" stroke-linecap="round" stroke-linejoin="round"/>
<path d="M7 11H8" stroke="#121212" stroke-width="2" stroke-linecap="round" stroke-linejoin="round"/>
<path d="M11 11H15" stroke="#121212" stroke-width="2" stroke-linecap="round" stroke-linejoin="round"/>
<path d="M7 15H8" stroke="#121212" stroke-width="2" stroke-linecap="round" stroke-linejoin="round"/>
<path d="M11 15H15" stroke="#121212" stroke-width="2" stroke-linecap="round" stroke-linejoin="round"/>
</svg>
