<svg width="24" height="24" viewBox="0 0 24 24" fill="none" xmlns="http://www.w3.org/2000/svg">
<path opacity="0.1" fill-rule="evenodd" clip-rule="evenodd" d="M0 12C0 5.37258 5.37258 0 12 0C18.6274 0 24 5.37258 24 12C24 18.6274 18.6274 24 12 24C5.37258 24 0 18.6274 0 12Z" fill="white"/>
<path fill-rule="evenodd" clip-rule="evenodd" d="M11.8267 9.55375L11.8527 9.96898L11.4192 9.91813C9.8411 9.72323 8.46247 9.06226 7.29193 7.95216L6.71966 7.40135L6.57226 7.8081C6.26012 8.71482 6.45955 9.67239 7.10984 10.3164C7.45667 10.6723 7.37864 10.7232 6.78036 10.5113C6.57226 10.4435 6.39018 10.3927 6.37284 10.4181C6.31214 10.4774 6.52024 11.2486 6.68498 11.5536C6.91042 11.9773 7.36996 12.3925 7.87286 12.6383L8.29773 12.8332L7.79483 12.8417C7.30927 12.8417 7.29193 12.8501 7.34395 13.0281C7.51737 13.5789 8.20235 14.1636 8.96537 14.4178L9.50295 14.5958L9.03473 14.867C8.34108 15.2568 7.52604 15.4771 6.71099 15.494C6.32081 15.5025 6 15.5364 6 15.5618C6 15.6466 7.05782 16.1211 7.67344 16.3075C9.52029 16.8584 11.714 16.6211 13.3614 15.6805C14.5319 15.011 15.7025 13.6806 16.2487 12.3925C16.5435 11.7062 16.8383 10.452 16.8383 9.85034C16.8383 9.46054 16.8643 9.40969 17.3499 8.94362C17.636 8.67245 17.9048 8.37586 17.9568 8.29112C18.0435 8.13011 18.0349 8.13011 17.5927 8.27417C16.8557 8.52839 16.7516 8.4945 17.1158 8.11317C17.3846 7.842 17.7054 7.3505 17.7054 7.20645C17.7054 7.18102 17.5753 7.22339 17.4279 7.29966C17.2719 7.3844 16.925 7.51151 16.6649 7.58778L16.1967 7.73184L15.7718 7.45219C15.5377 7.29966 15.2082 7.13018 15.0348 7.07934C14.5926 6.9607 13.9163 6.97765 13.5175 7.11323C12.4336 7.49456 11.7486 8.47755 11.8267 9.55375Z" fill="white"/>
</svg>
