<svg width="40" height="40" viewBox="0 0 40 40" fill="none" xmlns="http://www.w3.org/2000/svg">
<circle cx="20" cy="20" r="20" fill="#E0E0E0"/>
<path d="M30.6663 32V29.3333C30.6663 27.9188 30.1044 26.5623 29.1042 25.5621C28.104 24.5619 26.7475 24 25.333 24H14.6663C13.2519 24 11.8953 24.5619 10.8951 25.5621C9.89491 26.5623 9.33301 27.9188 9.33301 29.3333V32" stroke="#121212" stroke-width="2" stroke-linecap="round" stroke-linejoin="round"/>
<path d="M20.0003 18.6667C22.9458 18.6667 25.3337 16.2789 25.3337 13.3333C25.3337 10.3878 22.9458 8 20.0003 8C17.0548 8 14.667 10.3878 14.667 13.3333C14.667 16.2789 17.0548 18.6667 20.0003 18.6667Z" stroke="#121212" stroke-width="2" stroke-linecap="round" stroke-linejoin="round"/>
</svg>
